<svg width="400" height="400" viewBox="0 0 400 400" fill="none" xmlns="http://www.w3.org/2000/svg">
<path opacity="0.41" d="M155.663 260.584C152.41 260.571 149.152 260.44 145.891 260.173C110.154 257.244 68.7528 240.179 50.9584 209.108C35.4016 181.946 29.2936 146.78 36.3768 116.486C43.0352 88.01 63.6784 64.9428 92.5848 56.1836C125.094 46.3332 161.023 58.302 193.012 44.8492C239.571 25.2692 298.09 40.8188 330.721 78.0724C359.651 111.101 366.654 164.36 357.572 205.625C352.982 226.481 340.909 246.567 321.69 257.067C306.399 265.421 287.915 267.068 270.43 264.891C256.37 263.14 243.426 258.555 229.902 254.781C219.061 251.756 210.166 253.331 199.07 255.527C184.79 258.352 170.27 260.645 155.663 260.584Z" fill="#47B3F1"/>
<path d="M163.641 240.656C161.008 240.645 158.372 240.539 155.734 240.323C126.815 237.953 93.3152 224.144 78.9168 199.003C66.3288 177.024 61.3856 148.568 67.1176 124.055C72.5056 101.013 89.2096 82.3473 112.6 75.2601C138.906 67.2897 167.979 76.9745 193.863 66.0889C231.538 50.2457 278.89 62.8281 305.294 92.9721C328.704 119.698 334.37 162.794 327.022 196.185C323.308 213.061 313.538 229.314 297.986 237.81C285.613 244.57 270.657 245.903 256.507 244.142C245.13 242.725 234.657 239.015 223.713 235.961C214.941 233.513 207.742 234.787 198.764 236.564C187.21 238.85 175.46 240.705 163.641 240.656Z" stroke="white" stroke-width="1.9456" stroke-miterlimit="10" stroke-dasharray="3.85 3.85"/>
<path opacity="0.87" d="M332.576 352.111C340.349 352.111 346.65 351.632 346.65 351.041C346.65 350.451 340.349 349.972 332.576 349.972C324.803 349.972 318.502 350.451 318.502 351.041C318.502 351.632 324.803 352.111 332.576 352.111Z" fill="#515159"/>
<path d="M334.362 310.576C334.362 310.576 322.313 302.389 330.053 290.49C337.793 278.591 335.858 274.456 333.149 271.105C339.727 278.591 338.286 287.12 334.362 292.53C330.439 297.94 329.818 305.302 334.362 310.576Z" fill="#AFAFAF"/>
<path d="M344.194 320.733H320.958L323.226 350.149H341.926L344.194 320.733Z" fill="#FEFEFE"/>
<path d="M346.65 319.229H318.502V322.678H346.65V319.229Z" fill="#8B8B8C"/>
<path d="M341.122 316.126H324.03C322.334 316.126 320.958 317.501 320.958 319.198V319.229H344.194V319.198C344.194 317.501 342.818 316.126 341.122 316.126Z" fill="#5A5A63"/>
<path d="M342.902 337.492L343.451 330.366H321.701L322.25 337.492H342.902Z" fill="#EDB62B"/>
<path d="M344.194 319.228V319.197C344.194 317.5 342.818 316.125 341.122 316.125H332.657C334.354 316.125 335.729 317.5 335.729 319.197V319.228H338.184V322.678H335.578L333.461 350.147H341.926L344.044 322.678H346.65V319.228H344.194Z" fill="#AFAFAF"/>
<path d="M219.45 136.31C219.45 136.31 224.32 121.039 217.206 116.605C212.683 114.281 210.212 117.176 210.212 117.176C210.212 117.176 208.086 106.378 193.432 109.946C183.94 112.256 180.946 107.363 180.946 107.363C180.946 107.363 180.858 120.898 187.394 124.923C192.127 128.982 190.312 139.952 190.312 139.952L219.45 136.31Z" fill="#2F2F35"/>
<path opacity="0.87" d="M262.619 335.873C262.619 335.873 289.001 336.666 296.363 343.462C304.106 350.61 312.23 361.771 278.897 361.556C245.564 361.341 216.014 352.167 188.058 355.079C160.101 357.99 137.159 363.01 130.476 361.896C123.793 360.783 171.429 337.963 171.429 337.963L259.87 341.208L262.619 335.873Z" fill="#515159"/>
<path d="M237.944 276.533L204.686 273.192L171.429 276.533C171.429 276.533 169.454 292.248 163.031 300.631C204.686 315.591 204.686 315.591 204.686 315.591C204.686 315.591 204.686 315.591 246.342 300.631C239.92 292.248 237.944 276.533 237.944 276.533Z" fill="#A87D1D"/>
<path d="M203.373 315.119C204.685 315.59 204.686 315.591 204.686 315.591C204.686 315.591 204.688 315.59 205.998 315.12C213.662 297.488 211.829 277.708 211.374 273.864L204.687 273.192L196.128 274.052C195.957 278.277 195.671 297.6 203.373 315.119Z" fill="#A87D1D"/>
<path d="M171.24 277.816C171.242 277.816 206.236 293.251 240.033 286.543C238.514 281.056 237.945 276.533 237.945 276.533L204.687 273.192L177.971 275.876L171.24 277.816Z" fill="#895436"/>
<path d="M187.394 124.922C192.126 128.981 190.311 139.951 190.311 139.951L196.502 139.178C202.861 133.519 210.038 126.355 208.996 123.657C207.17 118.927 201.894 114.206 192.167 113.666C182.44 113.126 180.946 107.362 180.946 107.362C180.946 107.362 180.857 120.898 187.394 124.922Z" fill="#515159"/>
<path d="M203.479 163.244L175.985 173.267L171.429 276.534C171.429 276.534 181.148 281.09 204.686 281.09C204.686 173.757 204.686 164.848 204.686 164.848L203.479 163.244Z" fill="white"/>
<path d="M205.894 163.244L233.388 173.267L237.944 276.534C237.944 276.534 228.225 281.09 204.686 281.09C204.686 173.757 204.686 164.848 204.686 164.848L205.894 163.244Z" fill="white"/>
<path d="M175.985 173.268L175.858 173.313C167.826 176.181 161.409 182.354 158.23 190.268L128.718 261.699L153.814 264.689L175.058 212.621L175.985 173.268Z" fill="#FF7E6E"/>
<path d="M233.388 173.268L233.516 173.313C241.547 176.181 247.965 182.354 251.143 190.268L280.656 261.699L255.56 264.689L234.315 212.621L233.388 173.268Z" fill="#FF7E6E"/>
<path d="M262.603 218.003L251.143 190.267C247.965 182.353 241.547 176.181 233.516 173.312L233.388 173.267L234.315 212.619L240.334 227.37C248.368 220.641 256.429 218.456 262.603 218.003Z" fill="#E8E8E8"/>
<path d="M146.77 218.003L158.23 190.267C161.408 182.353 167.826 176.181 175.857 173.312L175.985 173.267L175.058 212.619L169.039 227.37C161.005 220.641 152.944 218.456 146.77 218.003Z" fill="#E8E8E8"/>
<path d="M235.185 213.98C235.185 213.98 234.44 212.937 233.389 210.982L234.316 212.619C234.316 212.619 223.855 270.68 195.891 280.858C198.58 281.002 201.502 281.088 204.687 281.088C228.226 281.088 237.945 276.532 237.945 276.532L235.185 213.98Z" fill="#D3D3D3"/>
<path opacity="0.52" d="M163.031 206.372C170.123 186.479 170.518 186.631 186.008 182.986C201.498 179.341 198.452 165.077 198.452 165.077L184.01 170.341L181.777 171.156L175.985 173.267L175.857 173.312C167.826 176.18 161.408 182.353 158.23 190.266L129.94 258.737C141.887 249.943 156.99 223.316 163.031 206.372Z" fill="#FFF6E7"/>
<path opacity="0.28" d="M246.342 206.372C239.25 186.479 238.855 186.631 223.365 182.986C207.875 179.341 210.921 165.077 210.921 165.077L225.362 170.341L227.596 171.156L233.387 173.267L233.515 173.312C241.546 176.18 247.964 182.353 251.142 190.266L279.432 258.737C267.486 249.943 252.382 223.316 246.342 206.372Z" fill="#4C2A29"/>
<path d="M204.761 175.984H204.612C200.548 175.984 197.253 172.69 197.253 168.625V151.055H212.119V168.625C212.12 172.69 208.825 175.984 204.761 175.984Z" fill="#FF7E6E"/>
<path d="M212.001 164.607C212.043 164.607 212.078 164.602 212.12 164.601V151.055H205.18L197.253 153.919C197.253 153.919 200.203 164.607 212.001 164.607Z" fill="#4C2A29"/>
<path d="M221.979 140.499C221.979 143.136 219.842 145.273 217.206 145.273C214.57 145.273 212.432 143.136 212.432 140.499C212.432 137.862 214.57 135.726 217.206 135.726C219.842 135.726 221.979 137.862 221.979 140.499Z" fill="#C64F4F"/>
<path d="M218.134 145.179C218.824 142.412 219.229 138.872 219.45 136.31C218.778 135.95 218.021 135.726 217.205 135.726C214.569 135.726 212.431 137.863 212.431 140.499C212.431 143.136 214.569 145.273 217.205 145.273C217.524 145.273 217.834 145.238 218.134 145.179Z" fill="#803D3D"/>
<path d="M187.394 140.499C187.394 143.136 189.531 145.273 192.167 145.273C194.804 145.273 196.941 143.136 196.941 140.499C196.941 137.862 194.804 135.726 192.167 135.726C189.531 135.726 187.394 137.862 187.394 140.499Z" fill="#C64F4F"/>
<path d="M191.238 145.179C190.548 142.412 190.144 138.872 189.923 136.31C190.595 135.95 191.352 135.726 192.168 135.726C194.805 135.726 196.942 137.863 196.942 140.499C196.942 143.136 194.804 145.273 192.168 145.273C191.85 145.273 191.539 145.238 191.238 145.179Z" fill="#803D3D"/>
<path d="M213.088 123.803H204.686H196.285L192.126 132.888L192.826 141.88C193.199 146.679 196.299 154.964 200.661 157C201.957 157.605 203.33 158.008 204.686 158.008C206.043 158.008 207.416 157.605 208.712 157C213.074 154.964 216.174 146.68 216.547 141.88L217.246 132.888L213.088 123.803Z" fill="#FF7E6E"/>
<path d="M208.996 135.209C208.996 135.209 211.815 135.999 215.005 135.209" stroke="#2F2F35" stroke-width="1.3362" stroke-miterlimit="10" stroke-linecap="round"/>
<path d="M208.086 130.041C208.086 130.041 212.203 129.356 214.678 130.783" stroke="#2F2F35" stroke-width="2.6723" stroke-miterlimit="10" stroke-linecap="round"/>
<path d="M200.377 135.209C200.377 135.209 197.558 135.999 194.367 135.209" stroke="#2F2F35" stroke-width="1.3362" stroke-miterlimit="10" stroke-linecap="round"/>
<path d="M201.287 130.041C201.287 130.041 197.17 129.356 194.694 130.783" stroke="#2F2F35" stroke-width="2.6723" stroke-miterlimit="10" stroke-linecap="round"/>
<path opacity="0.52" d="M197.991 143.044C197.442 133.958 196.285 123.803 196.285 123.803L192.126 132.888L192.349 135.743C192.287 135.74 192.23 135.724 192.168 135.724C189.532 135.724 187.394 137.862 187.394 140.498C187.394 143.135 189.532 145.272 192.168 145.272C192.586 145.272 192.984 145.201 193.37 145.1C194.494 149.744 197.172 155.372 200.662 157C201.958 157.605 203.33 158.008 204.687 158.008C204.687 158.008 198.54 152.13 197.991 143.044Z" fill="#FFF6E7"/>
<path d="M233.387 316.928L138.373 288.101C125.757 284.273 112.489 291.7 109.155 304.454L109.029 304.936C105.594 318.077 114.115 331.353 127.495 333.692C162.626 339.833 226.3 350.276 259.812 351.553L273.939 360.97C276.071 362.393 278.903 362.158 280.774 360.405L280.847 360.337C283.069 358.253 283.183 354.763 281.1 352.539L278.897 350.186C278.897 350.186 276.933 340.619 267.234 336.518C257.535 332.418 256.623 322.395 254.346 316.928C252.067 311.461 237.488 308.728 233.387 316.928Z" fill="#8C4242"/>
<path d="M109.155 304.454C112.49 291.699 125.758 284.273 138.374 288.101L170.595 297.877C165.742 303.932 159.34 316.223 159.146 339.034C147.382 337.122 136.498 335.265 127.495 333.692C114.115 331.353 105.594 318.077 109.029 304.936L109.155 304.454Z" fill="#EDB62B"/>
<path opacity="0.67" d="M139.128 324.494C139.128 328.368 138.198 332.024 136.56 335.259C133.378 334.714 130.334 334.187 127.496 333.691C114.116 331.353 105.594 318.076 109.03 304.935L109.155 304.454C109.454 303.308 109.837 302.207 110.289 301.152C111.894 300.811 113.557 300.629 115.263 300.629C128.443 300.63 139.128 311.314 139.128 324.494Z" fill="#A87D1D"/>
<path d="M237.944 330.14C237.944 330.14 236.578 338.102 223.366 335.26" stroke="#7B3C38" stroke-width="1.139" stroke-miterlimit="10"/>
<path opacity="0.28" d="M246.342 326.495C246.342 326.495 226.098 325.584 183.274 317.945C148.578 311.756 138.401 293.997 135.786 287.477C136.65 287.635 137.513 287.839 138.373 288.1L233.387 316.927C237.488 308.726 252.066 311.46 254.344 316.927C256.622 322.394 257.533 332.417 267.232 336.517C276.931 340.617 278.895 350.185 278.895 350.185C278.895 350.185 268.922 343.807 262.618 342.441C256.313 341.074 246.342 326.495 246.342 326.495Z" fill="#4C2A29"/>
<path d="M250.726 351.041C250.726 351.041 268.173 367.734 283.047 360.865C285.522 359.722 286.298 356.562 284.682 354.367C272.152 337.35 256.354 318.812 250.333 311.845C248.826 310.101 246.439 309.396 244.226 310.039L227.09 315.017L250.726 351.041Z" fill="#2F2F35"/>
<path d="M227.09 315.017L210.678 310.037L223.11 348.294L250.726 351.04L227.09 315.017Z" fill="#A5A5A5"/>
<path d="M175.985 316.928L271 288.101C283.616 284.273 296.884 291.7 300.218 304.454L300.344 304.936C303.779 318.077 295.258 331.353 281.878 333.692C246.747 339.833 183.073 350.276 149.561 351.553L135.434 360.97C133.302 362.393 130.47 362.158 128.599 360.405L128.526 360.337C126.304 358.253 126.19 354.763 128.273 352.539L130.476 350.186C130.476 350.186 132.44 340.619 142.139 336.518C151.838 332.418 152.75 322.395 155.027 316.928C157.306 311.461 171.884 308.728 175.985 316.928Z" fill="#FF7E6E"/>
<path d="M300.218 304.454C296.883 291.699 283.614 284.273 270.999 288.101L238.778 297.877C243.631 303.932 250.033 316.223 250.226 339.034C261.99 337.122 272.874 335.265 281.877 333.692C295.257 331.353 303.778 318.077 300.343 304.936L300.218 304.454Z" fill="#EDB62B"/>
<path opacity="0.67" d="M270.245 324.495C270.245 328.369 271.174 332.025 272.813 335.26C275.994 334.715 279.038 334.188 281.877 333.692C295.257 331.354 303.778 318.077 300.343 304.936L300.218 304.455C299.918 303.309 299.536 302.208 299.084 301.153C297.479 300.812 295.816 300.63 294.11 300.63C280.93 300.631 270.245 311.315 270.245 324.495Z" fill="#A87D1D"/>
<path opacity="0.28" d="M163.031 326.495C163.031 326.495 183.274 325.584 226.099 317.945C260.794 311.756 270.972 293.997 273.586 287.477C272.723 287.635 271.86 287.839 271 288.1L175.985 316.928C171.885 308.727 157.306 311.461 155.028 316.928C152.75 322.395 151.839 332.417 142.14 336.518C132.441 340.618 130.477 350.186 130.477 350.186C130.477 350.186 140.45 343.808 146.754 342.441C153.058 341.074 163.031 326.495 163.031 326.495Z" fill="#4C2A29"/>
<path opacity="0.57" d="M142.139 336.519L127.896 333.878C115.005 331.82 106.274 319.634 108.474 306.766L108.56 306.262C110.958 292.232 125.198 283.555 138.766 287.855L165.659 296.379" stroke="white" stroke-width="1.1139" stroke-miterlimit="10"/>
<path d="M199.802 142.896C199.29 142.896 198.989 143.489 199.303 143.893C200.73 145.724 202.618 146.844 204.694 146.844C206.77 146.844 208.658 145.724 210.084 143.893C210.398 143.489 210.098 142.896 209.586 142.896H199.802Z" fill="white"/>
<path d="M206.097 135.008V139.95C206.097 139.95 204.96 139.308 203.378 139.95" stroke="#2F2F35" stroke-width="0.8212" stroke-miterlimit="10" stroke-linecap="round"/>
<path d="M210.212 117.175H208.996V124.908H210.212V117.175Z" fill="#FF7E6E"/>
<path d="M280.656 261.698L280.706 261.837C283.554 269.722 280.143 278.499 272.718 282.392L221.979 308.989L221.729 308.341C217.258 296.793 221.934 283.713 232.712 277.615L255.561 264.689L280.656 261.698Z" fill="#FF7E6E"/>
<path opacity="0.28" d="M269.942 277.989C269.942 279.862 270.41 281.623 271.228 283.171L272.718 282.391C278.574 279.321 281.918 273.211 281.678 266.899C281.474 266.888 281.271 266.868 281.063 266.868C274.921 266.868 269.942 271.847 269.942 277.989Z" fill="#4C2A29"/>
<path d="M255.56 264.688L269.942 256.532" stroke="#4C2A29" stroke-width="1.3362" stroke-miterlimit="10" stroke-linecap="round"/>
<path d="M128.866 261.698L128.815 261.837C125.967 269.722 129.378 278.499 136.804 282.392L187.542 308.989L187.794 308.341C192.264 296.793 187.588 283.713 176.81 277.615L153.962 264.689L128.866 261.698Z" fill="#FF7E6E"/>
<path opacity="0.28" d="M139.579 277.989C139.579 279.862 139.111 281.623 138.294 283.171L136.804 282.391C130.948 279.321 127.605 273.211 127.843 266.899C128.048 266.888 128.25 266.868 128.458 266.868C134.6 266.868 139.579 271.847 139.579 277.989Z" fill="#4C2A29"/>
<path d="M153.962 264.688L139.579 256.532" stroke="#4C2A29" stroke-width="1.3362" stroke-miterlimit="10" stroke-linecap="round"/>
<path d="M181.912 306.036C181.912 306.036 184.473 291.985 176.134 287.477" stroke="#4C2A29" stroke-width="1.3362" stroke-miterlimit="10" stroke-linecap="round"/>
<path d="M227.461 306.036C227.461 306.036 224.9 291.985 233.239 287.477" stroke="#4C2A29" stroke-width="1.3362" stroke-miterlimit="10" stroke-linecap="round"/>
<path d="M158.647 351.041C158.647 351.041 141.2 367.734 126.326 360.865C123.851 359.722 123.075 356.562 124.691 354.367C137.221 337.35 153.018 318.812 159.04 311.845C160.547 310.101 162.934 309.396 165.147 310.039L182.282 315.017L158.647 351.041Z" fill="#2F2F35"/>
<path d="M182.283 315.017L198.694 310.037L186.262 348.294L158.647 351.04L182.283 315.017Z" fill="#ECECEC"/>
<path opacity="0.28" d="M175.458 325.42C180.326 324.9 186.649 324.14 194.47 323.036L198.694 310.038L182.283 315.017L175.458 325.42Z" fill="#4C2A29"/>
<path d="M163.876 339.422L154.355 353.932C153.762 354.836 152.703 355.319 151.632 355.173L151.569 355.164C149.506 354.884 148.457 352.535 149.624 350.812L159.362 336.436C159.985 335.516 161.11 335.077 162.191 335.331L162.247 335.344C164.06 335.769 164.897 337.866 163.876 339.422Z" fill="#FFF6E7"/>
<path d="M203.378 255.558H145.113L159.478 306.726H203.378H247.278L261.644 255.558H203.378Z" fill="#AFAFAF"/>
<path d="M247.278 306.727H159.478V314.179H247.278V306.727Z" fill="#47B3F1"/>
<path d="M203.478 292.47C211.346 292.47 217.725 289.203 217.725 285.174C217.725 281.144 211.346 277.878 203.478 277.878C195.61 277.878 189.232 281.144 189.232 285.174C189.232 289.203 195.61 292.47 203.478 292.47Z" fill="#5A5A63"/>
<path d="M261.644 252.163H145.113V255.557H261.644V252.163Z" fill="#5A5A63"/>
<path d="M173.134 308.866H164.342V311.862H173.134V308.866Z" fill="#5A5A63"/>
<path d="M185.825 308.866H177.032V311.862H185.825V308.866Z" fill="#5A5A63"/>
<path d="M247.278 310.453H193.843" stroke="#0F1201" stroke-miterlimit="10"/>
<path opacity="0.54" d="M145.113 255.557L159.478 306.727H190.75C209.318 285.199 220.599 255.557 220.599 255.557L220.561 252.163H145.113V255.557Z" fill="white"/>
<path opacity="0.57" d="M145.113 255.558H261.644" stroke="#0F1201" stroke-miterlimit="10"/>
<path opacity="0.87" d="M84.5776 352.11C96.2472 352.11 105.707 351.631 105.707 351.04C105.707 350.45 96.2472 349.971 84.5776 349.971C72.908 349.971 63.448 350.45 63.448 351.04C63.448 351.631 72.908 352.11 84.5776 352.11Z" fill="#515159"/>
<path d="M87.6672 340.519L89.052 339.011L88.36 339.765L89.0584 339.016C88.888 338.854 72.2128 321.948 92.3552 245.768L90.3744 245.244C69.8104 323.019 86.9288 339.841 87.6672 340.519Z" fill="#5A5A63"/>
<path d="M81.4552 247.079C89.084 254.012 87.7472 262.209 87.7472 262.209C87.7472 262.209 80.1072 258.95 78.3352 248.796C78.024 247.015 80.1176 245.863 81.4552 247.079Z" fill="#5A5A63"/>
<path d="M100.542 251.973C90.5184 254.379 87.7464 262.209 87.7464 262.209C87.7464 262.209 96.0112 263.029 102.452 254.979C103.582 253.568 102.3 251.551 100.542 251.973Z" fill="#5A5A63"/>
<path d="M76.228 267.003C84.5152 273.134 84.0088 281.424 84.0088 281.424C84.0088 281.424 76.08 278.95 73.296 269.024C72.808 267.284 74.7744 265.928 76.228 267.003Z" fill="#5A5A63"/>
<path d="M95.7112 269.953C85.98 273.355 84.0088 281.423 84.0088 281.423C84.0088 281.423 92.3144 281.407 97.9128 272.752C98.8944 271.235 97.4168 269.357 95.7112 269.953Z" fill="#5A5A63"/>
<path d="M72.9152 284.473C81.6336 289.974 81.7416 298.279 81.7416 298.279C81.7416 298.279 73.652 296.399 70.1408 286.706C69.5256 285.007 71.3872 283.508 72.9152 284.473Z" fill="#5A5A63"/>
<path d="M92.5632 285.975C83.1104 290.088 81.7416 298.279 81.7416 298.279C81.7416 298.279 90.0232 297.649 94.9664 288.603C95.8328 287.017 94.2208 285.253 92.5632 285.975Z" fill="#5A5A63"/>
<path d="M97.7976 231.814C97.9704 242.122 91.0816 246.761 91.0816 246.761C91.0816 246.761 88.224 238.962 94.4096 230.716C95.4936 229.27 97.7672 230.007 97.7976 231.814Z" fill="#5A5A63"/>
<path d="M94.8512 306.743H72.7V350.564H94.8512V306.743Z" fill="#47B3F1"/>
<path opacity="0.67" d="M94.8512 306.743H86.0016V350.564H94.8512V306.743Z" fill="#A87D1D"/>
<path d="M104.578 97.7412L96.608 99.7236C95.452 100.012 94.2808 99.3068 93.9936 98.1508L93.2264 95.066L105.385 92.042L106.152 95.1268C106.439 96.2836 105.735 97.454 104.578 97.7412Z" fill="#A87D1D"/>
<path d="M134.196 88.2363L65.3416 105.36C64.1472 105.657 62.9376 104.93 62.64 103.735L51.2848 58.0755C50.988 56.8811 51.7152 55.6715 52.9104 55.3739L121.765 38.2499C122.959 37.9531 124.169 38.6803 124.466 39.8755L135.821 85.5347C136.118 86.7299 135.39 87.9387 134.196 88.2363Z" fill="#A87D1D"/>
<path d="M132.155 80.3455L130.235 85.8623L69.1448 101.055L63.72 97.3655L52.468 52.1255L120.904 35.1055L132.155 80.3455Z" fill="#EDB62B"/>
<path d="M85.8039 43.8357L52.464 52.126L63.713 97.3645L97.0529 89.0742L85.8039 43.8357Z" fill="white"/>
<path d="M83.7434 47.7069L56.3502 54.5186L56.7436 56.1007L84.1369 49.2891L83.7434 47.7069Z" fill="#AFAFAF"/>
<path d="M85.008 52.7608L57.6147 59.5752L58.0083 61.1573L85.4016 54.3429L85.008 52.7608Z" fill="#AFAFAF"/>
<path d="M86.2606 57.831L58.8673 64.6426L59.2607 66.2247L86.654 59.4131L86.2606 57.831Z" fill="#AFAFAF"/>
<path d="M87.5194 62.8915L60.1261 69.7031L60.5196 71.2853L87.9128 64.4737L87.5194 62.8915Z" fill="#AFAFAF"/>
<path d="M88.7846 67.9453L61.3913 74.7598L61.7849 76.3419L89.1782 69.5275L88.7846 67.9453Z" fill="#AFAFAF"/>
<path d="M90.0364 73.0155L62.6432 79.8271L63.0366 81.4093L90.4298 74.5977L90.0364 73.0155Z" fill="#AFAFAF"/>
<path d="M91.2953 78.0771L63.9021 84.8887L64.2955 86.4708L91.6887 79.6592L91.2953 78.0771Z" fill="#AFAFAF"/>
<path d="M92.5619 83.1309L65.1687 89.9453L65.5623 91.5275L92.9555 84.713L92.5619 83.1309Z" fill="#AFAFAF"/>
<path d="M120.9 35.0979L87.5606 43.3916L98.8142 88.6301L132.154 80.3364L120.9 35.0979Z" fill="white"/>
<path d="M118.588 39.0322L91.1952 45.8467L91.5888 47.4288L118.982 40.6144L118.588 39.0322Z" fill="#AFAFAF"/>
<path d="M119.843 44.1054L92.4499 50.917L92.8433 52.4991L120.237 45.6875L119.843 44.1054Z" fill="#AFAFAF"/>
<path d="M121.101 49.1679L93.7081 55.9795L94.1015 57.5616L121.495 50.75L121.101 49.1679Z" fill="#AFAFAF"/>
<path d="M122.366 54.2168L94.9726 61.0312L95.3662 62.6134L122.759 55.799L122.366 54.2168Z" fill="#AFAFAF"/>
<path d="M123.619 59.2909L96.2257 66.1025L96.6191 67.6847L124.012 60.8731L123.619 59.2909Z" fill="#AFAFAF"/>
<path d="M124.877 64.3525L97.484 71.1641L97.8774 72.7462L125.271 65.9346L124.877 64.3525Z" fill="#AFAFAF"/>
<path d="M126.143 69.4024L98.7499 76.2168L99.1435 77.7989L126.537 70.9845L126.143 69.4024Z" fill="#AFAFAF"/>
<path d="M127.394 74.4755L100.001 81.2871L100.394 82.8693L127.788 76.0576L127.394 74.4755Z" fill="#AFAFAF"/>
<path d="M102.49 95.0975L97.2152 96.4095C96.0592 96.6967 94.8896 95.9927 94.6016 94.8375L94.12 92.9007L103.581 90.5479L104.062 92.4847C104.35 93.6399 103.646 94.8103 102.49 95.0975Z" fill="#EDB62B"/>
<path d="M219.573 30.0458C216.837 27.4442 213.38 25.6698 209.821 24.4842C209.797 24.4762 209.742 24.461 209.661 24.4394C206.437 23.5762 203.038 23.5762 199.814 24.4394C199.734 24.461 199.678 24.4762 199.654 24.4842C196.095 25.6698 192.638 27.445 189.902 30.0458C181.758 37.789 183.082 51.8434 191.013 59.2594C193.238 61.3394 194.214 64.025 194.895 66.9858C195.101 67.8778 196.281 77.1778 195.869 77.1778C199.849 77.1778 204.737 77.1778 204.737 77.1778C204.737 77.1778 209.625 77.1778 213.605 77.1778C213.194 77.1778 214.374 67.877 214.578 66.9858C215.26 64.0258 216.237 61.3402 218.462 59.2594C226.394 51.8442 227.716 37.7898 219.573 30.0458Z" fill="#EDB62B"/>
<path opacity="0.52" d="M201.548 66.9856C200.867 64.0256 199.89 61.34 197.666 59.2592C189.734 51.8432 188.411 37.7888 196.555 30.0456C199.291 27.444 202.748 25.6696 206.307 24.484C206.331 24.476 206.386 24.4608 206.467 24.4392C206.995 24.2976 207.528 24.188 208.064 24.0928C205.328 23.6072 202.51 23.7168 199.814 24.4392C199.734 24.4608 199.678 24.476 199.654 24.484C196.095 25.6696 192.638 27.4448 189.902 30.0456C181.758 37.7888 183.082 51.8432 191.013 59.2592C193.238 61.3392 194.214 64.0248 194.895 66.9856C195.101 67.8776 196.281 77.1776 195.869 77.1776C198.154 77.1776 200.734 77.1776 202.522 77.1776C202.934 77.1776 201.754 67.8768 201.548 66.9856Z" fill="#FFF6E7"/>
<path d="M204.738 77.1774V55.4878L208.555 53.287C209.817 52.5598 209.565 50.6694 208.157 50.2982L201.21 48.4646C200.025 48.1518 199.89 46.5246 201.008 46.0214L204.737 44.3438V36.9814" stroke="#FEFEFE" stroke-width="2.2387" stroke-miterlimit="10" stroke-linecap="round"/>
<path d="M215.37 80.1624C215.37 80.8216 214.836 81.356 214.177 81.356H194.676C194.017 81.356 193.482 80.8216 193.482 80.1624C193.482 79.5032 194.017 78.9688 194.676 78.9688H214.177C214.835 78.9688 215.37 79.5032 215.37 80.1624Z" fill="#2F2F35"/>
<path d="M215.37 83.7444C215.37 84.4036 214.836 84.9388 214.177 84.9388H194.676C194.017 84.9388 193.482 84.4044 193.482 83.7444C193.482 83.0852 194.017 82.5508 194.676 82.5508H214.177C214.835 82.5508 215.37 83.0852 215.37 83.7444Z" fill="#2F2F35"/>
<path d="M215.37 87.3262C215.37 87.9854 214.836 88.5198 214.177 88.5198H194.676C194.017 88.5198 193.482 87.9854 193.482 87.3262C193.482 86.667 194.017 86.1318 194.676 86.1318H214.177C214.835 86.1326 215.37 86.667 215.37 87.3262Z" fill="#2F2F35"/>
<path d="M204.426 96.8769C208.272 96.8769 211.39 93.7585 211.39 89.9121H197.462C197.462 93.7593 200.579 96.8769 204.426 96.8769Z" fill="#2F2F35"/>
<path d="M286.932 101.456V95.8488H284.454C283.986 93.1856 282.897 90.7424 281.342 88.6616L283.307 86.696L279.342 82.7312L277.303 84.7704C275.216 83.3448 272.79 82.3896 270.176 82.0128V79.084H264.57V82.1224C262.063 82.5952 259.759 83.6208 257.772 85.0632L255.787 83.0784L251.822 87.0432L253.833 89.0536C252.364 91.1424 251.364 93.576 250.958 96.2096H248.175V101.816H251.02C251.479 104.386 252.514 106.749 253.99 108.779L251.799 110.97L255.764 114.934L257.982 112.717C260.016 114.146 262.377 115.13 264.931 115.556V118.582H270.538V115.556C273.083 115.133 275.436 114.154 277.466 112.733L279.32 114.587L283.285 110.622L281.462 108.8C283.014 106.671 284.077 104.172 284.503 101.456H286.932ZM267.734 108.349C262.467 108.349 258.197 104.078 258.197 98.8112C258.197 93.5432 262.467 89.2736 267.734 89.2736C273.002 89.2736 277.272 93.544 277.272 98.8112C277.272 104.079 273.002 108.349 267.734 108.349Z" fill="#666666"/>
<path d="M309.29 122.722V119.487H307.861C307.59 117.95 306.962 116.542 306.066 115.341L307.2 114.206L304.913 111.919L303.737 113.095C302.533 112.273 301.133 111.722 299.625 111.504V109.814H296.39V111.567C294.945 111.84 293.615 112.432 292.469 113.264L291.324 112.119L289.037 114.406L290.197 115.566C289.35 116.771 288.773 118.175 288.538 119.694H286.933V122.929H288.574C288.839 124.411 289.437 125.774 290.287 126.946L289.023 128.21L291.31 130.497L292.59 129.218C293.763 130.042 295.125 130.61 296.598 130.855V132.601H299.832V130.855C301.301 130.611 302.658 130.046 303.829 129.226L304.898 130.296L307.186 128.009L306.134 126.958C307.03 125.73 307.643 124.288 307.888 122.721L309.29 122.722ZM298.215 126.698C295.177 126.698 292.713 124.234 292.713 121.195C292.713 118.157 295.176 115.693 298.215 115.693C301.254 115.693 303.718 118.156 303.718 121.195C303.718 124.234 301.254 126.698 298.215 126.698Z" fill="#9E9E9E"/>
<path d="M360.25 80.8313V69.3169H355.162C354.198 63.8473 351.963 58.8305 348.77 54.5561L352.807 50.5185L344.666 42.3769L340.478 46.5641C336.192 43.6369 331.21 41.6753 325.842 40.9001V34.8857H314.327V41.1257C309.181 42.0961 304.448 44.2033 300.367 47.1657L296.292 43.0905L288.15 51.2321L292.279 55.3609C289.262 59.6505 287.21 64.6481 286.377 70.0569H280.66V81.5713H286.503C287.446 86.8481 289.573 91.701 292.602 95.8705L288.102 100.37L296.244 108.511L300.799 103.957C304.976 106.892 309.823 108.915 315.069 109.787V116.003H326.583V109.787C331.81 108.918 336.643 106.907 340.81 103.989L344.619 107.798L352.761 99.6561L349.019 95.9145C352.206 91.5425 354.389 86.4114 355.263 80.8321L360.25 80.8313ZM320.826 94.9882C310.008 94.9882 301.238 86.2185 301.238 75.4017C301.238 64.5841 310.008 55.8145 320.826 55.8145C331.643 55.8145 340.413 64.5841 340.413 75.4017C340.413 86.2185 331.643 94.9882 320.826 94.9882Z" fill="#47B3F1"/>
<path d="M320.455 86.9384C326.803 86.9384 331.949 81.7925 331.949 75.4448C331.949 69.097 326.803 63.9512 320.455 63.9512C314.107 63.9512 308.962 69.097 308.962 75.4448C308.962 81.7925 314.107 86.9384 320.455 86.9384Z" fill="#666666"/>
<path d="M96.572 134.241C71.876 135.739 52.6792 150.539 53.696 167.297C54.7128 184.056 75.5568 196.427 100.253 194.928C100.271 194.928 100.29 194.926 100.308 194.925C102.738 194.776 104.438 192.428 103.838 190.068C103.546 188.92 103.381 187.718 103.362 186.476C103.236 178.488 109.415 171.625 117.372 170.906C123.146 170.384 128.422 173.099 131.466 177.516C132.969 179.696 136.162 179.851 137.787 177.76C141.5 172.98 143.473 167.54 143.129 161.873C142.113 145.114 121.269 132.743 96.572 134.241Z" fill="#5A5A63"/>
<path d="M96.408 131.529C71.712 133.027 52.5152 147.827 53.532 164.585C54.5488 181.344 75.3928 193.715 100.09 192.216C100.108 192.216 100.126 192.214 100.145 192.213C102.575 192.064 104.275 189.716 103.674 187.356C103.382 186.208 103.218 185.006 103.198 183.764C103.073 175.776 109.252 168.913 117.209 168.194C122.983 167.672 128.258 170.387 131.303 174.804C132.806 176.984 135.999 177.139 137.624 175.048C141.337 170.268 143.31 164.828 142.966 159.161C141.948 142.402 121.104 130.031 96.408 131.529Z" fill="#8B8B8C"/>
<path d="M87.6856 179.036C87.8664 182.013 85.5992 184.573 82.6224 184.754C79.6456 184.935 77.0856 182.667 76.9048 179.691C76.724 176.714 78.9912 174.154 81.968 173.973C84.9448 173.792 87.5048 176.059 87.6856 179.036Z" fill="#EDB62B"/>
<path d="M72.9736 168.815C73.1544 171.792 70.8872 174.352 67.9104 174.533C64.9336 174.714 62.3736 172.447 62.1928 169.47C62.012 166.493 64.2792 163.933 67.256 163.752C70.2336 163.571 72.7928 165.839 72.9736 168.815Z" fill="#EDB62B"/>
<path d="M77.2992 150.939C77.48 153.915 75.2128 156.475 72.236 156.656C69.2592 156.837 66.6992 154.57 66.5184 151.593C66.3376 148.616 68.6048 146.056 71.5816 145.875C74.5592 145.695 77.1192 147.962 77.2992 150.939Z" fill="#EDB62B"/>
<path d="M95.532 141.277C95.7128 144.254 93.4456 146.814 90.4688 146.995C87.492 147.176 84.932 144.909 84.7512 141.932C84.5704 138.955 86.8376 136.395 89.8144 136.214C92.7912 136.033 95.3512 138.301 95.532 141.277Z" fill="#EDB62B"/>
<path d="M116.069 141.541C116.25 144.518 113.982 147.078 111.006 147.259C108.029 147.439 105.469 145.172 105.288 142.195C105.107 139.219 107.374 136.659 110.351 136.478C113.328 136.297 115.888 138.564 116.069 141.541Z" fill="#EDB62B"/>
<path d="M133.402 151.31C133.583 154.286 131.316 156.846 128.339 157.027C125.362 157.208 122.802 154.941 122.622 151.964C122.441 148.987 124.708 146.427 127.685 146.246C130.662 146.066 133.222 148.333 133.402 151.31Z" fill="#EDB62B"/>
<path opacity="0.68" d="M120.443 134.728L115.359 145.364C114.689 145.332 114.041 145.712 113.774 146.37L113.759 146.406C113.42 147.238 113.82 148.188 114.653 148.527L115.13 148.721C115.036 148.69 114.551 148.633 113.529 150.122C113.528 150.123 113.528 150.123 113.528 150.124C113.466 150.213 113.402 150.31 113.337 150.412C113.33 150.422 113.324 150.432 113.317 150.442C113.256 150.537 113.193 150.638 113.128 150.744C113.115 150.765 113.102 150.786 113.089 150.808C113.028 150.908 112.966 151.012 112.903 151.122C112.885 151.154 112.866 151.187 112.846 151.22C112.786 151.325 112.726 151.434 112.663 151.548C112.638 151.592 112.614 151.639 112.588 151.685C112.529 151.795 112.468 151.908 112.406 152.026C112.376 152.084 112.346 152.143 112.314 152.203C112.255 152.317 112.195 152.434 112.134 152.556C112.098 152.628 112.061 152.703 112.023 152.778C111.964 152.897 111.905 153.018 111.845 153.144C111.803 153.23 111.761 153.32 111.718 153.41C111.658 153.536 111.598 153.662 111.538 153.794C111.491 153.893 111.444 153.998 111.397 154.101C111.337 154.233 111.277 154.365 111.215 154.504C111.163 154.62 111.11 154.744 111.056 154.866C110.997 155.001 110.938 155.136 110.877 155.276C110.818 155.412 110.758 155.555 110.698 155.696C110.639 155.837 110.58 155.976 110.519 156.122C110.455 156.276 110.39 156.437 110.324 156.596C110.265 156.741 110.206 156.883 110.146 157.033C110.075 157.208 110.002 157.394 109.93 157.577C109.871 157.725 109.814 157.869 109.754 158.023C109.673 158.229 109.59 158.447 109.506 158.663C109.453 158.803 109.4 158.937 109.346 159.081C109.247 159.34 109.146 159.612 109.045 159.884C109.002 159.998 108.961 160.107 108.918 160.224C108.772 160.619 108.623 161.026 108.471 161.449C108.064 162.583 107.588 163.917 107.063 165.397C107.002 165.569 106.943 165.736 106.88 165.912C106.801 166.136 106.718 166.371 106.636 166.602C106.568 166.794 106.502 166.982 106.432 167.179C106.325 167.482 106.214 167.796 106.104 168.109C106.054 168.25 106.006 168.387 105.956 168.529C105.846 168.84 105.734 169.158 105.622 169.477C105.566 169.64 105.509 169.799 105.451 169.964C105.346 170.263 105.238 170.57 105.13 170.876C105.064 171.066 104.998 171.252 104.931 171.444C104.807 171.798 104.681 172.159 104.554 172.521C104.506 172.657 104.459 172.791 104.411 172.928C104.282 173.298 104.151 173.673 104.019 174.05C103.963 174.211 103.907 174.37 103.851 174.532C103.729 174.882 103.605 175.238 103.481 175.594C103.418 175.776 103.355 175.955 103.291 176.138C103.159 176.516 103.026 176.898 102.894 177.281C102.836 177.446 102.779 177.609 102.722 177.775C102.591 178.152 102.459 178.532 102.327 178.914C102.261 179.104 102.195 179.293 102.13 179.484C102.011 179.827 101.892 180.171 101.773 180.516C101.688 180.76 101.604 181.004 101.519 181.249C101.417 181.545 101.314 181.844 101.211 182.141C101.114 182.424 101.016 182.707 100.918 182.991C100.808 183.309 100.698 183.628 100.588 183.948C100.53 184.115 100.473 184.28 100.415 184.448C99.5184 187.054 98.6144 189.698 97.7248 192.317C98.5088 192.297 99.2976 192.264 100.09 192.216C100.109 192.216 100.127 192.214 100.146 192.213C102.576 192.064 104.276 189.716 103.675 187.356C103.383 186.208 103.218 185.006 103.199 183.764C103.09 176.773 107.808 170.644 114.322 168.74C115.042 167.182 115.685 165.784 116.223 164.604C121.953 152.056 120.529 150.932 120.349 150.844L120.826 151.039C121.658 151.377 122.607 150.977 122.946 150.145L122.961 150.109C123.278 149.331 122.943 148.456 122.218 148.068L126.027 137.116C124.266 136.225 122.401 135.426 120.443 134.728Z" fill="#47B3F1"/>
<path opacity="0.42" d="M76.3648 150.112C76.44 151.357 75.492 152.428 74.2472 152.503C73.0024 152.578 71.9312 151.63 71.856 150.386C71.7808 149.141 72.7288 148.07 73.9736 147.994C75.2184 147.919 76.2888 148.867 76.3648 150.112Z" fill="white"/>
<path opacity="0.42" d="M94.6088 140.644C94.684 141.889 93.736 142.96 92.4912 143.036C91.2464 143.111 90.1752 142.163 90.1 140.918C90.0248 139.673 90.9728 138.602 92.2176 138.527C93.4624 138.451 94.5328 139.399 94.6088 140.644Z" fill="white"/>
<path opacity="0.42" d="M113.926 140.161C114.002 141.406 113.054 142.477 111.809 142.552C110.564 142.627 109.493 141.679 109.418 140.434C109.342 139.19 110.29 138.118 111.535 138.043C112.78 137.968 113.85 138.916 113.926 140.161Z" fill="white"/>
<path opacity="0.42" d="M70.6968 167.221C70.772 168.466 69.824 169.537 68.5792 169.613C67.3344 169.688 66.2632 168.74 66.188 167.495C66.1128 166.25 67.0608 165.179 68.3056 165.104C69.5504 165.029 70.6208 165.977 70.6968 167.221Z" fill="white"/>
<path opacity="0.42" d="M86.7056 177.469C86.7808 178.714 85.8328 179.785 84.588 179.861C83.3432 179.936 82.272 178.988 82.1968 177.743C82.1216 176.498 83.0696 175.427 84.3144 175.352C85.5592 175.277 86.6296 176.225 86.7056 177.469Z" fill="white"/>
<path d="M140.189 131.515C140.189 131.515 147.557 127.487 148.029 121.263C147.999 117.585 146.402 114.567 146.402 114.567L145.393 118.357C145.393 118.357 144.838 112.403 140.586 109.526C136.334 106.649 137.381 107.457 137.381 107.457C137.381 107.457 140.951 112.195 136.988 120.053C133.025 127.911 138.026 130.635 138.026 130.635L140.189 131.515Z" fill="#EDB62B"/>
<path d="M139.734 128.964C139.734 128.964 138.401 122.13 141.446 118.458C137.487 123.477 136.67 127.51 137.664 130.768C139.734 128.964 139.734 128.964 139.734 128.964Z" fill="#A87D1D"/>
<path d="M136.174 130.314C136.823 129.001 138.376 128.411 139.734 128.964L139.758 128.973L139.782 128.983C141.138 129.536 141.838 131.042 141.385 132.436L136.54 147.32L132.892 145.834L129.244 144.349L136.174 130.314Z" fill="white"/>
<path d="M128.68 147.675L134.852 150.188C135.684 150.527 136.634 150.127 136.973 149.294L136.987 149.258C137.326 148.425 136.926 147.477 136.094 147.137L129.922 144.625C129.09 144.285 128.14 144.685 127.801 145.518L127.786 145.554C127.448 146.386 127.848 147.336 128.68 147.675Z" fill="#CCCCCC"/>
<path d="M129.175 147.876L131.766 148.931L134.358 149.986C134.358 149.986 136.324 150.451 130.25 163.752C125.735 173.639 114.123 198.434 107.432 211.682C106.806 212.921 104.93 212.157 105.347 210.833C109.813 196.679 118.823 170.824 122.498 160.596C127.443 146.836 129.175 147.876 129.175 147.876Z" fill="#47B3F1"/>
<path d="M115.355 195.487C112.463 201.518 109.671 207.248 107.431 211.683C106.806 212.922 104.929 212.158 105.346 210.834C106.842 206.095 108.846 200.045 110.989 193.709L115.355 195.487Z" fill="white"/>
<path opacity="0.75" d="M114.442 183.597C123.962 171.814 127.541 149.368 127.557 149.271C126.5 150.81 124.87 154 122.498 160.598C120.702 165.595 117.633 174.325 114.442 183.597Z" fill="white"/>
<path d="M298.755 155.964L300.442 159.381L304.213 159.929L301.484 162.589L302.128 166.346L298.755 164.573L295.382 166.346L296.026 162.589L293.298 159.929L297.069 159.381L298.755 155.964Z" fill="#9E9E9E"/>
<path d="M347.313 151.189L349.668 155.961L354.934 156.727L351.124 160.441L352.023 165.686L347.313 163.21L342.603 165.686L343.502 160.441L339.692 156.727L344.958 155.961L347.313 151.189Z" fill="#666666"/>
<path d="M332.576 222.704L333.89 225.367L336.83 225.795L334.703 227.868L335.206 230.795L332.576 229.413L329.947 230.795L330.449 227.868L328.322 225.795L331.262 225.367L332.576 222.704Z" fill="#9E9E9E"/>
<path d="M285.676 204.66L288.031 209.432L293.297 210.197L289.486 213.911L290.386 219.156L285.676 216.68L280.966 219.156L281.866 213.911L278.054 210.197L283.321 209.432L285.676 204.66Z" fill="#666666"/>
<path d="M330.835 215.937C344.298 210.538 350.836 195.248 345.437 181.784C340.039 168.321 324.748 161.783 311.285 167.182C297.821 172.581 291.284 187.871 296.682 201.335C302.081 214.798 317.372 221.336 330.835 215.937Z" fill="#EDB62B"/>
<g opacity="0.67">
<path d="M313.985 216.85C323.262 219.439 332.762 216.704 339.243 210.486C334.854 211.662 330.104 211.72 325.41 210.41C311.439 206.512 303.274 192.026 307.172 178.055C308.482 173.362 310.99 169.327 314.269 166.182C305.594 168.506 298.335 175.218 295.746 184.496C291.849 198.466 300.014 212.952 313.985 216.85Z" fill="#A87D1D"/>
</g>
<path opacity="0.52" d="M328.102 166.258C326.794 165.893 325.481 165.634 324.173 165.475C323.488 167.931 323.114 170.515 323.114 173.19C323.114 186.861 332.686 198.289 345.49 201.159C345.814 200.334 346.098 199.485 346.342 198.613C350.238 184.642 342.073 170.155 328.102 166.258Z" fill="#FFF6E7"/>
<path d="M294.871 189.393C284.682 185.423 278.345 181.832 278.878 179.924C279.763 176.75 299.322 179.434 322.562 185.918C345.803 192.403 363.925 200.234 363.039 203.408C362.509 205.31 355.274 205.109 344.558 203.246" stroke="#666666" stroke-width="2" stroke-miterlimit="10"/>
</svg>
