<svg width="400" height="400" viewBox="0 0 400 400" fill="none" xmlns="http://www.w3.org/2000/svg">
<path d="M400 305.918H0V306.118H400V305.918Z" fill="#EBEBEB"/>
<path d="M359.921 318.795H333.423V318.995H359.921V318.795Z" fill="#EBEBEB"/>
<path d="M264.976 320.967H258.022V321.167H264.976V320.967Z" fill="#EBEBEB"/>
<path d="M332.622 311.366H317.269V311.566H332.622V311.366Z" fill="#EBEBEB"/>
<path d="M76.5216 312.71H41.9672V312.91H76.5216V312.71Z" fill="#EBEBEB"/>
<path d="M88.7112 312.71H83.6448V312.91H88.7112V312.71Z" fill="#EBEBEB"/>
<path d="M180.118 316.089H105.177V316.289H180.118V316.089Z" fill="#EBEBEB"/>
<path d="M189.611 270.24H35.132C32.6144 270.24 30.5656 268.191 30.5656 265.674V48.5281C30.5656 46.0105 32.6144 43.9617 35.132 43.9617H189.611C192.128 43.9617 194.177 46.0105 194.177 48.5281V265.674C194.177 268.191 192.128 270.24 189.611 270.24ZM35.132 44.1625C32.724 44.1625 30.7656 46.1209 30.7656 48.5289V265.674C30.7656 268.082 32.724 270.041 35.132 270.041H189.611C192.018 270.041 193.977 268.082 193.977 265.674V48.5281C193.977 46.1209 192.018 44.1617 189.611 44.1617L35.132 44.1625Z" fill="#EBEBEB"/>
<path d="M362.648 270.24H208.17C205.652 270.24 203.604 268.191 203.604 265.674V48.5281C203.604 46.0105 205.653 43.9617 208.17 43.9617H362.648C365.166 43.9617 367.214 46.0105 367.214 48.5281V265.674C367.215 268.191 365.166 270.24 362.648 270.24ZM208.17 44.1625C205.762 44.1625 203.804 46.1209 203.804 48.5289V265.674C203.804 268.082 205.762 270.041 208.17 270.041H362.648C365.056 270.041 367.014 268.082 367.014 265.674V48.5281C367.014 46.1209 365.056 44.1617 362.648 44.1617L208.17 44.1625Z" fill="#EBEBEB"/>
<path d="M231.752 139.247H341.977V67.065L231.752 67.065V139.247Z" fill="#E6E6E6"/>
<path d="M228.39 139.247H340.406V67.065L228.39 67.065V139.247Z" fill="#F0F0F0"/>
<path d="M231.752 153.412H341.977V139.246H231.752V153.412Z" fill="#E6E6E6"/>
<path d="M222.787 153.412H334.803V139.246H222.787V153.412Z" fill="#F0F0F0"/>
<path d="M335.698 134.538V71.7737L233.098 71.7737V134.538L335.698 134.538Z" fill="#FAFAFA"/>
<path d="M312.562 134.539L299.458 71.7744H279.009L292.113 134.539H312.562Z" fill="white"/>
<path d="M333.518 129.852C333.703 129.852 333.854 129.702 333.854 129.516V74.8377C333.854 74.6521 333.704 74.5017 333.518 74.5017C333.332 74.5017 333.181 74.6521 333.181 74.8377V129.516C333.181 129.702 333.332 129.852 333.518 129.852Z" fill="#F0F0F0"/>
<path d="M287.72 134.539L274.616 71.7744H266.643L279.748 134.539H287.72Z" fill="white"/>
<path d="M233.696 134.538V71.7737H233.098V134.538H233.696Z" fill="#E6E6E6"/>
<path opacity="0.6" d="M227.276 78.8728H337.501L337.934 73.604H227.709L227.276 78.8728Z" fill="#EBEBEB"/>
<path opacity="0.6" d="M227.276 87.5144H337.501L337.934 82.2456H227.709L227.276 87.5144Z" fill="#EBEBEB"/>
<path opacity="0.6" d="M227.276 96.156H337.501L337.934 90.8872H227.709L227.276 96.156Z" fill="#EBEBEB"/>
<path opacity="0.6" d="M227.276 104.798H337.501L337.934 99.5288H227.709L227.276 104.798Z" fill="#EBEBEB"/>
<path opacity="0.6" d="M227.276 113.439H337.501L337.934 108.17H227.709L227.276 113.439Z" fill="#EBEBEB"/>
<path opacity="0.6" d="M227.276 122.081H337.501L337.934 116.812H227.709L227.276 122.081Z" fill="#EBEBEB"/>
<path d="M326.15 253.425H303.039V257.982H326.15V253.425Z" fill="#47B3F1"/>
<path d="M259.447 305.919H263.713V201.067H259.447V305.919Z" fill="#47B3F1"/>
<path d="M244.668 257.982H303.039V253.425H244.668V257.982Z" fill="#F5F5F5"/>
<path d="M326.15 278.359H303.039V282.915H326.15V278.359Z" fill="#47B3F1"/>
<path d="M244.668 282.915H303.039V278.358H244.668V282.915Z" fill="#F5F5F5"/>
<path d="M326.15 203.559H303.039V208.115H326.15V203.559Z" fill="#47B3F1"/>
<path d="M244.668 208.115H303.039V203.558H244.668V208.115Z" fill="#F5F5F5"/>
<path d="M326.15 228.492H303.039V233.049H326.15V228.492Z" fill="#47B3F1"/>
<path d="M244.668 233.048H303.039V228.491H244.668V233.048Z" fill="#F5F5F5"/>
<path d="M317.817 305.919H322.083V201.067H317.817V305.919Z" fill="#47B3F1"/>
<path d="M298.772 305.919H303.039V201.067H298.772V305.919Z" fill="#F5F5F5"/>
<path d="M244.668 305.919H248.935V201.067H244.668V305.919Z" fill="#F5F5F5"/>
<path d="M52.2987 305.919H95.9611L95.9611 221.206H52.2987L52.2987 305.919Z" fill="#E6E6E6"/>
<path d="M63.9584 305.919H52.2992V294.225H76.1824L63.9584 305.919Z" fill="#FAFAFA"/>
<path d="M171.346 305.919H215.009V221.206H171.346V305.919Z" fill="#E6E6E6"/>
<path d="M52.2987 301.894H181.522V221.205H52.2987V301.894Z" fill="#FAFAFA"/>
<path d="M169.863 305.919H181.522V294.225H157.638L169.863 305.919Z" fill="#FAFAFA"/>
<path d="M61.3435 271.465H172.477V251.273H61.3435V271.465Z" fill="#F0F0F0"/>
<path d="M61.3435 295.973H172.477V275.781H61.3435V295.973Z" fill="#F0F0F0"/>
<path d="M82.4672 253.432H151.354C153.375 253.432 155.014 251.793 155.014 249.77V249.524H78.8064V249.77C78.8064 251.793 80.4456 253.432 82.4672 253.432Z" fill="#FAFAFA"/>
<path d="M61.3435 246.957H172.477V226.764H61.3435V246.957Z" fill="#F0F0F0"/>
<path d="M82.4672 228.923H151.354C153.375 228.923 155.014 227.284 155.014 225.262V225.015H78.8064V225.262C78.8064 227.284 80.4456 228.923 82.4672 228.923Z" fill="#FAFAFA"/>
<path d="M82.4672 277.94H151.354C153.375 277.94 155.014 276.301 155.014 274.279V274.033H78.8064V274.279C78.8064 276.301 80.4456 277.94 82.4672 277.94Z" fill="#FAFAFA"/>
<path d="M59.2546 139.247H169.479V67.065L59.2546 67.065L59.2546 139.247Z" fill="#E6E6E6"/>
<path d="M55.8919 139.247H167.908V67.065L55.8919 67.065L55.8919 139.247Z" fill="#F0F0F0"/>
<path d="M59.2546 153.412H169.479V139.246H59.2546V153.412Z" fill="#E6E6E6"/>
<path d="M50.2884 153.412H162.304V139.246H50.2884V153.412Z" fill="#F0F0F0"/>
<path d="M163.2 134.539V71.7742L60.6004 71.7742L60.6004 134.539L163.2 134.539Z" fill="#FAFAFA"/>
<path d="M140.064 134.539L126.959 71.7744H106.51L119.615 134.539H140.064Z" fill="white"/>
<path d="M161.019 129.852C161.205 129.852 161.355 129.702 161.355 129.516V74.8377C161.355 74.6521 161.205 74.5017 161.019 74.5017C160.834 74.5017 160.682 74.6521 160.682 74.8377V129.516C160.683 129.702 160.834 129.852 161.019 129.852Z" fill="#F0F0F0"/>
<path d="M115.222 134.539L102.118 71.7744H94.1456L107.25 134.539H115.222Z" fill="white"/>
<path d="M61.198 134.539L61.198 71.7742H60.6004L60.6004 134.539H61.198Z" fill="#E6E6E6"/>
<path opacity="0.6" d="M54.7776 78.8728H165.002L165.436 73.604H55.2112L54.7776 78.8728Z" fill="#EBEBEB"/>
<path opacity="0.6" d="M54.7776 81.8455H165.002L165.436 76.5759H55.2112L54.7776 81.8455Z" fill="#EBEBEB"/>
<path opacity="0.6" d="M54.7776 84.8176H165.002L165.436 79.5488H55.2112L54.7776 84.8176Z" fill="#EBEBEB"/>
<path opacity="0.6" d="M54.7776 87.7904H165.002L165.436 82.5208H55.2112L54.7776 87.7904Z" fill="#EBEBEB"/>
<path opacity="0.6" d="M54.7776 90.7625H165.002L165.436 85.4937H55.2112L54.7776 90.7625Z" fill="#EBEBEB"/>
<path opacity="0.6" d="M54.7776 93.7344H165.002L165.436 88.4656H55.2112L54.7776 93.7344Z" fill="#EBEBEB"/>
<path d="M76.811 218.617H80.6214V176.143H76.811V218.617Z" fill="#F5F5F5"/>
<path d="M77.3015 218.588H78.3775V176.114H77.3015V218.588Z" fill="#FAFAFA"/>
<path d="M78.8285 218.588H79.2501V176.114H78.8285V218.588Z" fill="#FAFAFA"/>
<path d="M64.6104 221.206H92.8216C92.8216 219.243 91.2304 217.651 89.2672 217.651H68.1648C66.2016 217.651 64.6104 219.243 64.6104 221.206Z" fill="#F0F0F0"/>
<path d="M71.868 202.51C72.4712 202.51 72.964 202.017 72.964 201.414V173.566C72.964 172.964 72.4704 172.47 71.868 172.47C71.2648 172.47 70.772 172.964 70.772 173.566V201.414C70.772 202.018 71.2648 202.51 71.868 202.51Z" fill="#F0F0F0"/>
<path d="M61.6592 186.239H95.7728L91.8488 162.4H65.5832L61.6592 186.239Z" fill="#E0E0E0"/>
<path d="M200 342.049C285.666 342.049 355.111 337.993 355.111 332.991C355.111 327.988 285.666 323.932 200 323.932C114.334 323.932 44.8888 327.988 44.8888 332.991C44.8888 337.993 114.334 342.049 200 342.049Z" fill="#F5F5F5"/>
<path d="M83.2861 161.888L82.4882 161.946L83.5502 176.699L84.3481 176.641L83.2861 161.888Z" fill="#47B3F1"/>
<path d="M84.9113 184.253L84.1134 184.31L84.5134 189.86L85.3114 189.802L84.9113 184.253Z" fill="#47B3F1"/>
<path d="M270.169 252.129H98.8424C94.9672 252.129 91.5688 248.958 91.2896 245.083L82.8712 128.179C82.592 124.304 85.5344 121.134 89.4096 121.134H260.736C264.611 121.134 268.01 124.304 268.289 128.179L276.707 245.083C276.986 248.958 274.044 252.129 270.169 252.129Z" fill="#47B3F1"/>
<path d="M270.826 252.129H99.4992C95.624 252.129 92.2256 248.958 91.9464 245.083L83.528 128.179C83.2488 124.304 86.1912 121.134 90.0664 121.134H261.393C265.268 121.134 268.666 124.304 268.946 128.179L277.364 245.083C277.642 248.958 274.701 252.129 270.826 252.129Z" fill="#47B3F1"/>
<path opacity="0.5" d="M270.826 252.129H99.4992C95.624 252.129 92.2256 248.958 91.9464 245.083L83.528 128.179C83.2488 124.304 86.1912 121.134 90.0664 121.134H261.393C265.268 121.134 268.666 124.304 268.946 128.179L277.364 245.083C277.642 248.958 274.701 252.129 270.826 252.129Z" fill="white"/>
<path d="M261.646 124.657H90.32C90.1264 124.657 89.9352 124.665 89.7464 124.68C85.3672 125.041 86.2616 131.702 90.6816 131.702H262.3C266.72 131.702 266.655 125.041 262.224 124.68C262.033 124.665 261.84 124.657 261.646 124.657Z" fill="#47B3F1"/>
<path d="M94.7824 128.18C94.8464 129.072 94.176 129.795 93.2832 129.795C92.3912 129.795 91.616 129.072 91.552 128.18C91.488 127.288 92.1584 126.565 93.0512 126.565C93.944 126.565 94.7184 127.287 94.7824 128.18Z" fill="#FAFAFA"/>
<path d="M100.277 128.18C100.341 129.072 99.6704 129.795 98.7776 129.795C97.8856 129.795 97.1104 129.072 97.0464 128.18C96.9824 127.288 97.6528 126.565 98.5456 126.565C99.4376 126.565 100.213 127.287 100.277 128.18Z" fill="#FAFAFA"/>
<path d="M105.771 128.18C105.835 129.072 105.164 129.795 104.272 129.795C103.38 129.795 102.605 129.072 102.54 128.18C102.476 127.288 103.147 126.565 104.039 126.565C104.931 126.565 105.706 127.287 105.771 128.18Z" fill="#FAFAFA"/>
<path d="M266.283 240.462H102.361C100.95 240.462 99.724 239.318 99.6224 237.907L92.6992 141.769C92.5976 140.358 93.6592 139.214 95.0696 139.214H258.992C260.402 139.214 261.629 140.358 261.73 141.769L268.654 237.907C268.755 239.318 267.694 240.462 266.283 240.462Z" fill="white"/>
<path d="M197.224 203.838L194.556 166.783L186.47 161.916H164.226L167.246 203.838H197.224Z" fill="white"/>
<path d="M197.224 204.226H167.246C167.042 204.226 166.874 204.07 166.859 203.866L163.84 161.944C163.832 161.837 163.87 161.73 163.943 161.652C164.017 161.573 164.119 161.529 164.227 161.529H186.47C186.541 161.529 186.61 161.548 186.67 161.585L194.756 166.451C194.864 166.516 194.934 166.63 194.942 166.755L197.61 203.81C197.618 203.918 197.581 204.024 197.507 204.102C197.434 204.182 197.331 204.226 197.224 204.226ZM167.606 203.451H196.807L194.183 167.012L186.362 162.304H164.643L167.606 203.451Z" fill="#47B3F1"/>
<path d="M194.556 166.783L186.47 161.916L189.438 168.364L194.556 166.783Z" fill="#EBEBEB"/>
<path d="M189.438 168.751C189.29 168.751 189.151 168.666 189.086 168.526L186.118 162.078C186.046 161.924 186.084 161.741 186.211 161.627C186.338 161.514 186.524 161.497 186.67 161.584L194.755 166.451C194.886 166.53 194.958 166.678 194.94 166.83C194.922 166.982 194.816 167.109 194.67 167.154L189.553 168.734C189.515 168.746 189.477 168.751 189.438 168.751ZM187.349 162.898L189.649 167.893L193.614 166.668L187.349 162.898Z" fill="#47B3F1"/>
<path d="M176.775 180.804C176.842 181.739 176.139 182.498 175.203 182.498C174.267 182.498 173.455 181.739 173.388 180.804C173.321 179.869 174.024 179.11 174.959 179.11C175.894 179.11 176.708 179.869 176.775 180.804Z" fill="#47B3F1"/>
<path d="M187.764 180.804C187.831 181.739 187.128 182.498 186.192 182.498C185.257 182.498 184.444 181.739 184.376 180.804C184.309 179.869 185.012 179.11 185.948 179.11C186.884 179.111 187.697 179.869 187.764 180.804Z" fill="#47B3F1"/>
<path d="M190.864 191.788C190.662 191.788 190.493 191.632 190.478 191.428C190.282 188.705 186.011 186.49 180.958 186.49C177.61 186.49 174.604 187.485 173.113 189.087C172.45 189.8 172.143 190.568 172.201 191.372C172.216 191.586 172.055 191.771 171.842 191.786C171.627 191.8 171.442 191.641 171.427 191.427C171.354 190.414 171.741 189.422 172.545 188.558C174.178 186.803 177.401 185.714 180.958 185.714C186.501 185.714 191.022 188.199 191.251 191.371C191.266 191.585 191.106 191.77 190.892 191.786C190.882 191.788 190.873 191.788 190.864 191.788Z" fill="#47B3F1"/>
<path d="M170.534 177.373C170.439 177.373 170.345 177.339 170.27 177.27C170.113 177.125 170.103 176.879 170.249 176.722L171.948 174.892C172.094 174.734 172.339 174.726 172.496 174.871C172.653 175.017 172.662 175.262 172.517 175.419L170.818 177.249C170.742 177.332 170.638 177.373 170.534 177.373Z" fill="#47B3F1"/>
<path d="M190.067 177.373C189.973 177.373 189.878 177.339 189.802 177.269L187.84 175.439C187.683 175.293 187.675 175.048 187.821 174.891C187.966 174.734 188.212 174.726 188.369 174.872L190.331 176.702C190.488 176.848 190.496 177.093 190.35 177.25C190.274 177.332 190.171 177.373 190.067 177.373Z" fill="#47B3F1"/>
<path d="M161.806 212.122H163.614L166.222 215.59L165.973 212.122H167.798L168.249 218.389H166.423L163.829 214.948L164.077 218.389H162.256L161.806 212.122Z" fill="#47B3F1"/>
<path d="M169.067 215.259C168.994 214.236 169.221 213.44 169.75 212.87C170.279 212.3 171.053 212.014 172.07 212.014C173.113 212.014 173.936 212.294 174.541 212.854C175.146 213.414 175.484 214.198 175.557 215.207C175.61 215.939 175.53 216.54 175.317 217.009C175.104 217.478 174.774 217.842 174.327 218.103C173.88 218.364 173.309 218.494 172.614 218.494C171.907 218.494 171.314 218.382 170.834 218.157C170.355 217.932 169.954 217.575 169.631 217.088C169.308 216.602 169.12 215.992 169.067 215.259ZM171.004 215.268C171.05 215.901 171.2 216.355 171.454 216.631C171.71 216.908 172.039 217.046 172.444 217.046C172.86 217.046 173.172 216.91 173.381 216.639C173.59 216.369 173.668 215.882 173.618 215.182C173.575 214.592 173.425 214.161 173.167 213.889C172.91 213.617 172.577 213.481 172.17 213.481C171.779 213.481 171.476 213.619 171.259 213.895C171.043 214.173 170.958 214.63 171.004 215.268Z" fill="#47B3F1"/>
<path d="M179.322 212.122H182.198C182.766 212.122 183.229 212.199 183.59 212.353C183.95 212.506 184.254 212.727 184.503 213.015C184.752 213.303 184.942 213.637 185.071 214.02C185.202 214.401 185.282 214.806 185.313 215.233C185.361 215.903 185.322 216.422 185.196 216.792C185.07 217.161 184.881 217.47 184.628 217.719C184.375 217.969 184.097 218.134 183.792 218.217C183.376 218.331 182.995 218.388 182.65 218.388H179.774L179.322 212.122ZM181.36 213.542L181.606 216.966H182.081C182.486 216.966 182.77 216.921 182.934 216.831C183.099 216.742 183.222 216.585 183.302 216.361C183.383 216.137 183.406 215.774 183.37 215.273C183.322 214.609 183.181 214.154 182.946 213.909C182.712 213.665 182.344 213.542 181.842 213.542H181.36V213.542Z" fill="#47B3F1"/>
<path d="M189.958 217.354H187.76L187.529 218.388H185.552L187.456 212.122H189.568L192.374 218.388H190.346L189.958 217.354ZM189.459 215.999L188.605 213.746L188.082 215.999H189.459Z" fill="#47B3F1"/>
<path d="M191.495 212.122H197.381L197.492 213.67H195.518L195.858 218.389H193.922L193.582 213.67H191.607L191.495 212.122Z" fill="#47B3F1"/>
<path d="M201.892 217.354H199.694L199.462 218.388H197.486L199.39 212.122H201.502L204.307 218.388H202.279L201.892 217.354ZM201.393 215.999L200.539 213.746L200.017 215.999H201.393Z" fill="#47B3F1"/>
<path d="M282.95 138.464C283.666 138.106 284.518 137.642 285.306 137.21C286.108 136.769 286.906 136.309 287.692 135.83C289.259 134.866 290.839 133.912 292.338 132.853C295.364 130.769 298.198 128.456 300.749 125.93C301.083 125.625 301.367 125.286 301.676 124.962L302.132 124.473L302.361 124.228L302.475 124.106C302.506 124.074 302.498 124.08 302.484 124.099L302.458 124.138C302.345 124.352 302.439 124.287 302.483 124.081C302.537 123.882 302.582 123.558 302.596 123.208C302.647 121.755 302.361 119.924 302.013 118.154C301.301 114.566 300.222 110.875 299.157 107.259L302.265 105.896C304.212 109.373 305.834 112.924 307.155 116.774C307.784 118.725 308.362 120.683 308.53 123.089C308.562 123.702 308.575 124.346 308.464 125.097C308.346 125.836 308.16 126.721 307.486 127.724L307.352 127.909L307.249 128.043L307.126 128.194L306.879 128.493L306.386 129.093C306.052 129.488 305.735 129.905 305.381 130.275C302.622 133.338 299.554 136.044 296.278 138.397C294.647 139.588 292.982 140.719 291.251 141.749C290.39 142.27 289.517 142.771 288.63 143.257C287.731 143.756 286.877 144.19 285.856 144.67L282.95 138.464Z" fill="#FFB573"/>
<path d="M275.835 326.542C276.454 326.542 277.131 326.414 277.604 326.302C277.666 326.288 277.713 326.238 277.724 326.175C277.735 326.113 277.708 326.05 277.655 326.015C277.426 325.864 275.391 324.551 274.611 324.904C274.488 324.96 274.334 325.082 274.295 325.35C274.245 325.706 274.334 325.989 274.558 326.194C274.844 326.454 275.32 326.542 275.835 326.542ZM277.155 326.076C275.989 326.309 275.111 326.269 274.772 325.959C274.628 325.828 274.574 325.643 274.61 325.394C274.628 325.261 274.69 325.217 274.742 325.194C275.152 325.008 276.326 325.574 277.155 326.076Z" fill="#47B3F1"/>
<path d="M277.568 326.307C277.595 326.307 277.623 326.3 277.648 326.286C277.697 326.257 277.727 326.205 277.727 326.148C277.727 326.066 277.718 324.137 276.99 323.492C276.796 323.321 276.57 323.25 276.318 323.28C275.92 323.328 275.813 323.578 275.783 323.722C275.632 324.478 276.85 325.923 277.49 326.286C277.514 326.3 277.541 326.307 277.568 326.307ZM276.428 323.59C276.558 323.59 276.674 323.636 276.779 323.73C277.214 324.114 277.363 325.198 277.4 325.84C276.762 325.331 276.003 324.245 276.095 323.785C276.11 323.71 276.154 323.62 276.356 323.595C276.38 323.592 276.404 323.59 276.428 323.59Z" fill="#47B3F1"/>
<path d="M276.978 118.454C276.199 122.43 274.556 130.483 277.338 133.137C277.338 133.137 276.251 137.17 268.863 137.17C260.739 137.17 264.981 133.138 264.981 133.138C269.415 132.078 269.301 128.789 268.528 125.699L276.978 118.454Z" fill="#FFB573"/>
<path d="M263.427 134.739C262.152 134.912 263.237 131.609 263.755 131.266C264.952 130.475 280.436 129.355 280.335 131.234C280.271 132.043 279.891 133.622 279.214 134.158C278.537 134.694 274.559 133.073 263.427 134.739Z" fill="#263238"/>
<path d="M265.95 133.627C264.937 133.97 265.033 130.641 265.378 130.24C266.176 129.314 278.709 126.094 279.081 127.915C279.224 128.702 279.293 130.273 278.863 130.883C278.434 131.493 274.751 130.484 265.95 133.627Z" fill="#263238"/>
<path d="M261.288 111.286C261.19 111.292 261.09 111.253 261.023 111.17C260.127 110.074 258.962 110.186 258.951 110.188C258.774 110.206 258.62 110.081 258.602 109.906C258.582 109.732 258.709 109.575 258.883 109.557C258.945 109.55 260.403 109.409 261.515 110.768C261.626 110.904 261.606 111.104 261.47 111.214C261.417 111.259 261.353 111.282 261.288 111.286Z" fill="#263238"/>
<path d="M259.738 115.201C259.738 115.201 259.053 117.606 258.158 118.822C258.933 119.415 260.11 118.993 260.11 118.993L259.738 115.201Z" fill="#FF5652"/>
<path d="M260.128 114.229C260.181 114.766 259.938 115.23 259.587 115.266C259.235 115.3 258.908 114.892 258.854 114.354C258.802 113.817 259.044 113.353 259.395 113.318C259.747 113.283 260.075 113.691 260.128 114.229Z" fill="#263238"/>
<path d="M259.554 113.332L258.226 113.086C258.226 113.086 258.988 114.031 259.554 113.332Z" fill="#263238"/>
<path d="M285.36 326.148H278.659L279.185 310.63H285.886L285.36 326.148Z" fill="#FFB573"/>
<path d="M278.129 325.373H285.657C285.93 325.373 286.153 325.563 286.191 325.83L287.049 331.786C287.138 332.404 286.606 332.989 285.974 332.978C283.35 332.934 282.085 332.779 278.774 332.779C276.738 332.779 273.762 332.99 270.95 332.99C268.198 332.99 267.987 330.209 269.158 329.958C274.41 328.828 275.239 327.27 277.009 325.785C277.327 325.517 277.728 325.373 278.129 325.373Z" fill="#263238"/>
<g opacity="0.2">
<path d="M285.887 310.634H279.183L278.916 318.633H285.62L285.887 310.634Z" fill="black"/>
</g>
<path d="M258.699 142.435C254.553 140.812 250.598 139.046 246.659 137.032C242.727 135.02 238.856 132.877 235.136 130.014C234.21 129.285 233.294 128.488 232.398 127.558C232.175 127.318 231.952 127.095 231.733 126.82C231.502 126.53 231.329 126.36 231.03 125.915C230.489 125.138 230.07 124.094 229.959 123.028C229.854 121.962 230.046 120.943 230.352 120.131C230.658 119.305 231.058 118.63 231.478 118.046C232.318 116.874 233.25 116.009 234.189 115.23C236.063 113.678 238.046 112.55 240.031 111.496C241.023 110.97 242.034 110.495 243.058 110.058C244.087 109.614 245.091 109.202 246.183 108.826L247.603 111.908C244.114 114.107 240.499 116.525 237.842 119.235C237.196 119.906 236.631 120.609 236.276 121.227C235.895 121.857 235.9 122.328 235.965 122.292C235.998 122.292 235.985 122.278 236.078 122.37L236.396 122.712C236.516 122.855 236.685 123.002 236.836 123.149C237.464 123.735 238.201 124.324 238.995 124.884C240.583 126.014 242.333 127.072 244.142 128.06C245.946 129.062 247.801 130.02 249.69 130.93C253.46 132.735 257.369 134.473 261.204 136.06L258.699 142.435Z" fill="#FFB573"/>
<path d="M249.575 109.723L250.683 107.32L245.646 105.571C245.646 105.571 244.078 110.294 245.947 112.473C247.539 112.218 248.9 111.187 249.575 109.723Z" fill="#FFB573"/>
<path d="M250.683 102.125L246.657 100.964L245.646 105.571L250.683 107.32V102.125Z" fill="#FFB573"/>
<path d="M302.68 107.553L303.267 101.937L298.077 103.157C298.077 103.157 298.001 108.421 300.746 109.26L302.68 107.553Z" fill="#FFB573"/>
<path d="M300.766 98.0056L297.385 99.5848L298.076 103.157L303.266 101.937L300.766 98.0056Z" fill="#FFB573"/>
<path d="M278.032 110.604C278.276 117.25 278.522 120.058 275.518 123.777C271.002 129.37 262.785 128.217 260.56 121.778C258.558 115.982 258.494 106.087 264.702 102.822C270.818 99.6057 277.788 103.958 278.032 110.604Z" fill="#FFB573"/>
<path d="M275.137 123.764C281.661 120.945 285.952 115 284.141 105.705C282.408 96.8121 276.404 95.9337 273.924 97.7785C271.444 99.6233 265.262 96.8737 261.553 99.9953C255.125 105.404 261.202 111.235 264.367 114.69C266.258 118.577 268.735 126.53 275.137 123.764Z" fill="#263238"/>
<path d="M272.428 104.109C274.63 107.297 278.852 108.197 281.86 106.12C284.868 104.043 285.522 99.7751 283.32 96.5871C281.118 93.3991 276.896 92.4991 273.888 94.5767C270.88 96.6535 270.226 100.921 272.428 104.109Z" fill="#47B3F1"/>
<path d="M274.122 98.4016C273.18 93.0432 278.25 88.9112 285.03 90.908C291.81 92.9048 288.224 98.9152 286.834 103.715C285.443 108.515 289.092 113.087 290.617 109.431C292.142 105.776 289.578 104.647 289.578 104.647C289.578 104.647 296.778 106.514 290.09 114.629C283.402 122.745 277.347 113.783 278.985 108.494C280.308 104.221 275.012 103.466 274.122 98.4016Z" fill="#263238"/>
<path d="M267.346 100.426C264.25 98.812 259.009 97.5064 256.026 102.525C254.615 104.898 255.162 108.116 255.162 108.116L264.273 108.722L267.346 100.426Z" fill="#263238"/>
<path d="M254.09 106.543C254.086 106.543 254.082 106.543 254.077 106.542C253.966 106.535 253.883 106.44 253.89 106.33C253.898 106.194 254.118 102.975 256.061 100.956C260.756 96.0777 266.261 100.124 267.836 101.481C267.92 101.553 267.93 101.679 267.857 101.763C267.784 101.847 267.658 101.856 267.574 101.784C266.066 100.486 260.801 96.6081 256.349 101.234C254.51 103.145 254.29 106.323 254.288 106.355C254.282 106.46 254.194 106.543 254.09 106.543Z" fill="#263238"/>
<path d="M265.482 114.427C265.473 115.721 264.893 116.988 264.158 117.848C263.053 119.141 261.786 118.504 261.495 117.071C261.234 115.78 261.493 113.553 262.89 112.772C264.266 112.003 265.494 112.947 265.482 114.427Z" fill="#FFB573"/>
<path d="M264.042 175.298C264.042 175.298 264.47 221.813 268.505 247.734C271.764 268.67 277.795 317.085 277.795 317.085H286.933C286.933 317.085 287.826 270.346 286.171 249.638C281.985 197.24 292.788 187.444 284.07 175.298H264.042Z" fill="#263238"/>
<path opacity="0.1" d="M264.042 175.298C264.042 175.298 264.47 221.813 268.505 247.734C271.764 268.67 277.795 317.085 277.795 317.085H286.933C286.933 317.085 287.826 270.346 286.171 249.638C281.985 197.24 292.788 187.444 284.07 175.298H264.042Z" fill="white"/>
<path opacity="0.3" d="M268.846 196.4C272.054 210.44 269.494 232.552 267.742 242.288C265.886 227.504 264.95 208.344 264.486 194.304C266.142 191.616 267.71 191.44 268.846 196.4Z" fill="black"/>
<path d="M276.545 317.266H288.184L288.795 313.182L276.478 312.766L276.545 317.266Z" fill="#47B3F1"/>
<path d="M279.866 136.034C280.961 133.857 286.846 132.487 290.063 132.492L292.471 143.184C292.471 143.184 286.062 152.696 283.397 151.687C280.248 150.498 277.521 140.698 279.866 136.034Z" fill="#47B3F1"/>
<path opacity="0.4" d="M279.866 136.034C280.961 133.857 286.846 132.487 290.063 132.492L292.471 143.184C292.471 143.184 286.062 152.696 283.397 151.687C280.248 150.498 277.521 140.698 279.866 136.034Z" fill="black"/>
<path d="M273.082 314.65C273.111 314.603 273.114 314.543 273.087 314.494C273.056 314.434 272.99 314.401 272.923 314.411C272.587 314.462 269.626 314.932 269.226 315.778C269.148 315.942 269.159 316.114 269.257 316.278C269.42 316.55 269.651 316.704 269.943 316.734C270.914 316.834 272.315 315.487 273.064 314.676C273.07 314.667 273.077 314.659 273.082 314.65ZM269.53 315.88C269.803 315.431 271.334 315.018 272.503 314.802C271.448 315.875 270.518 316.473 269.974 316.417C269.784 316.397 269.638 316.298 269.528 316.114C269.485 316.042 269.48 315.98 269.512 315.913C269.518 315.902 269.523 315.89 269.53 315.88Z" fill="#47B3F1"/>
<path d="M273.082 314.65C273.089 314.641 273.094 314.63 273.097 314.618C273.115 314.566 273.103 314.506 273.067 314.464C273.017 314.406 271.83 313.038 270.737 312.967C270.402 312.946 270.109 313.045 269.865 313.263C269.536 313.558 269.564 313.814 269.646 313.976C269.993 314.662 272.121 314.902 272.979 314.723C273.022 314.714 273.059 314.687 273.082 314.65ZM269.95 313.643C269.975 313.602 270.015 313.554 270.077 313.499C270.257 313.338 270.466 313.267 270.716 313.284C271.434 313.331 272.251 314.074 272.622 314.453C271.674 314.533 270.138 314.245 269.93 313.833C269.918 313.808 269.886 313.747 269.95 313.643Z" fill="#47B3F1"/>
<path d="M280.066 311.812L273.938 314.534L271.206 308.85L267.638 301.407L267.219 300.542L273.341 297.815L273.814 298.79L277.274 305.998L280.066 311.812Z" fill="#FFB573"/>
<path opacity="0.2" d="M277.274 305.998L271.206 308.85L267.638 301.407L273.814 298.79L277.274 305.998Z" fill="black"/>
<path d="M256.855 175.298C256.855 175.298 237.276 223.966 242.583 246.883C247.379 267.595 268.586 306.82 268.586 306.82L276.786 302.704C276.786 302.704 263.676 255.354 262.254 245.067C259.486 225.053 277.274 196.801 277.274 175.298H256.855Z" fill="#263238"/>
<path opacity="0.1" d="M256.855 175.298C256.855 175.298 237.276 223.966 242.583 246.883C247.379 267.595 268.586 306.82 268.586 306.82L276.786 302.704C276.786 302.704 263.676 255.354 262.254 245.067C259.486 225.053 277.274 196.801 277.274 175.298H256.855Z" fill="white"/>
<path d="M272.844 313.682L278.93 309.252C279.152 309.09 279.444 309.114 279.632 309.307L283.83 313.618C284.266 314.066 284.18 314.851 283.663 315.214C281.514 316.722 280.401 317.342 277.725 319.29C276.078 320.489 272.796 323.139 270.522 324.794C268.298 326.413 266.49 324.289 267.29 323.396C270.871 319.393 271.626 316.917 272.182 314.674C272.282 314.27 272.52 313.918 272.844 313.682Z" fill="#263238"/>
<path d="M268.058 308.555L278.643 303.714L277.285 299.401L265.95 304.57L268.058 308.555Z" fill="#47B3F1"/>
<path d="M262.051 135.488C261.173 133.215 253.526 130.722 249.69 129.852L248.004 142.466C248.004 142.466 254.269 151.47 257.02 150.726C260.268 149.846 263.933 140.358 262.051 135.488Z" fill="#47B3F1"/>
<path opacity="0.4" d="M262.051 135.488C261.173 133.215 253.526 130.722 249.69 129.852L248.004 142.466C248.004 142.466 254.269 151.47 257.02 150.726C260.268 149.846 263.933 140.358 262.051 135.488Z" fill="black"/>
<path d="M253.653 134.854C253.653 134.854 250.461 135.978 256.855 175.298C267.654 175.298 278.816 175.298 284.07 175.298C283.614 164.221 283.601 157.391 288.894 134.659C288.894 134.659 283.192 133.418 277.338 133.137C272.758 132.916 269.006 132.77 264.979 133.138C259.673 133.622 253.653 134.854 253.653 134.854Z" fill="#47B3F1"/>
<path opacity="0.4" d="M253.653 134.854C253.653 134.854 250.461 135.978 256.855 175.298C267.654 175.298 278.816 175.298 284.07 175.298C283.614 164.221 283.601 157.391 288.894 134.659C288.894 134.659 283.192 133.418 277.338 133.137C272.758 132.916 269.006 132.77 264.979 133.138C259.673 133.622 253.653 134.854 253.653 134.854Z" fill="black"/>
<path d="M284.478 173.7L285.706 176.136C285.801 176.325 285.577 176.518 285.262 176.518H256.721C256.475 176.518 256.272 176.398 256.257 176.243L256.011 173.807C255.994 173.638 256.207 173.495 256.475 173.495H284.035C284.238 173.496 284.417 173.578 284.478 173.7Z" fill="#47B3F1"/>
<path opacity="0.3" d="M284.478 173.7L285.706 176.136C285.801 176.325 285.577 176.518 285.262 176.518H256.721C256.475 176.518 256.272 176.398 256.257 176.243L256.011 173.807C255.994 173.638 256.207 173.495 256.475 173.495H284.035C284.238 173.496 284.417 173.578 284.478 173.7Z" fill="white"/>
<path d="M280.777 176.782H281.515C281.662 176.782 281.774 176.706 281.764 176.614L281.418 173.449C281.407 173.356 281.279 173.281 281.132 173.281H280.394C280.246 173.281 280.134 173.357 280.145 173.449L280.491 176.614C280.502 176.706 280.63 176.782 280.777 176.782Z" fill="#263238"/>
<path d="M262.886 176.782H263.625C263.772 176.782 263.884 176.706 263.874 176.614L263.527 173.449C263.517 173.356 263.389 173.281 263.242 173.281H262.503C262.356 173.281 262.244 173.357 262.254 173.449L262.601 176.614C262.61 176.706 262.739 176.782 262.886 176.782Z" fill="#263238"/>
</svg>
