<svg width="300" height="300" viewBox="0 0 300 300" fill="none" xmlns="http://www.w3.org/2000/svg">
<path d="M150 286.518C219.197 286.518 275.292 254.132 275.292 214.182C275.292 174.232 219.197 141.846 150 141.846C80.8031 141.846 24.708 174.232 24.708 214.182C24.708 254.132 80.8031 286.518 150 286.518Z" fill="#F5F5F5"/>
<path d="M169.662 264.84C184.627 264.84 196.758 257.837 196.758 249.198C196.758 240.559 184.627 233.556 169.662 233.556C154.697 233.556 142.566 240.559 142.566 249.198C142.566 257.837 154.697 264.84 169.662 264.84Z" fill="#E0E0E0"/>
<path d="M155.58 196.23L83.106 238.08C81.066 239.28 77.508 239.112 75.15 237.75L49.422 222.894C47.07 221.538 46.812 219.48 48.822 218.304L121.296 176.454C123.336 175.254 126.894 175.422 129.252 176.784L154.98 191.64C157.362 192.996 157.62 195.054 155.58 196.23Z" fill="#E0E0E0"/>
<path d="M233.616 210.84L239.328 214.158C239.328 214.158 236.448 204.966 238.044 195.714C238.43 193.536 239.217 191.448 240.366 189.558C240.816 188.622 244.26 182.856 241.23 180.192C238.2 177.528 231.09 182.826 231.408 197.07C231.56 201.735 232.302 206.361 233.616 210.84Z" fill="#0698EC"/>
<path opacity="0.5" d="M233.616 210.84L239.328 214.158C239.328 214.158 236.448 204.966 238.044 195.714C238.43 193.536 239.217 191.448 240.366 189.558C240.816 188.622 244.26 182.856 241.23 180.192C238.2 177.528 231.09 182.826 231.408 197.07C231.56 201.735 232.302 206.361 233.616 210.84Z" fill="black"/>
<path d="M236.274 212.646C236.22 212.646 236.168 212.629 236.124 212.598C236.08 212.566 236.046 212.523 236.028 212.472C236.028 212.412 233.85 206.418 233.964 196.806C234.078 187.194 239.16 181.974 239.214 181.926C239.237 181.902 239.265 181.883 239.296 181.87C239.327 181.857 239.36 181.85 239.394 181.85C239.428 181.85 239.461 181.857 239.492 181.87C239.523 181.883 239.551 181.902 239.574 181.926C239.598 181.95 239.617 181.978 239.63 182.01C239.643 182.041 239.65 182.075 239.65 182.109C239.65 182.143 239.643 182.177 239.63 182.208C239.617 182.24 239.598 182.268 239.574 182.292C239.526 182.34 234.594 187.362 234.48 196.812C234.366 206.262 236.496 212.238 236.514 212.298C236.526 212.329 236.532 212.363 236.532 212.397C236.531 212.431 236.523 212.464 236.509 212.495C236.495 212.526 236.475 212.553 236.45 212.576C236.425 212.599 236.396 212.617 236.364 212.628L236.274 212.646Z" fill="white"/>
<path d="M238.044 213.432L247.476 219C247.476 219 251.796 218.364 251.472 214.296C251.148 210.228 249.39 209.274 251.574 207.486C253.758 205.698 254.322 205.584 254.214 203.832C254.106 202.08 252.936 201.318 252.378 200.628C251.82 199.938 250.284 198.474 251.37 196.368C252.456 194.262 253.926 192.216 251.742 191.244C250.434 190.644 248.238 191.394 246.786 192.936C245.334 194.478 244.128 195.594 242.754 195.936C241.38 196.278 238.5 196.32 238.596 198.696C238.692 201.072 239.31 201.894 238.734 202.944C237.648 204.93 233.01 206.004 238.044 213.432Z" fill="#0698EC"/>
<path opacity="0.2" d="M238.044 213.432L247.476 219C247.476 219 251.796 218.364 251.472 214.296C251.148 210.228 249.39 209.274 251.574 207.486C253.758 205.698 254.322 205.584 254.214 203.832C254.106 202.08 252.936 201.318 252.378 200.628C251.82 199.938 250.284 198.474 251.37 196.368C252.456 194.262 253.926 192.216 251.742 191.244C250.434 190.644 248.238 191.394 246.786 192.936C245.334 194.478 244.128 195.594 242.754 195.936C241.38 196.278 238.5 196.32 238.596 198.696C238.692 201.072 239.31 201.894 238.734 202.944C237.648 204.93 233.01 206.004 238.044 213.432Z" fill="black"/>
<path d="M241.884 215.952C241.819 215.952 241.756 215.927 241.708 215.883C241.66 215.838 241.631 215.777 241.626 215.712C241.626 215.574 240.594 201.51 250.362 192.276C250.412 192.229 250.479 192.204 250.547 192.206C250.616 192.208 250.681 192.238 250.728 192.288C250.775 192.338 250.8 192.405 250.798 192.473C250.796 192.542 250.766 192.607 250.716 192.654C241.116 201.714 242.136 215.532 242.148 215.67C242.153 215.739 242.131 215.807 242.086 215.86C242.041 215.913 241.977 215.946 241.908 215.952H241.884Z" fill="white"/>
<path d="M243.6 203.898C243.535 203.898 243.472 203.873 243.424 203.829C243.376 203.784 243.347 203.723 243.342 203.658C243.269 202.578 242.977 201.525 242.484 200.561C241.991 199.598 241.307 198.745 240.474 198.054C240.446 198.034 240.423 198.009 240.405 197.979C240.387 197.95 240.376 197.918 240.37 197.884C240.365 197.851 240.366 197.816 240.374 197.783C240.382 197.75 240.397 197.719 240.417 197.691C240.437 197.663 240.462 197.64 240.492 197.622C240.521 197.604 240.553 197.593 240.587 197.587C240.62 197.582 240.655 197.583 240.688 197.591C240.721 197.599 240.752 197.614 240.78 197.634C241.68 198.367 242.418 199.279 242.948 200.312C243.477 201.344 243.787 202.476 243.858 203.634C243.863 203.702 243.841 203.768 243.797 203.82C243.754 203.872 243.691 203.904 243.624 203.91L243.6 203.898Z" fill="white"/>
<path d="M242.88 206.298C242.816 206.299 242.753 206.275 242.706 206.232C242.659 206.183 242.632 206.117 242.632 206.049C242.632 205.981 242.659 205.915 242.706 205.866C242.808 205.752 245.268 203.094 250.956 203.874C251.023 203.886 251.084 203.923 251.125 203.977C251.166 204.032 251.185 204.1 251.178 204.168C251.168 204.236 251.131 204.297 251.076 204.339C251.021 204.38 250.952 204.399 250.884 204.39C245.484 203.652 243.114 206.19 243.084 206.19C243.062 206.224 243.032 206.251 242.996 206.27C242.96 206.289 242.92 206.299 242.88 206.298Z" fill="white"/>
<path d="M60.672 202.764L57.858 208.734C57.858 208.734 55.008 199.53 48.444 192.816C46.8951 191.238 45.0632 189.966 43.044 189.066C42.15 188.55 36.042 185.754 37.044 181.866C38.046 177.978 46.884 178.266 54.708 190.188C57.2182 194.112 59.2221 198.337 60.672 202.764Z" fill="#0698EC"/>
<path opacity="0.5" d="M60.672 202.764L57.858 208.734C57.858 208.734 55.008 199.53 48.444 192.816C46.8951 191.238 45.0632 189.966 43.044 189.066C42.15 188.55 36.042 185.754 37.044 181.866C38.046 177.978 46.884 178.266 54.708 190.188C57.2182 194.112 59.2221 198.337 60.672 202.764Z" fill="black"/>
<path d="M59.364 205.8C59.3069 205.8 59.2514 205.781 59.206 205.746C59.1606 205.711 59.1276 205.663 59.112 205.608C59.112 205.548 57.492 199.47 52.002 191.7C46.512 183.93 39.642 182.646 39.6 182.634C39.5665 182.628 39.5344 182.616 39.5057 182.598C39.4769 182.579 39.4521 182.556 39.4325 182.528C39.413 182.5 39.3992 182.468 39.3919 182.435C39.3846 182.402 39.384 182.368 39.39 182.334C39.4031 182.267 39.4417 182.208 39.4977 182.169C39.5536 182.129 39.6225 182.113 39.69 182.124C39.762 182.124 46.89 183.504 52.458 191.4C58.026 199.296 59.658 205.416 59.658 205.476C59.6746 205.543 59.6644 205.613 59.6296 205.673C59.5949 205.732 59.5383 205.776 59.472 205.794L59.364 205.8Z" fill="white"/>
<path d="M58.5 207.414L53.88 217.332C53.88 217.332 49.962 219.258 47.928 215.724C45.894 212.19 46.788 210.408 43.98 210.174C41.172 209.94 40.632 210.174 39.726 208.668C38.82 207.162 39.354 205.866 39.42 204.984C39.486 204.102 39.93 202.02 37.836 200.898C35.742 199.776 33.372 198.936 34.626 196.896C35.37 195.696 37.59 195.03 39.666 195.48C41.742 195.93 43.356 196.158 44.694 195.672C46.032 195.186 48.414 193.578 49.686 195.588C50.958 197.598 50.886 198.624 51.984 199.188C54 200.184 58.428 198.432 58.5 207.414Z" fill="#0698EC"/>
<path opacity="0.2" d="M58.5 207.414L53.88 217.332C53.88 217.332 49.962 219.258 47.928 215.724C45.894 212.19 46.788 210.408 43.98 210.174C41.172 209.94 40.632 210.174 39.726 208.668C38.82 207.162 39.354 205.866 39.42 204.984C39.486 204.102 39.93 202.02 37.836 200.898C35.742 199.776 33.372 198.936 34.626 196.896C35.37 195.696 37.59 195.03 39.666 195.48C41.742 195.93 43.356 196.158 44.694 195.672C46.032 195.186 48.414 193.578 49.686 195.588C50.958 197.598 50.886 198.624 51.984 199.188C54 200.184 58.428 198.432 58.5 207.414Z" fill="black"/>
<path d="M56.616 211.71C56.5705 211.71 56.5259 211.698 56.4868 211.675C56.4477 211.651 56.4157 211.618 56.394 211.578C56.322 211.458 49.308 199.512 36.276 197.49C36.2419 197.485 36.2092 197.473 36.1798 197.455C36.1504 197.437 36.1248 197.414 36.1047 197.386C36.0846 197.358 36.0702 197.326 36.0626 197.292C36.0549 197.259 36.054 197.224 36.06 197.19C36.0643 197.156 36.0755 197.124 36.0928 197.094C36.1102 197.065 36.1333 197.039 36.1607 197.019C36.1882 196.999 36.2195 196.984 36.2528 196.977C36.286 196.969 36.3204 196.968 36.354 196.974C49.638 199.038 56.754 211.2 56.844 211.32C56.8657 211.36 56.8767 211.405 56.876 211.45C56.8753 211.496 56.8629 211.54 56.8399 211.579C56.817 211.618 56.7844 211.651 56.7451 211.674C56.7059 211.697 56.6614 211.709 56.616 211.71Z" fill="white"/>
<path d="M48.39 202.746C48.3438 202.746 48.2984 202.734 48.2584 202.71C48.2183 202.687 48.1851 202.654 48.162 202.614C47.5661 201.62 47.1823 200.514 47.0346 199.365C46.887 198.215 46.9787 197.048 47.304 195.936C47.3154 195.904 47.333 195.875 47.3558 195.85C47.3786 195.825 47.406 195.804 47.4367 195.79C47.4673 195.775 47.5005 195.767 47.5344 195.765C47.5682 195.764 47.6021 195.769 47.634 195.78C47.6659 195.791 47.6953 195.809 47.7204 195.832C47.7455 195.855 47.7659 195.882 47.7803 195.913C47.7948 195.943 47.8031 195.977 47.8048 196.01C47.8065 196.044 47.8014 196.078 47.79 196.11C47.4966 197.152 47.4172 198.242 47.5564 199.316C47.6956 200.389 48.0506 201.423 48.6 202.356C48.6171 202.386 48.6282 202.418 48.6327 202.452C48.6371 202.486 48.6348 202.52 48.6259 202.553C48.6169 202.586 48.6016 202.617 48.5806 202.644C48.5597 202.671 48.5337 202.693 48.504 202.71C48.4698 202.732 48.4305 202.744 48.39 202.746Z" fill="white"/>
<path d="M42.636 207.306C42.6 207.306 42.5645 207.298 42.5315 207.283C42.4985 207.269 42.4688 207.248 42.444 207.222C42.4199 207.198 42.4007 207.17 42.3877 207.138C42.3746 207.107 42.3679 207.073 42.3679 207.039C42.3679 207.005 42.3746 206.971 42.3877 206.94C42.4007 206.909 42.4199 206.88 42.444 206.856C46.68 202.986 50.244 203.778 50.364 203.814C50.3972 203.822 50.4285 203.836 50.4561 203.856C50.4837 203.876 50.5071 203.901 50.525 203.93C50.5428 203.959 50.5548 203.991 50.5601 204.025C50.5654 204.059 50.564 204.093 50.556 204.126C50.549 204.16 50.5352 204.191 50.5155 204.219C50.4958 204.248 50.4706 204.271 50.4414 204.289C50.4122 204.307 50.3796 204.319 50.3457 204.324C50.3117 204.329 50.2771 204.327 50.244 204.318C50.208 204.318 46.812 203.568 42.792 207.24C42.7482 207.278 42.6936 207.301 42.636 207.306Z" fill="white"/>
<path d="M58.566 81.9C58.5666 80.153 59.0265 78.4368 59.8995 76.9236C60.7725 75.4103 62.0279 74.1531 63.54 73.278L126.852 36.726C127.274 36.4825 127.746 36.3367 128.232 36.2993C128.718 36.2619 129.207 36.3339 129.661 36.51C130.116 36.6861 130.525 36.9619 130.859 37.317C131.194 37.6721 131.444 38.0975 131.592 38.562C131.422 37.8178 131.104 37.1155 130.656 36.4969C130.209 35.8784 129.642 35.3564 128.988 34.962L128.76 34.83C127.184 33.8927 125.385 33.3973 123.552 33.396C122.966 33.3905 122.39 33.5439 121.884 33.84L58.572 70.41C57.0576 71.2829 55.7999 72.5395 54.9257 74.0531C54.0514 75.5668 53.5914 77.284 53.592 79.032V215.946C53.5927 216.518 53.7438 217.08 54.03 217.575C54.3162 218.07 54.7275 218.482 55.2228 218.768C55.7181 219.054 56.2798 219.205 56.8518 219.206C57.4239 219.207 57.986 219.057 58.482 218.772L58.566 218.724V81.9Z" fill="#37474F"/>
<path d="M126.768 185.088L63.456 221.64C62.9608 221.927 62.3987 222.078 61.8265 222.078C61.2543 222.079 60.6921 221.928 60.1964 221.643C59.7007 221.357 59.289 220.945 59.0028 220.45C58.7166 219.954 58.566 219.392 58.566 218.82V81.9C58.5666 80.153 59.0265 78.4368 59.8995 76.9236C60.7725 75.4103 62.0279 74.1531 63.54 73.278L126.852 36.726C127.348 36.4411 127.91 36.2914 128.482 36.2922C129.054 36.2929 129.616 36.4439 130.111 36.7302C130.606 37.0164 131.018 37.4277 131.304 37.923C131.59 38.4182 131.741 38.98 131.742 39.552V176.466C131.743 178.213 131.283 179.93 130.41 181.443C129.537 182.957 128.281 184.214 126.768 185.088Z" fill="#455A64"/>
<path d="M58.566 218.82V81.9C58.5667 80.4084 58.903 78.936 59.55 77.592L54.654 74.592C53.9567 75.979 53.593 77.5096 53.592 79.062V217.122C53.5921 217.665 53.7332 218.199 54.0013 218.671C54.2695 219.143 54.6557 219.538 55.122 219.816L57.648 221.316C58.5223 221.838 59.5216 222.114 60.54 222.114H61.8C61.3714 222.11 60.9477 222.022 60.5532 221.854C60.1587 221.686 59.8011 221.443 59.5007 221.137C59.2004 220.831 58.9633 220.469 58.8029 220.071C58.6425 219.674 58.562 219.249 58.566 218.82Z" fill="#263238"/>
<path d="M124.59 49.89V165C124.589 166.543 124.182 168.059 123.41 169.396C122.638 170.732 121.528 171.842 120.192 172.614L64.284 204.888C63.8625 205.133 63.3853 205.265 62.898 205.272C63.0593 205.645 63.2977 205.98 63.5976 206.254C63.8975 206.529 64.2521 206.736 64.6381 206.864C65.024 206.991 65.4326 207.036 65.8369 206.994C66.2412 206.952 66.6322 206.826 66.984 206.622L122.892 174.342C124.228 173.57 125.337 172.46 126.108 171.123C126.879 169.787 127.285 168.271 127.284 166.728V52.758C127.285 52.0266 127.007 51.3223 126.506 50.7891C126.006 50.256 125.32 49.9344 124.59 49.89Z" fill="#37474F"/>
<path d="M62.898 205.242C63.3853 205.235 63.8625 205.103 64.284 204.858L120.192 172.584C121.524 171.814 122.631 170.709 123.402 169.379C124.174 168.048 124.584 166.538 124.59 165V49.89C124.029 49.8947 123.475 50.0238 122.97 50.268L67.062 82.542C65.7249 83.3132 64.6146 84.423 63.8425 85.7595C63.0705 87.0961 62.664 88.6125 62.664 90.156V204.096C62.6634 204.496 62.7451 204.893 62.904 205.26L62.898 205.242Z" fill="#0698EC"/>
<g opacity="0.5">
<path d="M62.898 205.242C63.3853 205.235 63.8625 205.103 64.284 204.858L120.192 172.584C121.524 171.814 122.631 170.709 123.402 169.379C124.174 168.048 124.584 166.538 124.59 165V49.89C124.029 49.8947 123.475 50.0238 122.97 50.268L67.062 82.542C65.7249 83.3132 64.6146 84.423 63.8425 85.7595C63.0705 87.0961 62.664 88.6125 62.664 90.156V204.096C62.6634 204.496 62.7451 204.893 62.904 205.26L62.898 205.242Z" fill="white"/>
</g>
<path d="M86.292 65.676C86.273 66.0251 86.1724 66.3648 85.9984 66.668C85.8244 66.9712 85.5818 67.2295 85.29 67.422C84.732 67.74 84.282 67.482 84.282 66.822C84.3012 66.4723 84.4025 66.132 84.5776 65.8287C84.7527 65.5254 84.9968 65.2675 85.29 65.076C85.842 64.8 86.292 65.034 86.292 65.676Z" fill="#263238"/>
<path d="M90.042 63.516C90.0218 63.8655 89.9201 64.2054 89.7451 64.5086C89.5701 64.8118 89.3266 65.0698 89.034 65.262C88.476 65.58 88.026 65.322 88.026 64.662C88.0452 64.3123 88.1465 63.972 88.3216 63.6687C88.4967 63.3654 88.7408 63.1075 89.034 62.916C89.586 62.616 90.042 62.874 90.042 63.516Z" fill="#263238"/>
<path d="M105.156 55.95L93 63C92.514 63.276 92.124 63 92.124 62.34C92.1291 62.0128 92.211 61.6913 92.3632 61.4016C92.5153 61.1118 92.7335 60.8619 93 60.672L105.174 53.646C105.654 53.364 106.044 53.646 106.044 54.3C106.034 54.6251 105.949 54.9435 105.795 55.2299C105.641 55.5163 105.422 55.7628 105.156 55.95Z" fill="#263238"/>
<path d="M103.098 189.408C103.824 189.408 104.298 190.182 104.298 191.376C104.298 193.248 103.128 195.51 101.736 196.314L95.91 199.68C95.6497 199.842 95.3523 199.935 95.046 199.95C94.32 199.95 93.846 199.176 93.846 197.982C93.846 196.104 95.046 193.842 96.408 193.044L102.234 189.678C102.496 189.515 102.796 189.422 103.104 189.408M103.104 188.91C102.708 188.922 102.323 189.04 101.988 189.252L96.162 192.612C94.608 193.506 93.348 195.912 93.348 198.012C93.348 199.554 94.05 200.478 95.046 200.478C95.4419 200.466 95.8274 200.348 96.162 200.136L101.988 196.776C103.536 195.882 104.796 193.476 104.796 191.376C104.796 189.834 104.1 188.91 103.104 188.91Z" fill="#263238"/>
<path d="M70.914 98.226V227.226C70.914 229.566 71.772 231.132 73.08 231.648H73.116L78.696 234.702L78.66 229.746L78.06 95.988L72.174 92.988C71.3841 94.6238 70.9545 96.41 70.914 98.226Z" fill="#E6E6E6"/>
<path d="M79.002 235.2L72.966 231.894C71.472 231.294 70.614 229.536 70.614 227.196V98.196C70.6459 96.3249 71.0818 94.4829 71.892 92.796L72.024 92.514L78.348 95.748V95.928L78.948 229.686L79.002 235.2ZM73.272 231.378L78.396 234.186V229.734L77.796 96.156L72.354 93.372C71.6655 94.8932 71.294 96.5386 71.262 98.208V227.208C71.262 229.32 72 230.868 73.242 231.354L73.314 231.39L73.272 231.378Z" fill="#E6E6E6"/>
<path d="M72.162 93L78.048 96L141.048 59.346L145.248 56.898L139.434 53.622L139.272 53.526C138.342 52.968 137.13 53.004 135.792 53.778L76.164 88.2C74.383 89.3671 72.9898 91.0381 72.162 93Z" fill="#E0E0E0"/>
<path d="M78.048 96.294C77.9997 96.2935 77.9524 96.2811 77.91 96.258L72.024 93.258C71.9894 93.2414 71.9585 93.218 71.9331 93.1893C71.9077 93.1606 71.8883 93.1271 71.876 93.0908C71.8637 93.0544 71.8588 93.016 71.8615 92.9778C71.8643 92.9395 71.8746 92.9022 71.892 92.868C72.7497 90.8567 74.184 89.1447 76.014 87.948L135.654 53.514C137.034 52.722 138.378 52.632 139.434 53.268H139.482L139.602 53.34L145.41 56.61C145.455 56.6376 145.493 56.6763 145.519 56.7225C145.546 56.7687 145.56 56.8209 145.56 56.874C145.561 56.9266 145.547 56.9785 145.521 57.024C145.495 57.0694 145.456 57.1068 145.41 57.132L78.21 96.234C78.1627 96.2689 78.1066 96.2897 78.048 96.294ZM72.558 92.844L78.042 95.652L144.642 56.898L139.116 53.778L139.074 53.742C138.216 53.25 137.106 53.352 135.942 54.024L76.302 88.458C74.6628 89.5348 73.3642 91.0561 72.558 92.844Z" fill="#E0E0E0"/>
<path d="M76.686 101.466V229.866C76.686 231.888 77.334 233.34 78.36 234.024L78.702 234.21C79.596 234.63 80.718 234.54 81.936 233.832L110.766 217.2L141.6 198.66C143.179 197.672 144.487 196.306 145.404 194.685C146.322 193.064 146.821 191.24 146.856 189.378V60.978C146.856 59.022 146.256 57.606 145.284 56.892C145.12 56.769 144.94 56.6682 144.75 56.592C144.23 56.4081 143.674 56.3491 143.126 56.42C142.579 56.4909 142.056 56.6896 141.6 57L81.96 92.016C80.2774 92.8966 78.9165 94.287 78.072 95.988C77.2063 97.6874 76.7327 99.5594 76.686 101.466Z" fill="#FAFAFA"/>
<path d="M141.6 198.66C129.33 205.98 97.404 225.03 81.6 234.552C81.1285 234.834 80.5907 234.986 80.0413 234.993C79.4919 234.999 78.9505 234.86 78.4724 234.59C77.9943 234.319 77.5965 233.926 77.3196 233.452C77.0427 232.977 76.8965 232.437 76.896 231.888V99.852C76.896 98.3489 77.2891 96.872 78.0364 95.5679C78.7837 94.2638 79.8592 93.1779 81.156 92.418L141.864 56.826C142.336 56.5509 142.871 56.4049 143.417 56.4027C143.963 56.4004 144.5 56.5421 144.974 56.8134C145.448 57.0847 145.842 57.476 146.117 57.948C146.391 58.42 146.536 58.956 146.538 59.502V189.918C146.539 191.677 146.084 193.407 145.219 194.939C144.354 196.47 143.107 197.752 141.6 198.66Z" fill="#FAFAFA"/>
<path d="M141.426 198.396C131.79 204.132 122.158 209.884 112.53 215.652L95.43 225.882L87.63 230.562L84.216 232.614C83.166 233.244 82.05 234.144 80.886 234.546C78.96 235.218 77.226 233.676 77.178 231.774C77.178 231.468 77.178 231.174 77.178 230.856V109.8C77.178 106.578 77.178 103.35 77.178 100.128C77.156 98.6025 77.5413 97.0988 78.2944 95.7719C79.0475 94.4451 80.141 93.3432 81.462 92.58C82.854 91.758 84.252 90.948 85.662 90.132L105.258 78.6L128.508 64.974C132.918 62.394 137.316 59.79 141.708 57.222C143.076 56.43 144.798 56.508 145.752 57.942C146.089 58.5145 146.248 59.1747 146.208 59.838V189.414C146.268 191.203 145.856 192.977 145.014 194.557C144.171 196.137 142.928 197.467 141.408 198.414C141.078 198.618 141.378 199.14 141.708 198.936C143.306 197.946 144.618 196.557 145.515 194.905C146.412 193.253 146.861 191.395 146.82 189.516V69.066C146.82 65.934 146.85 62.796 146.82 59.658C146.835 59.0298 146.679 58.4093 146.369 57.8629C146.058 57.3166 145.605 56.8651 145.058 56.5567C144.51 56.2484 143.889 56.095 143.261 56.1128C142.633 56.1307 142.021 56.3191 141.492 56.658C140.028 57.504 138.576 58.368 137.124 59.22L117 71.058L93.54 84.81C89.4 87.24 85.2 89.652 81.078 92.1C79.6903 92.9166 78.5428 94.0851 77.7516 95.4874C76.9604 96.8897 76.5535 98.476 76.572 100.086C76.572 101.166 76.572 102.246 76.572 103.326V231.264C76.572 231.468 76.572 231.678 76.572 231.864C76.5785 232.401 76.7102 232.928 76.9568 233.405C77.2034 233.881 77.5579 234.294 77.9921 234.609C78.4263 234.924 78.9282 235.134 79.4577 235.221C79.9872 235.308 80.5298 235.27 81.042 235.11C82.176 234.732 83.244 233.88 84.264 233.268L87.744 231.174L95.544 226.506C106.888 219.706 118.242 212.918 129.606 206.142L141.744 198.9C142.056 198.72 141.756 198.198 141.426 198.396Z" fill="#EBEBEB"/>
<path d="M81.132 92.4L141.864 56.826C142.336 56.5509 142.871 56.4049 143.417 56.4027C143.963 56.4004 144.5 56.5421 144.974 56.8134C145.448 57.0847 145.842 57.476 146.117 57.948C146.391 58.42 146.536 58.956 146.538 59.502V65.232L76.89 105.432V99.84C76.8871 98.3377 77.277 96.8607 78.0211 95.5556C78.7652 94.2505 79.8377 93.1627 81.132 92.4Z" fill="#EBEBEB"/>
<path d="M111.702 130.074C124.019 130.074 134.004 124.309 134.004 117.198C134.004 110.087 124.019 104.322 111.702 104.322C99.3849 104.322 89.4 110.087 89.4 117.198C89.4 124.309 99.3849 130.074 111.702 130.074Z" fill="#0698EC"/>
<path opacity="0.5" d="M111.702 130.074C124.019 130.074 134.004 124.309 134.004 117.198C134.004 110.087 124.019 104.322 111.702 104.322C99.3849 104.322 89.4 110.087 89.4 117.198C89.4 124.309 99.3849 130.074 111.702 130.074Z" fill="white"/>
<path d="M108.876 117.264C108.783 117.264 108.691 117.246 108.605 117.21C108.519 117.175 108.441 117.122 108.375 117.057C108.31 116.991 108.257 116.913 108.222 116.827C108.186 116.741 108.168 116.649 108.168 116.556V111.894C108.22 110.788 108.536 109.71 109.089 108.751C109.642 107.792 110.417 106.979 111.348 106.38C111.725 106.069 112.188 105.881 112.675 105.841C113.162 105.8 113.649 105.909 114.073 106.153C114.496 106.397 114.835 106.764 115.044 107.206C115.253 107.647 115.322 108.142 115.242 108.624V113.292C115.242 113.48 115.167 113.66 115.035 113.793C114.902 113.925 114.722 114 114.534 114C114.346 114 114.166 113.925 114.033 113.793C113.901 113.66 113.826 113.48 113.826 113.292V108.6C113.92 108.366 113.925 108.105 113.842 107.867C113.758 107.629 113.591 107.429 113.371 107.304C113.152 107.18 112.894 107.139 112.647 107.19C112.4 107.241 112.179 107.379 112.026 107.58C111.312 108.057 110.717 108.692 110.289 109.436C109.86 110.18 109.609 111.013 109.554 111.87V116.532C109.56 116.719 109.493 116.901 109.366 117.038C109.239 117.175 109.063 117.256 108.876 117.264Z" fill="#37474F"/>
<path d="M117.42 110.286C117.254 110.217 117.074 110.192 116.895 110.212C116.717 110.232 116.547 110.296 116.4 110.4L106.968 115.848C106.554 116.108 106.212 116.467 105.972 116.892C105.595 117.505 105.387 118.207 105.372 118.926V127.092C105.351 127.321 105.382 127.552 105.463 127.767C105.544 127.982 105.673 128.176 105.84 128.334C105.891 128.374 105.948 128.406 106.008 128.43C106.168 128.489 106.339 128.51 106.509 128.489C106.678 128.468 106.84 128.407 106.98 128.31L116.4 122.856C116.891 122.505 117.294 122.044 117.574 121.509C117.854 120.975 118.005 120.382 118.014 119.778V111.6C118.047 111.347 118.009 111.091 117.904 110.858C117.799 110.626 117.632 110.428 117.42 110.286Z" fill="#0698EC"/>
<path d="M112.8 118.8L113.712 121.416L110.514 123.258L111.312 120.03L111.426 119.574C110.886 119.574 110.514 119.172 110.514 118.44C110.518 118.142 110.569 117.846 110.664 117.564C110.913 116.784 111.424 116.115 112.11 115.668C112.992 115.158 113.712 115.572 113.712 116.592C113.668 117.41 113.346 118.189 112.8 118.8Z" fill="#455A64"/>
<path d="M111.288 120L111.402 119.544C110.862 119.544 110.49 119.142 110.49 118.41C110.494 118.112 110.545 117.816 110.64 117.534L112.8 118.8L113.712 121.416L111.288 120Z" fill="#37474F"/>
<path d="M135 147.396L88.44 174.258C86.514 175.368 84.954 174.186 84.954 171.624V164.574C84.954 162.006 86.514 159.024 88.44 157.914L135 131.052C136.926 129.942 138.486 131.118 138.486 133.686V140.736C138.456 143.304 136.896 146.28 135 147.396Z" fill="#0698EC"/>
<path d="M96.81 157.278H95.91V164.736H96.81V157.278Z" fill="#FAFAFA"/>
<path d="M100.092 160.56H92.634V161.46H100.092V160.56Z" fill="#FAFAFA"/>
<path d="M96.81 158.37H95.91V163.644H96.81V158.37Z" fill="#FAFAFA"/>
<path d="M100.932 160.56H91.794V161.46H100.932V160.56Z" fill="#FAFAFA"/>
<path d="M112.152 148.926H111.252V156.384H112.152V148.926Z" fill="#FAFAFA"/>
<path d="M115.434 152.202H107.976V153.102H115.434V152.202Z" fill="#FAFAFA"/>
<path d="M112.152 150.018H111.252V155.292H112.152V150.018Z" fill="#FAFAFA"/>
<path d="M116.274 152.202H107.136V153.102H116.274V152.202Z" fill="#FAFAFA"/>
<path d="M127.494 140.568H126.594V148.026H127.494V140.568Z" fill="#FAFAFA"/>
<path d="M130.776 143.85H123.318V144.75H130.776V143.85Z" fill="#FAFAFA"/>
<path d="M127.494 141.66H126.594V146.934H127.494V141.66Z" fill="#FAFAFA"/>
<path d="M131.616 143.85H122.478V144.75H131.616V143.85Z" fill="#FAFAFA"/>
<path d="M136.35 157.104C136.95 157.104 137.256 158.034 137.256 158.958V166.008C137.256 168.15 135.93 170.724 134.37 171.63L87.84 198.492C87.6038 198.643 87.3335 198.731 87.054 198.75C86.454 198.75 86.154 197.82 86.154 196.896V189.846C86.154 187.704 87.474 185.13 89.04 184.224L135.6 157.362C135.834 157.212 136.102 157.123 136.38 157.104M136.38 155.904C135.891 155.922 135.416 156.067 135 156.324L88.44 183.186C86.514 184.296 84.954 187.278 84.954 189.846V196.896C84.954 198.804 85.818 199.95 87.054 199.95C87.5447 199.933 88.0224 199.788 88.44 199.53L135 172.668C136.926 171.558 138.486 168.576 138.486 166.008V158.958C138.486 157.05 137.616 155.904 136.38 155.904Z" fill="#0698EC"/>
<path d="M103.405 188.939C102.839 189.264 102.352 189.411 101.944 189.382C101.538 189.348 101.226 189.15 101.006 188.789C100.786 188.425 100.677 187.909 100.677 187.24C100.677 186.588 100.786 185.952 101.006 185.333C101.226 184.714 101.535 184.152 101.933 183.648C102.334 183.142 102.805 182.734 103.344 182.424C103.707 182.216 104.045 182.089 104.357 182.044C104.672 181.995 104.947 182.037 105.181 182.17C105.417 182.301 105.601 182.531 105.732 182.861C105.863 183.187 105.929 183.62 105.929 184.16V184.643L101.285 187.312V186.221L104.493 184.378C104.493 184.124 104.446 183.927 104.35 183.787C104.255 183.646 104.122 183.57 103.953 183.557C103.786 183.54 103.591 183.595 103.369 183.723C103.138 183.856 102.932 184.036 102.753 184.263C102.577 184.485 102.438 184.729 102.338 184.993C102.238 185.254 102.186 185.511 102.184 185.763V186.799C102.184 187.113 102.234 187.355 102.334 187.526C102.437 187.696 102.581 187.789 102.768 187.806C102.954 187.823 103.175 187.758 103.43 187.611C103.599 187.514 103.755 187.397 103.895 187.261C104.036 187.125 104.157 186.973 104.257 186.805C104.357 186.638 104.434 186.459 104.486 186.269L105.897 185.566C105.825 185.998 105.678 186.423 105.456 186.843C105.237 187.258 104.953 187.647 104.604 188.01C104.258 188.368 103.858 188.678 103.405 188.939ZM108.449 182.249V185.915L106.924 186.792V180.449L108.378 179.614V180.733L108.442 180.696C108.564 180.257 108.768 179.848 109.055 179.469C109.341 179.086 109.688 178.778 110.096 178.544C110.478 178.324 110.811 178.229 111.095 178.259C111.379 178.288 111.6 178.436 111.758 178.704C111.915 178.968 111.994 179.347 111.994 179.84V183.878L110.469 184.755V181.03C110.471 180.641 110.385 180.387 110.211 180.27C110.037 180.15 109.797 180.178 109.491 180.353C109.286 180.471 109.105 180.626 108.947 180.819C108.792 181.01 108.67 181.228 108.582 181.475C108.496 181.717 108.452 181.975 108.449 182.249ZM118.449 173.837V175.156L115.142 177.056V175.737L118.449 173.837ZM115.893 173.789L117.416 172.914V178.817C117.416 178.979 117.437 179.093 117.48 179.159C117.523 179.222 117.582 179.25 117.659 179.242C117.737 179.232 117.828 179.198 117.93 179.139C118.002 179.098 118.073 179.05 118.145 178.995C118.216 178.938 118.271 178.894 118.309 178.864L118.549 180.033C118.472 180.104 118.365 180.198 118.227 180.313C118.089 180.431 117.921 180.551 117.723 180.672C117.356 180.9 117.034 181.028 116.758 181.058C116.484 181.086 116.271 181.008 116.118 180.824C115.966 180.639 115.891 180.339 115.893 179.923V173.789ZM121.883 178.319C121.319 178.643 120.833 178.791 120.425 178.761C120.02 178.727 119.708 178.53 119.489 178.17C119.269 177.806 119.16 177.291 119.16 176.623C119.16 175.972 119.269 175.337 119.489 174.719C119.708 174.101 120.016 173.541 120.414 173.037C120.815 172.532 121.284 172.125 121.823 171.815C122.185 171.607 122.522 171.481 122.834 171.436C123.149 171.387 123.423 171.429 123.656 171.561C123.892 171.692 124.075 171.922 124.206 172.251C124.338 172.577 124.403 173.009 124.403 173.548V174.03L119.767 176.694V175.606L122.97 173.766C122.97 173.513 122.922 173.316 122.827 173.176C122.732 173.035 122.599 172.959 122.43 172.946C122.263 172.929 122.069 172.985 121.848 173.112C121.616 173.245 121.412 173.424 121.233 173.651C121.056 173.873 120.918 174.116 120.818 174.38C120.718 174.641 120.667 174.897 120.665 175.148V176.183C120.665 176.496 120.715 176.738 120.815 176.909C120.917 177.078 121.061 177.171 121.247 177.188C121.433 177.205 121.653 177.14 121.908 176.993C122.077 176.896 122.232 176.78 122.373 176.644C122.514 176.508 122.634 176.356 122.734 176.189C122.834 176.022 122.91 175.843 122.963 175.654L124.371 174.951C124.299 175.383 124.153 175.808 123.931 176.226C123.712 176.641 123.429 177.029 123.081 177.391C122.735 177.749 122.336 178.058 121.883 178.319ZM125.397 176.176V169.844L126.873 168.995V170.1L126.93 170.067C127.03 169.617 127.198 169.223 127.434 168.887C127.67 168.548 127.941 168.291 128.249 168.114C128.325 168.07 128.407 168.028 128.495 167.989C128.584 167.949 128.661 167.92 128.728 167.9V169.459C128.656 169.475 128.557 169.51 128.431 169.563C128.305 169.617 128.189 169.673 128.084 169.734C127.86 169.862 127.66 170.034 127.484 170.248C127.31 170.458 127.172 170.691 127.069 170.948C126.969 171.203 126.919 171.46 126.919 171.718V175.301L125.397 176.176Z" fill="#BA68C8"/>
<path d="M204.834 76.986C204.862 77.4608 205.002 77.9222 205.243 78.3321C205.484 78.7421 205.819 79.089 206.22 79.344C206.988 79.776 207.606 79.422 207.606 78.558C207.578 78.0832 207.438 77.6218 207.197 77.2119C206.956 76.8019 206.621 76.4551 206.22 76.2C205.458 75.768 204.834 76.116 204.834 76.986Z" fill="#455A64"/>
<path d="M186.252 82.572C185.032 82.5314 183.844 82.1758 182.802 81.54L178.404 79.05C178.367 79.032 178.335 79.0067 178.308 78.9756C178.282 78.9446 178.262 78.9085 178.25 78.8695C178.238 78.8306 178.234 78.7896 178.238 78.749C178.243 78.7085 178.255 78.6692 178.275 78.6337C178.295 78.5982 178.322 78.5671 178.355 78.5424C178.387 78.5176 178.424 78.4998 178.464 78.4899C178.503 78.48 178.545 78.4783 178.585 78.4848C178.625 78.4914 178.664 78.5061 178.698 78.528L183.096 81.018C184.998 82.092 186.756 82.266 188.058 81.51C189.36 80.754 190.038 79.2 190.038 77.094C190.038 74.772 190.848 73.02 192.312 72.162C193.776 71.304 195.786 71.466 197.874 72.648L204.984 76.674C205.052 76.7142 205.102 76.779 205.123 76.8551C205.144 76.9311 205.135 77.0124 205.098 77.082C205.059 77.1511 204.994 77.2019 204.918 77.2233C204.841 77.2447 204.759 77.2349 204.69 77.196L197.58 73.2C195.684 72.126 193.92 71.952 192.618 72.714C191.316 73.476 190.638 75.024 190.638 77.124C190.638 79.452 189.828 81.204 188.364 82.056C187.718 82.4125 186.989 82.5906 186.252 82.572Z" fill="#455A64"/>
<path d="M176.586 77.706C176.607 78.0897 176.72 78.4627 176.915 78.7937C177.111 79.1247 177.382 79.4039 177.708 79.608C178.308 79.962 178.83 79.674 178.83 78.972C178.809 78.5883 178.696 78.2153 178.501 77.8843C178.306 77.5533 178.034 77.274 177.708 77.07C177.09 76.716 176.586 77.004 176.586 77.706Z" fill="#455A64"/>
<path d="M247.554 71.328L218.154 54.684C217.845 54.4573 217.472 54.3351 217.089 54.3351C216.706 54.3351 216.333 54.4573 216.024 54.684L213.48 56.436L215.214 58.578V89.556C215.214 91.722 216.534 94.236 218.154 95.178L246.816 111.378L246.948 113.682L249.624 111.846C249.933 111.558 250.171 111.204 250.321 110.81C250.47 110.415 250.528 109.992 250.488 109.572V76.95C250.5 74.784 249.18 72.27 247.554 71.328Z" fill="#0698EC"/>
<path opacity="0.3" d="M247.554 71.328L218.154 54.684C217.845 54.4573 217.472 54.3351 217.089 54.3351C216.706 54.3351 216.333 54.4573 216.024 54.684L213.48 56.436L215.214 58.578V89.556C215.214 91.722 216.534 94.236 218.154 95.178L246.816 111.378L246.948 113.682L249.624 111.846C249.933 111.558 250.171 111.204 250.321 110.81C250.47 110.415 250.528 109.992 250.488 109.572V76.95C250.5 74.784 249.18 72.27 247.554 71.328Z" fill="black"/>
<path d="M245.058 113.538L215.658 96.894C214.032 95.958 212.718 93.438 212.718 91.272V58.632C212.718 56.46 214.032 55.464 215.658 56.406L245.058 73.05C246.684 73.986 247.998 76.506 247.998 78.672V111.318C247.998 113.484 246.684 114.48 245.058 113.538Z" fill="#0698EC"/>
<path d="M238.884 85.29C238.817 85.291 238.752 85.2697 238.699 85.2294C238.646 85.1892 238.607 85.1324 238.59 85.068C237.963 82.7531 236.995 80.5448 235.716 78.516C235.673 78.4491 235.659 78.368 235.675 78.2904C235.692 78.2128 235.739 78.145 235.806 78.102C235.839 78.0802 235.877 78.0654 235.916 78.0585C235.955 78.0515 235.995 78.0526 236.034 78.0615C236.072 78.0705 236.109 78.0872 236.141 78.1107C236.173 78.1341 236.2 78.1638 236.22 78.198C237.533 80.2764 238.528 82.5394 239.172 84.912C239.191 84.9891 239.18 85.0705 239.141 85.1396C239.102 85.2087 239.038 85.2603 238.962 85.284L238.884 85.29Z" fill="white"/>
<path d="M239.556 91.392C239.476 91.3859 239.401 91.3484 239.349 91.2878C239.296 91.2272 239.269 91.1482 239.274 91.068C239.274 90.75 239.31 90.414 239.31 90.072C239.307 89.0462 239.217 88.0225 239.04 87.012C239.026 86.9324 239.045 86.8508 239.092 86.7849C239.138 86.7191 239.209 86.6745 239.289 86.661C239.369 86.6475 239.45 86.6661 239.516 86.7128C239.582 86.7595 239.626 86.8304 239.64 86.91C239.823 87.9541 239.918 89.0119 239.922 90.072C239.922 90.426 239.922 90.774 239.886 91.11C239.883 91.1502 239.872 91.1895 239.854 91.2254C239.836 91.2614 239.81 91.2934 239.78 91.3196C239.749 91.3459 239.713 91.3657 239.675 91.3782C239.637 91.3906 239.596 91.3953 239.556 91.392Z" fill="white"/>
<path d="M221.202 81.432C221.128 81.4322 221.057 81.4046 221.002 81.3545C220.948 81.3045 220.914 81.2357 220.908 81.162C220.86 80.64 220.836 80.118 220.836 79.614C220.836 76.704 221.622 74.304 223.05 72.846C223.077 72.8181 223.11 72.7959 223.146 72.7807C223.182 72.7656 223.221 72.7578 223.26 72.7578C223.299 72.7578 223.338 72.7656 223.374 72.7807C223.41 72.7959 223.443 72.8181 223.47 72.846C223.498 72.8739 223.52 72.9071 223.536 72.9436C223.551 72.9802 223.559 73.0194 223.559 73.059C223.559 73.0986 223.551 73.1378 223.536 73.1744C223.52 73.2109 223.498 73.2441 223.47 73.272C222.156 74.616 221.43 76.872 221.43 79.62C221.43 80.106 221.43 80.61 221.496 81.114C221.5 81.1531 221.496 81.1926 221.485 81.2303C221.474 81.2679 221.455 81.3029 221.429 81.3331C221.404 81.3633 221.373 81.3881 221.338 81.4062C221.303 81.4242 221.265 81.435 221.226 81.438L221.202 81.432Z" fill="white"/>
<path d="M234.474 76.578C234.429 76.5785 234.385 76.5691 234.345 76.5504C234.304 76.5317 234.269 76.5043 234.24 76.47C233.128 75.0545 231.763 73.8581 230.214 72.942C228.222 71.814 226.35 71.598 224.814 72.342C224.742 72.3749 224.661 72.3782 224.586 72.3512C224.512 72.3243 224.452 72.2692 224.418 72.198C224.401 72.1622 224.391 72.1233 224.389 72.0837C224.387 72.044 224.393 72.0043 224.406 71.9669C224.419 71.9295 224.44 71.8951 224.467 71.8658C224.494 71.8365 224.526 71.8127 224.562 71.796C226.29 70.998 228.348 71.196 230.52 72.45C232.134 73.405 233.558 74.6499 234.72 76.122C234.77 76.1834 234.793 76.262 234.785 76.3406C234.778 76.4193 234.739 76.4916 234.678 76.542C234.616 76.5778 234.544 76.5906 234.474 76.578Z" fill="white"/>
<path d="M223.272 81.666C223.194 81.6661 223.12 81.6361 223.064 81.5824C223.008 81.5287 222.975 81.4555 222.972 81.378C222.972 81.192 222.972 81.006 222.972 80.82C222.972 78.69 223.494 76.95 224.484 75.792C224.509 75.7616 224.54 75.7365 224.574 75.7181C224.609 75.6998 224.647 75.6886 224.686 75.6853C224.726 75.6819 224.765 75.6865 224.802 75.6986C224.84 75.7108 224.874 75.7303 224.904 75.756C224.964 75.8083 225.002 75.8821 225.009 75.9617C225.015 76.0413 224.991 76.1203 224.94 76.182C224.046 77.232 223.572 78.834 223.572 80.82C223.572 80.994 223.572 81.174 223.572 81.348C223.574 81.3874 223.567 81.4267 223.554 81.4637C223.54 81.5008 223.519 81.5347 223.493 81.5637C223.466 81.5927 223.434 81.6161 223.398 81.6326C223.362 81.6492 223.323 81.6585 223.284 81.66L223.272 81.666Z" fill="white"/>
<path d="M225.6 75.486C225.534 75.4866 225.47 75.4655 225.417 75.4259C225.364 75.3863 225.326 75.3303 225.308 75.2668C225.29 75.2032 225.294 75.1356 225.319 75.0744C225.343 75.0131 225.387 74.9617 225.444 74.928C226.213 74.4709 227.113 74.285 228 74.4C228.079 74.4076 228.151 74.4459 228.202 74.5065C228.252 74.5672 228.277 74.6453 228.27 74.724C228.261 74.8031 228.221 74.8755 228.16 74.9259C228.098 74.9763 228.019 75.0008 227.94 74.994C227.184 74.9039 226.42 75.0686 225.768 75.462C225.715 75.4842 225.657 75.4925 225.6 75.486Z" fill="white"/>
<path d="M238.884 95.25C238.824 95.2501 238.765 95.2325 238.715 95.1994C238.665 95.1664 238.626 95.1193 238.602 95.064L238.254 94.194C237.557 92.5116 237.188 90.7111 237.168 88.89C237.168 83.802 234.048 77.916 230.214 75.744C230.18 75.7247 230.15 75.6988 230.125 75.6677C230.101 75.6365 230.084 75.6009 230.074 75.5629C230.064 75.5248 230.061 75.4851 230.067 75.4461C230.072 75.4072 230.086 75.3697 230.106 75.336C230.125 75.3012 230.15 75.2705 230.181 75.2458C230.212 75.2211 230.248 75.2029 230.286 75.1922C230.324 75.1816 230.364 75.1787 230.403 75.1838C230.442 75.189 230.48 75.2019 230.514 75.222C234.51 77.49 237.768 83.622 237.768 88.866C237.783 90.6175 238.138 92.3494 238.812 93.966L239.16 94.836C239.176 94.8722 239.184 94.9111 239.184 94.9505C239.184 94.9899 239.177 95.0289 239.162 95.0653C239.146 95.1017 239.124 95.1347 239.096 95.1623C239.068 95.1899 239.035 95.2115 238.998 95.226C238.962 95.242 238.923 95.2502 238.884 95.25Z" fill="white"/>
<path d="M225.108 91.8C225.046 91.8 224.986 91.7809 224.936 91.7455C224.885 91.7101 224.847 91.66 224.826 91.602C223.857 88.7669 223.23 85.826 222.96 82.842C222.957 82.8021 222.961 82.762 222.974 82.7239C222.986 82.6859 223.006 82.6507 223.033 82.6206C223.059 82.5904 223.091 82.5657 223.127 82.5481C223.163 82.5305 223.202 82.5203 223.242 82.518C223.321 82.5161 223.397 82.5442 223.456 82.5965C223.515 82.6488 223.552 82.7215 223.56 82.8C223.816 85.7274 224.42 88.6138 225.36 91.398C225.374 91.435 225.381 91.4744 225.379 91.514C225.378 91.5536 225.369 91.5925 225.352 91.6283C225.335 91.6642 225.311 91.6963 225.282 91.7227C225.252 91.7491 225.218 91.7693 225.18 91.782C225.157 91.7911 225.133 91.7972 225.108 91.8Z" fill="white"/>
<path d="M237.12 97.272C237.059 97.2733 236.999 97.2555 236.948 97.2211C236.898 97.1867 236.859 97.1374 236.838 97.08L236.034 94.92C235.223 92.8118 234.787 90.5783 234.744 88.32V85.962C234.744 83.16 232.734 79.746 230.262 78.348C229.11 77.694 228.042 77.58 227.262 78.036C226.482 78.492 226.062 79.434 226.062 80.712V82.8C226.128 86.1919 226.807 89.5439 228.066 92.694L229.056 95.274C229.07 95.311 229.077 95.3505 229.076 95.3902C229.076 95.4299 229.067 95.4691 229.051 95.5054C229.034 95.5417 229.011 95.5744 228.982 95.6016C228.953 95.6288 228.919 95.65 228.882 95.664C228.808 95.6913 228.726 95.6884 228.654 95.6558C228.582 95.6233 228.526 95.5637 228.498 95.49L227.508 92.91C226.229 89.6894 225.542 86.2646 225.48 82.8V80.718C225.48 79.218 226.002 78.084 226.962 77.526C227.922 76.968 229.212 77.07 230.562 77.832C233.196 79.326 235.362 82.974 235.362 85.968V88.326C235.403 90.5129 235.828 92.6756 236.616 94.716L237.414 96.87C237.428 96.9066 237.435 96.9457 237.434 96.985C237.433 97.0243 237.424 97.063 237.408 97.0988C237.392 97.1346 237.369 97.1667 237.34 97.1934C237.311 97.2201 237.277 97.2407 237.24 97.254L237.12 97.272Z" fill="white"/>
<path d="M234.474 98.13C234.41 98.1304 234.347 98.1102 234.295 98.0724C234.244 98.0346 234.205 97.9812 234.186 97.92L233.766 96.504C233.001 94.0186 232.597 91.4363 232.566 88.836V85.2C232.519 84.3764 232.278 83.5757 231.86 82.8641C231.443 82.1526 230.862 81.5506 230.166 81.108C229.949 80.949 229.694 80.8497 229.426 80.8202C229.159 80.7908 228.888 80.8321 228.642 80.94C228.431 81.093 228.265 81.299 228.159 81.5372C228.054 81.7753 228.013 82.0371 228.042 82.296C228.042 86.352 229.278 91.026 231.516 95.46L232.362 97.134C232.38 97.1695 232.39 97.2081 232.393 97.2476C232.396 97.2871 232.391 97.3269 232.378 97.3645C232.366 97.4021 232.346 97.4368 232.32 97.4668C232.294 97.4967 232.262 97.5213 232.227 97.539C232.192 97.5567 232.153 97.5673 232.113 97.5701C232.074 97.5729 232.034 97.5679 231.997 97.5554C231.959 97.5428 231.924 97.523 231.894 97.4971C231.864 97.4711 231.84 97.4395 231.822 97.404L230.982 95.73C228.696 91.212 227.442 86.442 227.442 82.296C227.408 81.9321 227.473 81.5659 227.629 81.2355C227.785 80.9051 228.027 80.6228 228.33 80.418C228.666 80.2558 229.04 80.1858 229.412 80.2153C229.784 80.2449 230.142 80.3728 230.448 80.586C231.235 81.0843 231.891 81.7626 232.364 82.5649C232.837 83.3672 233.112 84.2704 233.166 85.2V88.848C233.193 91.3913 233.587 93.9173 234.336 96.348L234.756 97.758C234.768 97.7958 234.772 97.8356 234.768 97.8751C234.764 97.9145 234.752 97.9527 234.733 97.9875C234.714 98.0222 234.688 98.0528 234.657 98.0773C234.626 98.1018 234.59 98.1197 234.552 98.13C234.526 98.135 234.5 98.135 234.474 98.13Z" fill="white"/>
<path d="M231.108 91.8C231.04 91.7992 230.974 91.7758 230.921 91.7334C230.868 91.6911 230.83 91.6321 230.814 91.566L230.538 90.282C230.274 89.0474 230.142 87.7884 230.142 86.526V83.148C230.142 83.0684 230.174 82.9921 230.23 82.9359C230.286 82.8796 230.362 82.848 230.442 82.848C230.522 82.848 230.598 82.8796 230.654 82.9359C230.71 82.9921 230.742 83.0684 230.742 83.148V86.526C230.746 87.736 230.874 88.9424 231.126 90.126L231.402 91.41C231.411 91.4482 231.412 91.4879 231.405 91.5265C231.398 91.5652 231.384 91.6021 231.363 91.6351C231.341 91.6681 231.314 91.6965 231.281 91.7186C231.249 91.7408 231.212 91.7562 231.174 91.764L231.108 91.8Z" fill="white"/>
<path d="M221.856 85.29C221.782 85.2891 221.71 85.2611 221.655 85.2115C221.6 85.1618 221.565 85.0937 221.556 85.02L221.382 83.268C221.375 83.1887 221.4 83.1098 221.45 83.0482C221.5 82.9866 221.573 82.9471 221.652 82.938C221.692 82.933 221.732 82.9361 221.77 82.9471C221.808 82.9582 221.844 82.9769 221.875 83.0021C221.906 83.0274 221.931 83.0587 221.95 83.0941C221.968 83.1295 221.979 83.1682 221.982 83.208L222.156 84.96C222.16 84.9994 222.156 85.0393 222.145 85.0773C222.134 85.1153 222.115 85.1506 222.09 85.1813C222.065 85.212 222.034 85.2374 221.999 85.2561C221.964 85.2747 221.925 85.2862 221.886 85.29H221.856Z" fill="white"/>
<path d="M247.554 126.924L218.154 110.274C217.845 110.047 217.472 109.925 217.089 109.925C216.706 109.925 216.333 110.047 216.024 110.274L213.48 112.026L215.214 114.168V145.146C215.214 147.312 216.534 149.826 218.154 150.768L246.816 166.968L246.948 169.272L249.624 167.442C249.933 167.153 250.171 166.798 250.321 166.402C250.471 166.007 250.528 165.583 250.488 165.162V132.522C250.5 130.374 249.18 127.86 247.554 126.924Z" fill="#0698EC"/>
<path opacity="0.3" d="M247.554 126.924L218.154 110.274C217.845 110.047 217.472 109.925 217.089 109.925C216.706 109.925 216.333 110.047 216.024 110.274L213.48 112.026L215.214 114.168V145.146C215.214 147.312 216.534 149.826 218.154 150.768L246.816 166.968L246.948 169.272L249.624 167.442C249.933 167.153 250.171 166.798 250.321 166.402C250.471 166.007 250.528 165.583 250.488 165.162V132.522C250.5 130.374 249.18 127.86 247.554 126.924Z" fill="black"/>
<path d="M245.058 169.128L215.658 152.484C214.032 151.548 212.718 149.034 212.718 146.862V114.222C212.718 112.056 214.032 111.06 215.658 111.996L245.058 128.64C246.684 129.582 247.998 132.096 247.998 134.262V166.908C247.998 169.074 246.684 170.07 245.058 169.128Z" fill="#0698EC"/>
<path d="M219.27 123.33C219.19 123.33 219.114 123.298 219.058 123.242C219.002 123.186 218.97 123.11 218.97 123.03V121.008C218.968 120.807 219.02 120.61 219.12 120.436C219.221 120.261 219.365 120.117 219.54 120.018C219.721 119.909 219.929 119.851 220.14 119.851C220.351 119.851 220.559 119.909 220.74 120.018L222.858 121.218C222.928 121.257 222.98 121.322 223.002 121.399C223.024 121.476 223.014 121.559 222.975 121.629C222.936 121.699 222.871 121.751 222.794 121.773C222.717 121.795 222.634 121.785 222.564 121.746L220.44 120.546C220.349 120.493 220.245 120.466 220.14 120.466C220.035 120.466 219.931 120.493 219.84 120.546C219.757 120.592 219.688 120.66 219.641 120.743C219.593 120.825 219.569 120.919 219.57 121.014V123.036C219.568 123.115 219.536 123.189 219.48 123.244C219.424 123.299 219.349 123.33 219.27 123.33Z" fill="white"/>
<path d="M222.678 151.152C222.628 151.152 222.579 151.139 222.534 151.116L220.554 149.994C220.081 149.721 219.688 149.329 219.415 148.856C219.142 148.383 218.999 147.846 219 147.3V145.434C219 145.354 219.032 145.278 219.088 145.222C219.144 145.166 219.22 145.134 219.3 145.134C219.38 145.134 219.456 145.166 219.512 145.222C219.568 145.278 219.6 145.354 219.6 145.434V147.3C219.602 147.743 219.721 148.177 219.946 148.559C220.17 148.94 220.492 149.255 220.878 149.472L222.858 150.594C222.914 150.627 222.958 150.678 222.983 150.739C223.007 150.8 223.012 150.867 222.995 150.93C222.978 150.993 222.94 151.049 222.889 151.089C222.837 151.129 222.773 151.151 222.708 151.152H222.678Z" fill="white"/>
<path d="M240.6 161.178C240.389 161.182 240.182 161.128 240 161.022L237.882 159.822C237.813 159.783 237.762 159.718 237.741 159.642C237.719 159.565 237.729 159.483 237.768 159.414C237.808 159.346 237.873 159.296 237.949 159.275C238.025 159.254 238.106 159.263 238.176 159.3L240.3 160.5C240.391 160.553 240.495 160.58 240.6 160.58C240.705 160.58 240.809 160.553 240.9 160.5C240.983 160.454 241.052 160.386 241.099 160.303C241.147 160.221 241.171 160.127 241.17 160.032V158.01C241.17 157.93 241.202 157.854 241.258 157.798C241.314 157.742 241.39 157.71 241.47 157.71C241.55 157.71 241.626 157.742 241.682 157.798C241.738 157.854 241.77 157.93 241.77 158.01V160.032C241.771 160.232 241.719 160.429 241.619 160.602C241.519 160.775 241.374 160.918 241.2 161.016C241.018 161.124 240.811 161.18 240.6 161.178Z" fill="white"/>
<path d="M241.458 135.9C241.378 135.9 241.302 135.868 241.246 135.812C241.19 135.756 241.158 135.68 241.158 135.6V133.734C241.156 133.292 241.037 132.858 240.813 132.478C240.588 132.097 240.266 131.783 239.88 131.568L237.9 130.446C237.83 130.406 237.78 130.34 237.758 130.262C237.737 130.185 237.747 130.102 237.786 130.032C237.805 129.998 237.831 129.968 237.862 129.943C237.893 129.919 237.929 129.902 237.967 129.892C238.005 129.882 238.045 129.879 238.084 129.885C238.123 129.89 238.16 129.904 238.194 129.924L240.174 131.046C240.652 131.314 241.05 131.704 241.329 132.176C241.607 132.649 241.755 133.186 241.758 133.734V135.6C241.758 135.68 241.726 135.756 241.67 135.812C241.614 135.868 241.538 135.9 241.458 135.9Z" fill="white"/>
<path d="M221.928 133.422C221.995 136.829 222.483 140.215 223.38 143.502C225.66 152.106 234.654 157.392 237.126 151.566C238.287 148.7 238.857 145.628 238.8 142.536C238.8 137.256 235.02 130.836 230.364 128.196C225.6 125.502 221.862 128.004 221.928 133.422Z" fill="white"/>
<path d="M230.064 138.228V143.88L227.61 142.044L230.064 138.228Z" fill="#E0E0E0"/>
<path d="M225.498 134.85C225.514 135.127 225.595 135.396 225.735 135.636C225.875 135.876 226.069 136.079 226.302 136.23C226.752 136.482 227.112 136.278 227.112 135.768C227.096 135.491 227.015 135.222 226.874 134.983C226.733 134.744 226.537 134.542 226.302 134.394C225.858 134.142 225.498 134.346 225.498 134.85Z" fill="#E0E0E0"/>
<path d="M233.01 139.158C233.027 139.435 233.109 139.703 233.25 139.942C233.391 140.181 233.586 140.383 233.82 140.532C234.27 140.784 234.63 140.58 234.63 140.076C234.614 139.798 234.533 139.528 234.392 139.288C234.251 139.048 234.055 138.845 233.82 138.696C233.4 138.444 233.01 138.648 233.01 139.158Z" fill="#E0E0E0"/>
<path d="M229.254 146.646L231.996 146.184C231.996 146.184 231.414 149.112 229.254 146.646Z" fill="#E0E0E0"/>
<path d="M204.834 129.432C204.863 129.906 205.003 130.366 205.244 130.775C205.485 131.184 205.819 131.53 206.22 131.784C206.988 132.222 207.606 131.868 207.606 131.004C207.578 130.529 207.438 130.068 207.197 129.658C206.956 129.248 206.621 128.901 206.22 128.646C205.458 128.208 204.834 128.562 204.834 129.432Z" fill="#455A64"/>
<path d="M204.888 130.086C204.836 130.086 204.785 130.073 204.738 130.05L197.634 126C193.476 123.648 190.092 117.894 190.092 113.184C190.092 108.66 186.846 103.146 182.856 100.884L178.404 98.364C178.335 98.3249 178.284 98.26 178.263 98.1836C178.241 98.1071 178.251 98.0252 178.29 97.956C178.309 97.9212 178.334 97.8905 178.365 97.8658C178.396 97.8411 178.432 97.8229 178.47 97.8122C178.508 97.8016 178.548 97.7987 178.587 97.8038C178.626 97.809 178.664 97.8219 178.698 97.842L183.15 100.362C187.308 102.72 190.692 108.468 190.692 113.184C190.692 117.702 193.938 123.216 197.928 125.478L205.038 129.51C205.107 129.549 205.158 129.614 205.179 129.69C205.201 129.767 205.191 129.849 205.152 129.918C205.127 129.967 205.089 130.008 205.043 130.037C204.996 130.067 204.943 130.084 204.888 130.086Z" fill="#455A64"/>
<path d="M176.586 96.924C176.609 97.308 176.723 97.6812 176.918 98.0128C177.113 98.3444 177.384 98.6252 177.708 98.832C178.308 99.18 178.83 98.898 178.83 98.196C178.807 97.812 178.693 97.4388 178.498 97.1072C178.303 96.7756 178.032 96.4948 177.708 96.288C177.09 95.94 176.586 96.222 176.586 96.924Z" fill="#455A64"/>
<path d="M185.028 151.92C185.028 151.92 189.402 151.626 191.88 157.704C193.422 161.484 195.3 167.304 196.5 171.204C196.864 172.382 196.873 173.641 196.525 174.823C196.177 176.006 195.488 177.059 194.544 177.852L186.918 184.254L184.2 179.292C185.785 177.177 187.528 175.185 189.414 173.334L184.2 157.704L185.028 151.92Z" fill="#FFA8A7"/>
<path d="M187.044 170.484C187.044 170.484 193.992 171.402 195.726 166.044C195.726 166.044 192.726 158.202 191.382 155.598C190.038 152.994 187.23 151.098 185.028 151.92C182.826 152.742 187.044 170.484 187.044 170.484Z" fill="#0698EC"/>
<path opacity="0.4" d="M187.044 170.484C187.044 170.484 193.992 171.402 195.726 166.044C195.726 166.044 192.726 158.202 191.382 155.598C190.038 152.994 187.23 151.098 185.028 151.92C182.826 152.742 187.044 170.484 187.044 170.484Z" fill="white"/>
<path d="M182.4 240.84C182.4 240.84 179.1 238.014 177.816 237.882C176.532 237.75 174.312 239.946 176.19 243.756C176.712 244.818 178.836 245.964 180.162 247.998C181.488 250.032 182.676 251.562 184.71 251.28C186.744 250.998 187.008 249.858 186.876 248.532C186.704 247.319 186.462 246.117 186.15 244.932L182.4 240.84Z" fill="#37474F"/>
<path d="M184.8 250.674C182.706 250.962 181.476 249.384 180.108 247.29C178.74 245.196 176.556 244.008 176.016 242.916C175.8 242.479 175.623 242.023 175.488 241.554C175.588 242.322 175.819 243.067 176.172 243.756C176.694 244.818 178.818 245.964 180.144 247.998C181.47 250.032 182.658 251.562 184.692 251.28C186.252 251.07 186.768 250.344 186.864 249.42C186.6 250.044 186.03 250.512 184.8 250.674Z" fill="#263238"/>
<path d="M180.648 244.476C180.595 244.477 180.543 244.462 180.498 244.434C180.461 244.414 180.428 244.388 180.401 244.355C180.374 244.323 180.354 244.286 180.342 244.245C180.33 244.205 180.326 244.163 180.33 244.121C180.334 244.08 180.346 244.039 180.366 244.002C181.038 242.812 182.153 241.936 183.468 241.566C183.549 241.554 183.631 241.572 183.699 241.618C183.767 241.664 183.814 241.734 183.833 241.814C183.851 241.894 183.838 241.978 183.797 242.048C183.756 242.119 183.69 242.172 183.612 242.196C182.48 242.526 181.519 243.281 180.93 244.302C180.903 244.354 180.863 244.397 180.813 244.428C180.763 244.458 180.706 244.475 180.648 244.476Z" fill="#EBEBEB"/>
<path d="M179.4 243.336C179.348 243.336 179.297 243.323 179.25 243.3C179.213 243.28 179.18 243.254 179.153 243.221C179.126 243.189 179.106 243.152 179.094 243.112C179.082 243.071 179.077 243.029 179.082 242.987C179.086 242.946 179.098 242.905 179.118 242.868C179.45 242.277 179.896 241.758 180.429 241.34C180.962 240.922 181.573 240.613 182.226 240.432C182.269 240.41 182.317 240.397 182.365 240.396C182.414 240.395 182.462 240.405 182.506 240.425C182.55 240.446 182.589 240.476 182.62 240.514C182.65 240.551 182.672 240.596 182.683 240.643C182.694 240.69 182.693 240.739 182.682 240.787C182.671 240.834 182.65 240.878 182.619 240.916C182.588 240.953 182.549 240.983 182.505 241.003C182.461 241.024 182.413 241.033 182.364 241.032C181.232 241.366 180.272 242.122 179.682 243.144C179.659 243.2 179.62 243.248 179.57 243.282C179.519 243.316 179.461 243.335 179.4 243.336Z" fill="#EBEBEB"/>
<path d="M178.002 242.202C177.95 242.202 177.899 242.189 177.852 242.166C177.777 242.125 177.72 242.056 177.695 241.974C177.671 241.892 177.68 241.804 177.72 241.728C178.394 240.539 179.511 239.665 180.828 239.298C180.869 239.288 180.912 239.287 180.953 239.294C180.995 239.3 181.034 239.315 181.07 239.338C181.106 239.36 181.137 239.389 181.161 239.424C181.186 239.458 181.203 239.497 181.212 239.538C181.23 239.622 181.214 239.709 181.168 239.781C181.122 239.853 181.049 239.903 180.966 239.922C179.834 240.256 178.874 241.012 178.284 242.034C178.257 242.085 178.217 242.128 178.167 242.158C178.117 242.188 178.06 242.203 178.002 242.202Z" fill="#EBEBEB"/>
<path d="M164.838 250.11C164.838 250.11 160.416 248.676 159.096 249.072C157.776 249.468 156.486 252.552 159.906 255.546C160.854 256.374 163.422 256.638 165.57 258.102C167.718 259.566 169.518 260.58 171.414 259.47C173.31 258.36 173.154 257.07 172.812 255.702C172.386 253.938 172.038 252.654 172.038 252.654L164.838 250.11Z" fill="#37474F"/>
<path d="M171.27 258.828C169.32 259.974 167.454 258.924 165.27 257.412C163.086 255.9 160.41 255.612 159.432 254.778C159.036 254.434 158.673 254.054 158.346 253.644C158.76 254.365 159.296 255.008 159.93 255.546C160.878 256.374 163.446 256.638 165.594 258.102C167.742 259.566 169.542 260.58 171.438 259.47C172.884 258.624 173.1 257.67 172.818 256.74C172.8 257.466 172.392 258.168 171.27 258.828Z" fill="#263238"/>
<path d="M163.8 254.196H163.77C163.685 254.187 163.607 254.145 163.553 254.078C163.499 254.012 163.474 253.927 163.482 253.842C163.656 252.398 164.396 251.081 165.54 250.182C165.574 250.158 165.612 250.14 165.653 250.13C165.694 250.121 165.736 250.119 165.777 250.126C165.818 250.133 165.858 250.147 165.893 250.169C165.929 250.191 165.96 250.22 165.984 250.254C166.034 250.323 166.054 250.41 166.04 250.494C166.027 250.578 165.981 250.654 165.912 250.704C164.923 251.501 164.279 252.649 164.112 253.908C164.105 253.986 164.069 254.059 164.011 254.112C163.954 254.165 163.878 254.195 163.8 254.196Z" fill="#EBEBEB"/>
<path d="M165.6 254.79C165.516 254.781 165.439 254.739 165.385 254.674C165.332 254.609 165.305 254.526 165.312 254.442C165.488 252.997 166.228 251.679 167.37 250.776C167.44 250.727 167.527 250.708 167.611 250.722C167.695 250.737 167.77 250.784 167.82 250.854C167.844 250.888 167.861 250.927 167.87 250.968C167.88 251.009 167.881 251.051 167.873 251.092C167.866 251.133 167.851 251.173 167.828 251.208C167.806 251.244 167.776 251.274 167.742 251.298C166.751 252.093 166.106 253.242 165.942 254.502C165.934 254.585 165.894 254.662 165.83 254.716C165.766 254.77 165.683 254.797 165.6 254.79Z" fill="#EBEBEB"/>
<path d="M162.096 253.578H162.066C161.982 253.569 161.905 253.527 161.851 253.462C161.798 253.397 161.771 253.314 161.778 253.23C161.951 251.784 162.691 250.465 163.836 249.564C163.905 249.515 163.991 249.495 164.075 249.509C164.159 249.523 164.234 249.57 164.283 249.639C164.332 249.708 164.352 249.794 164.338 249.878C164.324 249.962 164.277 250.037 164.208 250.086C163.217 250.881 162.572 252.03 162.408 253.29C162.401 253.368 162.365 253.441 162.307 253.494C162.25 253.547 162.174 253.577 162.096 253.578Z" fill="#EBEBEB"/>
<path d="M186.36 241.68C186.756 237.3 187.614 230.436 187.974 227.226C188.459 223.169 188.342 219.063 187.626 215.04C187.442 214.092 187.396 213.122 187.488 212.16C188.358 203.436 188.922 189.294 188.442 186.186L176.196 188.778C176.196 188.778 177.696 208.62 178.356 215.22C179.016 221.82 181.476 241.74 181.476 241.74C182.207 242.208 183.059 242.451 183.927 242.441C184.795 242.43 185.641 242.166 186.36 241.68Z" fill="#455A64"/>
<path d="M184.596 246.186C184.934 246.107 185.25 245.953 185.52 245.735C185.79 245.516 186.008 245.24 186.156 244.926C186.156 244.236 186.234 243.084 186.36 241.68C185.641 242.166 184.795 242.43 183.927 242.441C183.059 242.451 182.207 242.208 181.476 241.74L181.908 245.424C182.268 245.748 182.697 245.985 183.163 246.117C183.629 246.249 184.12 246.273 184.596 246.186Z" fill="#FFA8A7"/>
<path d="M172.584 249.384C173.082 242.748 174.048 229.902 174.174 227.88C174.268 225.649 174.127 223.415 173.754 221.214C173.537 220.024 173.537 218.804 173.754 217.614L179.154 187.746L164.352 187.53L163.386 218.82C163.375 219.221 163.391 219.622 163.434 220.02L166.572 249.186C166.572 249.186 169.632 251.76 172.584 249.384Z" fill="#455A64"/>
<path d="M170.112 254.856C170.572 254.803 171.012 254.636 171.391 254.369C171.771 254.103 172.077 253.747 172.284 253.332L172.584 249.384C169.632 251.784 166.584 249.198 166.584 249.198L167.052 253.566C167.052 253.566 167.736 255.078 170.112 254.856Z" fill="#FFA8A7"/>
<path d="M171.192 153.912L167.7 155.112L163.944 172.878L164.13 188.628C164.13 188.628 166.812 190.77 177.288 190.77C183.168 190.77 187.002 188.55 188.442 186.192L187.5 176.676C187.5 176.676 188.442 167.298 188.442 162.66C188.442 158.022 188.652 154.224 185.028 151.926L181.8 152.196L171.192 153.912Z" fill="#0698EC"/>
<path opacity="0.2" d="M171.192 153.912L167.7 155.112L163.944 172.878L164.13 188.628C164.13 188.628 166.812 190.77 177.288 190.77C183.168 190.77 187.002 188.55 188.442 186.192L187.5 176.676C187.5 176.676 188.442 167.298 188.442 162.66C188.442 158.022 188.652 154.224 185.028 151.926L181.8 152.196L171.192 153.912Z" fill="white"/>
<path d="M167.4 138.642L165.654 142.104C165.629 142.154 165.615 142.209 165.613 142.265C165.611 142.322 165.621 142.378 165.643 142.429C165.664 142.481 165.697 142.528 165.738 142.566C165.78 142.604 165.829 142.633 165.882 142.65L167.952 143.346L167.4 138.642Z" fill="#F28F8F"/>
<path d="M169.8 132.84C169.8 132.84 167.148 134.268 167.148 142.44C167.148 146.946 167.46 149.82 169.8 149.64C172.14 149.46 178.884 148.578 178.884 148.578V132.84H169.8Z" fill="#FFA8A7"/>
<path d="M169.8 149.67C170.622 149.604 171.99 149.454 173.4 149.286V148.452C172.113 149.001 170.769 149.404 169.392 149.652C169.527 149.668 169.664 149.674 169.8 149.67Z" fill="#F28F8F"/>
<path d="M173.04 148.104V153.246H180.078V146.022L173.04 148.104Z" fill="#FFA8A7"/>
<path d="M173.04 151.29C173.04 151.29 175.572 152.19 177.6 151.836C179.628 151.482 180.078 150.246 180.078 150.246C180.078 150.246 180.738 150.192 181.8 152.19C181.387 152.936 180.795 153.569 180.078 154.032C179.361 154.495 178.541 154.773 177.69 154.842C175.483 154.983 173.271 154.667 171.192 153.912C171.192 153.912 172.2 151.032 173.04 151.29Z" fill="#0698EC"/>
<path opacity="0.4" d="M173.04 151.29C173.04 151.29 175.572 152.19 177.6 151.836C179.628 151.482 180.078 150.246 180.078 150.246C180.078 150.246 180.738 150.192 181.8 152.19C181.387 152.936 180.795 153.569 180.078 154.032C179.361 154.495 178.541 154.773 177.69 154.842C175.483 154.983 173.271 154.667 171.192 153.912C171.192 153.912 172.2 151.032 173.04 151.29Z" fill="white"/>
<path d="M157.338 166.554L155.448 169.458C155.448 169.458 150.858 167.412 147.648 166.17C145.779 165.476 144.039 164.474 142.5 163.206C142.615 161.956 142.815 160.715 143.1 159.492C143.472 158.232 143.598 157.182 142.5 157.74C141.402 158.298 140.64 160.464 140.574 160.74C140.574 160.74 134.124 154.254 133.32 154.398C132.516 154.542 132.72 155.514 134.436 157.512L136.17 159.516C136.17 159.516 132.216 161.79 132.858 164.274C133.5 166.758 138.714 167.874 138.714 167.874C138.714 167.874 153.972 179.598 157.35 177.474C160.728 175.35 165.51 169.284 165.51 169.284L157.338 166.554Z" fill="#FFA8A7"/>
<path d="M169.086 154.65C169.086 154.65 171.906 156.966 170.07 161.754C168.234 166.542 163.548 172.326 163.548 172.326C163.548 172.326 158.64 170.796 156.744 166.83L162.936 157.14C163.375 156.45 163.971 155.873 164.674 155.456C165.378 155.039 166.17 154.794 166.986 154.74C167.574 154.704 168.27 154.674 169.086 154.65Z" fill="#0698EC"/>
<path opacity="0.4" d="M169.086 154.65C169.086 154.65 171.906 156.966 170.07 161.754C168.234 166.542 163.548 172.326 163.548 172.326C163.548 172.326 158.64 170.796 156.744 166.83L162.936 157.14C163.375 156.45 163.971 155.873 164.674 155.456C165.378 155.039 166.17 154.794 166.986 154.74C167.574 154.704 168.27 154.674 169.086 154.65Z" fill="white"/>
<path d="M168.81 128.016C168.81 128.016 166.026 127.644 165.318 129.558C164.874 130.758 166.29 131.682 166.29 131.682C166.29 131.682 164.49 133.368 167.172 133.89C167.126 134.178 167.152 134.473 167.247 134.748C167.343 135.023 167.505 135.271 167.72 135.468C167.934 135.666 168.194 135.807 168.477 135.879C168.759 135.951 169.055 135.952 169.338 135.882C169.338 135.882 169.026 137.682 171.372 138.336C171.372 138.336 170.172 141.492 172.416 141.534H174.498L173.658 143.97C173.658 143.97 175.218 147.726 180.078 147.726C180.611 146.585 181.212 145.477 181.878 144.408C182.478 143.658 185.478 139.812 185.478 136.764C185.478 133.716 184.308 131.91 182.682 131.508C182.167 130.388 181.364 129.425 180.354 128.718C178.716 127.614 175.272 126.63 173.328 127.986C173.328 127.986 171.606 125.724 170.412 125.724C169.218 125.724 168.81 126.954 168.81 128.016Z" fill="#263238"/>
<path d="M172.416 141.534C172.416 141.534 172.212 138.336 174.906 138.336C177.6 138.336 176.964 143.97 173.658 143.97L172.416 141.534Z" fill="#FFA8A7"/>
</svg>
