<svg width="300" height="300" viewBox="0 0 300 300" fill="none" xmlns="http://www.w3.org/2000/svg">
<path d="M150 288.246C224.416 288.246 284.742 253.416 284.742 210.45C284.742 167.485 224.416 132.654 150 132.654C75.5841 132.654 15.258 167.485 15.258 210.45C15.258 253.416 75.5841 288.246 150 288.246Z" fill="#F5F5F5"/>
<path d="M59.196 198.03L53.706 201.222C53.706 201.222 56.478 192.378 54.942 183.486C54.57 181.402 53.8131 179.406 52.71 177.6C52.278 176.7 48.972 171.156 51.882 168.6C54.792 166.044 61.632 171.126 61.32 184.8C61.1722 189.282 60.4585 193.727 59.196 198.03Z" fill="#2997FF"/>
<path opacity="0.3" d="M59.196 198.03L53.706 201.222C53.706 201.222 56.478 192.378 54.942 183.486C54.57 181.402 53.8131 179.406 52.71 177.6C52.278 176.7 48.972 171.156 51.882 168.6C54.792 166.044 61.632 171.126 61.32 184.8C61.1722 189.282 60.4585 193.727 59.196 198.03Z" fill="black"/>
<path d="M56.646 199.8H56.556C56.5248 199.789 56.4962 199.771 56.4718 199.749C56.4474 199.726 56.4277 199.699 56.4137 199.669C56.3998 199.639 56.3919 199.606 56.3906 199.573C56.3893 199.54 56.3945 199.507 56.406 199.476C56.406 199.416 58.47 193.734 58.362 184.59C58.254 175.446 53.514 170.688 53.466 170.64C53.4191 170.592 53.3928 170.527 53.3928 170.46C53.3928 170.393 53.4191 170.328 53.466 170.28C53.4895 170.256 53.5175 170.237 53.5484 170.224C53.5793 170.211 53.6125 170.204 53.646 170.204C53.6795 170.204 53.7127 170.211 53.7436 170.224C53.7745 170.237 53.8025 170.256 53.826 170.28C53.874 170.328 58.764 175.284 58.872 184.584C58.98 193.884 56.904 199.584 56.886 199.65C56.8644 199.695 56.8303 199.733 56.7878 199.76C56.7453 199.786 56.6961 199.8 56.646 199.8Z" fill="white"/>
<path d="M54.942 200.52L45.876 205.854C45.876 205.854 41.724 205.254 42.036 201.336C42.348 197.418 44.04 196.506 41.94 194.79C39.84 193.074 39.294 192.99 39.396 191.274C39.498 189.558 40.596 188.874 41.16 188.19C41.724 187.506 43.176 186.126 42.132 184.098C41.088 182.07 39.672 180.108 41.778 179.178C43.032 178.62 45.138 179.316 46.542 180.804C47.946 182.292 49.092 183.354 50.418 183.696C51.744 184.038 54.504 184.074 54.414 186.354C54.324 188.634 53.724 189.426 54.282 190.44C55.326 192.348 59.778 193.38 54.942 200.52Z" fill="#2997FF"/>
<path d="M51.246 202.95C51.2129 202.948 51.1805 202.939 51.1508 202.924C51.1211 202.909 51.0946 202.889 51.0729 202.864C51.0511 202.839 51.0346 202.809 51.0241 202.778C51.0137 202.746 51.0095 202.713 51.012 202.68C51.012 202.548 51.99 189.264 42.774 180.552C42.7502 180.529 42.7313 180.502 42.7184 180.471C42.7055 180.441 42.6988 180.408 42.6988 180.375C42.6988 180.342 42.7055 180.309 42.7184 180.279C42.7313 180.248 42.7502 180.221 42.774 180.198C42.8222 180.151 42.8868 180.125 42.954 180.125C43.0212 180.125 43.0858 180.151 43.134 180.198C52.53 189.078 51.534 202.596 51.534 202.734C51.5236 202.8 51.4877 202.86 51.4339 202.901C51.3801 202.941 51.3127 202.959 51.246 202.95Z" fill="white"/>
<path d="M49.626 191.364C49.5586 191.358 49.4963 191.326 49.4525 191.274C49.4087 191.222 49.387 191.156 49.392 191.088C49.4617 189.975 49.7611 188.889 50.2712 187.898C50.7813 186.906 51.4911 186.032 52.356 185.328C52.4112 185.29 52.4791 185.275 52.5451 185.286C52.6112 185.298 52.6703 185.334 52.71 185.388C52.7298 185.415 52.7442 185.445 52.7522 185.477C52.7603 185.51 52.7618 185.543 52.7568 185.576C52.7518 185.609 52.7403 185.641 52.723 185.669C52.7057 185.698 52.6829 185.722 52.656 185.742C51.8535 186.407 51.1954 187.229 50.7218 188.158C50.2482 189.086 49.9693 190.102 49.902 191.142C49.893 191.207 49.8594 191.267 49.8081 191.308C49.7568 191.349 49.6916 191.369 49.626 191.364Z" fill="white"/>
<path d="M50.292 193.668C50.2567 193.669 50.2216 193.662 50.1894 193.647C50.1571 193.633 50.1286 193.611 50.106 193.584C50.106 193.584 47.802 191.124 42.618 191.832C42.5848 191.838 42.5506 191.837 42.5178 191.829C42.4849 191.821 42.454 191.807 42.427 191.787C42.4 191.766 42.3774 191.741 42.3607 191.711C42.3441 191.682 42.3336 191.65 42.33 191.616C42.3214 191.549 42.3391 191.482 42.3795 191.428C42.4198 191.374 42.4796 191.338 42.546 191.328C48.012 190.578 50.382 193.128 50.484 193.248C50.5078 193.271 50.5267 193.298 50.5396 193.329C50.5525 193.359 50.5592 193.392 50.5592 193.425C50.5592 193.458 50.5525 193.491 50.5396 193.521C50.5267 193.552 50.5078 193.579 50.484 193.602C50.4593 193.627 50.4291 193.646 50.3957 193.658C50.3624 193.669 50.3269 193.673 50.292 193.668Z" fill="white"/>
<path d="M261.666 223.2L171.12 170.946C169.504 170.014 167.672 169.524 165.807 169.524C163.942 169.524 162.11 170.014 160.494 170.946L128.49 189.426C127.964 189.731 127.528 190.168 127.225 190.695C126.921 191.221 126.762 191.818 126.762 192.426C126.762 193.034 126.921 193.63 127.225 194.157C127.528 194.684 127.964 195.121 128.49 195.426L219.036 247.704C220.652 248.635 222.484 249.126 224.349 249.126C226.214 249.126 228.046 248.635 229.662 247.704L261.666 229.224C262.197 228.921 262.639 228.482 262.946 227.953C263.253 227.424 263.415 226.824 263.415 226.212C263.415 225.6 263.253 224.999 262.946 224.47C262.639 223.941 262.197 223.503 261.666 223.2Z" fill="#E0E0E0"/>
<path d="M88.656 247.224C104.582 247.224 117.492 239.769 117.492 230.574C117.492 221.378 104.582 213.924 88.656 213.924C72.7303 213.924 59.82 221.378 59.82 230.574C59.82 239.769 72.7303 247.224 88.656 247.224Z" fill="#E0E0E0"/>
<path d="M221.952 242.148L148.92 199.986C143.772 197.016 139.59 189.03 139.59 182.16V25.8C139.59 18.93 143.79 15.774 148.92 18.744L221.952 60.9C227.1 63.9 231.276 71.85 231.276 78.72V235.098C231.276 241.968 227.1 245.124 221.952 242.148Z" fill="#455A64"/>
<path d="M230.358 55.998L157.332 13.836C155.13 12.564 153.102 12.414 151.506 13.194C151.309 13.2923 151.119 13.4025 150.936 13.524L142.758 18.282C144.402 17.298 146.556 17.37 148.92 18.732L221.952 60.9C227.1 63.9 231.276 71.85 231.276 78.72V235.098C231.276 238.728 230.112 241.326 228.276 242.52L236.352 237.816C238.41 236.724 239.718 234.042 239.718 230.196V73.8C239.688 66.954 235.512 58.968 230.358 55.998Z" fill="#37474F"/>
<path d="M231.276 78.72V235.098C231.276 238.728 230.112 241.326 228.276 242.52L236.352 237.816C238.41 236.724 239.718 234.042 239.718 230.196V73.8L231.318 78.684L231.276 78.72Z" fill="#263238"/>
<path d="M239.688 85.962L231.276 90.816V94.608L239.688 89.754V85.962Z" fill="#37474F"/>
<path d="M236.004 111.192C235.254 111.624 234.642 111.192 234.642 110.16V102C234.65 101.49 234.777 100.989 235.014 100.536C235.25 100.084 235.59 99.6936 236.004 99.396C236.754 98.964 237.366 99.426 237.366 100.428V108.6C237.356 109.108 237.227 109.607 236.991 110.057C236.754 110.506 236.417 110.895 236.004 111.192Z" fill="#37474F"/>
<path d="M234.642 110.16V102C234.65 101.49 234.778 100.989 235.014 100.536C235.251 100.084 235.59 99.6937 236.004 99.396C236.128 99.3107 236.273 99.2588 236.423 99.2451C236.573 99.2314 236.724 99.2565 236.862 99.318L235.848 98.79C235.708 98.7187 235.551 98.6871 235.395 98.6988C235.238 98.7104 235.088 98.7648 234.96 98.856C234.546 99.1537 234.207 99.5442 233.97 99.9964C233.734 100.449 233.606 100.95 233.598 101.46V109.62C233.576 109.826 233.607 110.034 233.689 110.225C233.771 110.415 233.901 110.581 234.066 110.706L235.134 111.264C234.962 111.14 234.825 110.972 234.739 110.778C234.652 110.585 234.619 110.371 234.642 110.16Z" fill="#455A64"/>
<path d="M236.004 130.932C235.254 131.364 234.642 130.932 234.642 129.9V121.746C234.651 121.236 234.778 120.735 235.015 120.283C235.251 119.831 235.59 119.44 236.004 119.142C236.754 118.71 237.366 119.172 237.366 120.174V128.328C237.358 128.838 237.23 129.34 236.994 129.792C236.757 130.244 236.418 130.634 236.004 130.932Z" fill="#37474F"/>
<path d="M234.642 129.9V121.746C234.651 121.236 234.778 120.735 235.015 120.283C235.251 119.831 235.59 119.44 236.004 119.142C236.128 119.057 236.273 119.005 236.423 118.991C236.573 118.978 236.724 119.003 236.862 119.064L235.848 118.536C235.707 118.468 235.551 118.438 235.395 118.45C235.239 118.461 235.089 118.514 234.96 118.602C234.546 118.9 234.207 119.291 233.971 119.743C233.734 120.195 233.607 120.696 233.598 121.206V129.36C233.576 129.566 233.607 129.774 233.689 129.965C233.771 130.155 233.901 130.321 234.066 130.446L235.134 131.004C234.962 130.88 234.825 130.712 234.739 130.519C234.652 130.325 234.619 130.111 234.642 129.9Z" fill="#455A64"/>
<path d="M219.408 65.292L147.642 23.85C147.341 23.6762 146.999 23.5847 146.652 23.5847C146.304 23.5848 145.962 23.6764 145.661 23.8503C145.36 24.0242 145.11 24.2744 144.937 24.5755C144.763 24.8767 144.672 25.2183 144.672 25.566V182.166C144.672 187.398 148.374 193.818 152.904 196.428L222.93 236.862C223.261 237.054 223.638 237.155 224.021 237.156C224.404 237.156 224.78 237.055 225.112 236.863C225.444 236.671 225.719 236.396 225.91 236.064C226.101 235.732 226.201 235.355 226.2 234.972V77.058C226.2 72.744 223.146 67.452 219.408 65.292Z" fill="#2997FF"/>
<path opacity="0.5" d="M219.408 65.292L147.642 23.85C147.341 23.6762 146.999 23.5847 146.652 23.5847C146.304 23.5848 145.962 23.6764 145.661 23.8503C145.36 24.0242 145.11 24.2744 144.937 24.5755C144.763 24.8767 144.672 25.2183 144.672 25.566V182.166C144.672 187.398 148.374 193.818 152.904 196.428L222.93 236.862C223.261 237.054 223.638 237.155 224.021 237.156C224.404 237.156 224.78 237.055 225.112 236.863C225.444 236.671 225.719 236.396 225.91 236.064C226.101 235.732 226.201 235.355 226.2 234.972V77.058C226.2 72.744 223.146 67.452 219.408 65.292Z" fill="white"/>
<path d="M169.098 34.668L170.214 39.354L193.998 53.07L198.108 50.88L169.098 34.668Z" fill="#455A64"/>
<path d="M176.088 39.192C176.088 39.972 175.548 40.284 174.888 39.9C174.536 39.6672 174.244 39.3546 174.035 38.9876C173.827 38.6207 173.708 38.2096 173.688 37.788C173.688 37.014 174.228 36.696 174.888 37.086C175.239 37.3185 175.53 37.6303 175.739 37.9961C175.947 38.3619 176.067 38.7715 176.088 39.192Z" fill="#263238"/>
<path d="M192.12 49.098C191.99 49.0988 191.862 49.0657 191.748 49.002L179.598 42.216C179.511 42.1671 179.434 42.1015 179.371 42.0229C179.309 41.9443 179.263 41.8542 179.236 41.7578C179.209 41.6615 179.201 41.5606 179.212 41.4611C179.224 41.3616 179.255 41.2654 179.304 41.178C179.353 41.0905 179.418 41.0135 179.497 40.9514C179.576 40.8893 179.666 40.8433 179.762 40.816C179.859 40.7887 179.959 40.7806 180.059 40.7923C180.158 40.804 180.255 40.8351 180.342 40.884L192.492 47.676C192.642 47.7562 192.76 47.8844 192.827 48.0399C192.895 48.1955 192.909 48.3693 192.866 48.5334C192.823 48.6976 192.726 48.8425 192.591 48.9449C192.455 49.0473 192.29 49.1012 192.12 49.098Z" fill="#263238"/>
<path d="M209.4 88.746V253.014C209.4 256.014 208.302 258.012 206.622 258.666H206.58L199.458 262.572L199.494 256.23L200.286 85.872L207.81 82.02C208.816 84.122 209.359 86.4159 209.4 88.746Z" fill="#E0E0E0"/>
<path d="M199.086 263.208L199.134 256.248L199.926 85.668L207.984 81.552L208.14 81.888C209.168 84.0311 209.724 86.3696 209.772 88.746V253.014C209.772 256.014 208.65 258.264 206.772 259.014L199.086 263.208ZM200.646 86.118L199.86 256.254L199.824 261.978L206.478 258.336C208.098 257.706 209.046 255.72 209.046 253.014V88.746C209.003 86.6036 208.523 84.4926 207.636 82.542L200.646 86.118Z" fill="#E0E0E0"/>
<path d="M207.81 82.044L200.286 85.896L119.742 39.036L114.342 35.91L121.776 31.71L121.986 31.584C123.186 30.87 124.722 30.918 126.432 31.908L202.668 75.924C204.744 77.112 206.58 79.392 207.81 82.044Z" fill="#E0E0E0"/>
<path d="M200.274 86.304L200.106 86.208L113.634 35.904L121.8 31.278C123.144 30.468 124.854 30.582 126.6 31.596L202.872 75.6C204.912 76.8 206.832 79.062 208.14 81.876L208.29 82.188L200.274 86.304ZM115.074 35.904L200.274 85.47L207.306 81.87C206.07 79.332 204.306 77.292 202.506 76.23L126.276 32.226C124.806 31.38 123.408 31.242 122.316 31.83L121.986 32.034L115.074 35.904Z" fill="#E0E0E0"/>
<path d="M202.026 92.892V257.046C202.026 259.632 201.204 261.492 199.884 262.362L199.458 262.596C198.312 263.136 196.878 263.016 195.318 262.116L158.466 240.84L141.246 230.898L119.076 218.1C115.368 215.958 112.362 210.21 112.362 205.272V41.13C112.362 38.628 113.13 36.816 114.366 35.91C114.576 35.7521 114.806 35.623 115.05 35.526C116.172 35.046 117.564 35.19 119.076 36.06L195.318 80.076C197.292 81.21 199.062 83.376 200.286 85.896C201.38 88.0692 201.975 90.4595 202.026 92.892Z" fill="#FAFAFA"/>
<path d="M119.076 217.134C134.766 226.494 175.578 250.848 195.78 263.016C196.382 263.375 197.068 263.569 197.769 263.577C198.47 263.585 199.16 263.407 199.77 263.061C200.38 262.716 200.887 262.214 201.24 261.609C201.593 261.003 201.78 260.315 201.78 259.614V90.822C201.779 88.9018 201.277 87.0152 200.322 85.3492C199.368 83.6832 197.994 82.2956 196.338 81.324L118.71 35.826C118.107 35.4654 117.418 35.2718 116.715 35.2648C116.012 35.2579 115.32 35.438 114.709 35.7866C114.099 36.1352 113.592 36.6398 113.241 37.2487C112.889 37.8576 112.706 38.549 112.71 39.252V205.962C112.713 208.216 113.301 210.431 114.417 212.389C115.533 214.348 117.138 215.983 119.076 217.134Z" fill="#FAFAFA"/>
<path d="M118.8 217.656C131.392 225.168 143.992 232.688 156.6 240.216C163.956 244.616 171.31 249.016 178.662 253.416L188.52 259.326L192.906 261.966C194.244 262.77 195.666 263.934 197.25 264.144C197.897 264.223 198.553 264.164 199.175 263.971C199.797 263.779 200.372 263.457 200.861 263.027C201.351 262.597 201.744 262.069 202.015 261.477C202.286 260.884 202.429 260.241 202.434 259.59C202.434 259.296 202.434 258.99 202.434 258.708V103.2C202.434 99.144 202.434 95.094 202.434 91.044C202.446 88.9469 201.904 86.8838 200.863 85.0632C199.823 83.2427 198.319 81.7292 196.506 80.676C194.736 79.626 192.954 78.594 191.178 77.55L165.75 62.652L135.54 45C130.092 41.808 124.68 38.556 119.202 35.4C118.489 34.9611 117.671 34.7233 116.834 34.7116C115.998 34.7 115.173 34.915 114.449 35.3339C113.724 35.7527 113.126 36.3598 112.719 37.0908C112.311 37.8218 112.109 38.6494 112.134 39.486C112.134 40.818 112.134 42.156 112.134 43.488V192.258C112.134 196.682 112.134 201.1 112.134 205.512C112.093 207.941 112.686 210.339 113.855 212.469C115.024 214.598 116.729 216.386 118.8 217.656C119.46 218.058 120.06 217.02 119.4 216.618C115.326 214.116 113.352 209.892 113.352 205.218V52.218C113.352 48.018 113.352 43.818 113.352 39.618C113.32 39.0712 113.412 38.5243 113.619 38.0176C113.827 37.5108 114.146 37.0571 114.552 36.69C115.896 35.55 117.51 35.784 118.908 36.6L124.908 40.122L150.6 55.2L180.09 72.48C185.358 75.57 190.638 78.63 195.888 81.738C197.537 82.706 198.898 84.0966 199.831 85.7662C200.763 87.4359 201.233 89.3241 201.192 91.236V258.426C201.192 258.786 201.192 259.152 201.192 259.512C201.196 260.131 201.031 260.74 200.716 261.273C200.4 261.806 199.946 262.244 199.401 262.539C198.857 262.834 198.242 262.975 197.624 262.949C197.005 262.922 196.405 262.727 195.888 262.386C189.69 258.732 183.552 254.97 177.384 251.274C163.128 242.726 148.846 234.19 134.538 225.666L119.4 216.6C119.26 216.52 119.094 216.5 118.939 216.542C118.784 216.585 118.652 216.688 118.572 216.828C118.492 216.968 118.472 217.134 118.515 217.289C118.557 217.444 118.66 217.576 118.8 217.656Z" fill="#EBEBEB"/>
<path d="M123.156 60.36C123.156 61.638 122.256 62.16 121.152 61.518C120.57 61.137 120.085 60.6248 119.737 60.0225C119.389 59.4201 119.187 58.7445 119.148 58.05C119.148 56.772 120.048 56.25 121.152 56.892C121.735 57.2719 122.22 57.7839 122.569 58.3865C122.917 58.989 123.118 59.6651 123.156 60.36Z" fill="#2997FF"/>
<path d="M121.152 61.518C119.52 60.57 118.194 61.572 118.194 63.756V64.428L124.11 67.848V67.2C124.11 64.992 122.784 62.46 121.152 61.518Z" fill="#2997FF"/>
<path d="M196.35 81.324L118.71 35.826C118.107 35.4654 117.418 35.2718 116.715 35.2648C116.012 35.2579 115.32 35.438 114.709 35.7866C114.099 36.1352 113.592 36.6398 113.241 37.2487C112.889 37.8576 112.706 38.549 112.71 39.252V46.572L201.744 97.974V90.822C201.748 88.9065 201.253 87.023 200.307 85.3574C199.361 83.6917 197.997 82.3015 196.35 81.324Z" fill="#EBEBEB"/>
<path d="M157.266 157.428C168.552 157.428 177.702 141.582 177.702 122.034C177.702 102.486 168.552 86.64 157.266 86.64C145.98 86.64 136.83 102.486 136.83 122.034C136.83 141.582 145.98 157.428 157.266 157.428Z" fill="#455A64"/>
<path d="M146.172 108.93C146.172 108.93 144.54 109.752 145.86 113.58C147.18 117.408 144.198 119.322 143.418 117.816C143.418 117.816 143.472 120.216 146.418 120.216C147.189 120.273 147.955 120.062 148.588 119.618C149.22 119.174 149.679 118.524 149.886 117.78C149.886 117.78 150.948 118.938 150.948 122.202C150.948 125.466 147.828 137.736 158.748 137.736C169.668 137.736 169.446 128.442 169.446 128.442C169.446 128.442 172.242 128.496 172.242 124.314C172.242 124.314 167.994 126.954 167.994 121.056C167.994 115.158 168.966 107.7 164.466 107.7C164.466 107.7 166.014 104.496 162.936 102.45C159.858 100.404 150.6 103.2 150.6 103.2C150.6 103.2 147.822 101.532 145.83 103.5C143.4 105.912 146.172 108.93 146.172 108.93Z" fill="#263238"/>
<path d="M151.464 126.102L151.086 132.654L150.342 145.554L150.258 145.74C148.11 143.769 146.129 141.624 144.336 139.326C143.6 138.378 142.886 137.408 142.194 136.416C142.794 134.016 143.34 131.868 143.778 130.416C144.894 126.756 148.866 126.18 150.624 126.108C151.14 126.084 151.464 126.102 151.464 126.102Z" fill="#FFA8A7"/>
<path d="M167.634 154.326C166.869 154.292 166.107 154.204 165.354 154.062C162.499 153.486 159.764 152.427 157.266 150.93C154.749 149.459 152.399 147.719 150.258 145.74C148.11 143.769 146.129 141.624 144.336 139.326C144.243 138.659 144.243 137.983 144.336 137.316C144.816 133.824 148.752 129.09 150.552 127.074C151.104 126.474 151.452 126.102 151.452 126.102L154.452 126.024L161.19 126.396L164.286 127.242C164.466 127.296 164.625 127.403 164.742 127.55C164.859 127.697 164.928 127.876 164.94 128.064L165.486 135.978L165.714 139.236L165.354 140.496L163.962 145.416C163.81 145.966 163.786 146.544 163.89 147.105C163.994 147.666 164.223 148.196 164.562 148.656C164.802 148.986 165.078 149.376 165.354 149.82C166.272 151.237 167.036 152.747 167.634 154.326Z" fill="#2997FF"/>
<path d="M161.196 126.39L152.61 131.952C152.537 132.007 152.448 132.035 152.357 132.033C152.266 132.031 152.179 131.997 152.109 131.939C152.04 131.88 151.992 131.8 151.974 131.711C151.956 131.622 151.969 131.529 152.01 131.448L154.446 126.048V117.096H161.184L161.196 126.39Z" fill="#FFA8A7"/>
<path d="M154.458 125.244C155.835 124.735 157.094 123.95 158.157 122.938C159.221 121.926 160.067 120.708 160.644 119.358V117.096H154.458V125.244Z" fill="#F28F8F"/>
<path d="M152.892 106.05C152.892 106.05 146.73 106.416 147.492 116.946C147.84 121.818 148.986 124.338 152.736 124.146C156.984 123.936 163.014 121.02 162.618 112.686C162.222 104.352 152.892 106.05 152.892 106.05Z" fill="#FFA8A7"/>
<path d="M161.196 117.096C161.196 117.096 159.504 117.54 159.504 115.122C159.504 115.122 152.004 114.612 150.342 107.166C150.342 107.166 151.086 104.934 155.772 104.934C160.458 104.934 164.4 109.08 163.2 114.774L161.196 117.096Z" fill="#263238"/>
<path d="M152.004 114.834V118.452L149.886 117.804L152.004 114.834Z" fill="#F28F8F"/>
<path d="M155.196 115.2C155.196 115.346 155.153 115.489 155.072 115.61C154.991 115.731 154.875 115.826 154.74 115.882C154.606 115.938 154.457 115.952 154.314 115.924C154.171 115.895 154.039 115.825 153.936 115.722C153.833 115.619 153.763 115.487 153.734 115.344C153.706 115.201 153.72 115.052 153.776 114.918C153.832 114.783 153.927 114.668 154.048 114.586C154.169 114.505 154.312 114.462 154.458 114.462C154.555 114.462 154.651 114.481 154.74 114.518C154.83 114.555 154.911 114.61 154.98 114.678C155.048 114.747 155.103 114.828 155.14 114.918C155.177 115.007 155.196 115.103 155.196 115.2Z" fill="#263238"/>
<path d="M150.342 114.702C150.342 114.848 150.299 114.991 150.218 115.112C150.137 115.233 150.021 115.328 149.886 115.384C149.752 115.44 149.603 115.454 149.46 115.426C149.317 115.397 149.185 115.327 149.082 115.224C148.979 115.121 148.909 114.989 148.88 114.846C148.852 114.703 148.866 114.554 148.922 114.42C148.978 114.285 149.073 114.169 149.194 114.088C149.315 114.007 149.458 113.964 149.604 113.964C149.8 113.964 149.987 114.042 150.126 114.18C150.264 114.319 150.342 114.506 150.342 114.702Z" fill="#263238"/>
<path d="M148.71 113.166L150.15 112.308C150.15 112.308 149.598 111.708 149.046 112.08C148.887 112.206 148.769 112.377 148.709 112.571C148.649 112.765 148.649 112.972 148.71 113.166Z" fill="#263238"/>
<path d="M152.19 119.652C153.039 119.716 153.884 119.492 154.59 119.016C154.59 119.016 154.752 120.27 153.702 120.51C153.389 120.566 153.067 120.51 152.791 120.354C152.515 120.197 152.303 119.949 152.19 119.652Z" fill="#F28F8F"/>
<path d="M160.596 117.366C160.568 116.748 160.683 116.132 160.932 115.566C161.053 115.213 161.276 114.904 161.573 114.679C161.87 114.453 162.228 114.322 162.6 114.3C164.49 114.246 164.748 116.07 164.718 116.7C164.652 118.404 163.272 120.24 160.71 120.3L160.596 117.366Z" fill="#FFA8A7"/>
<path d="M173.352 153.468C171.53 154.161 169.58 154.454 167.634 154.326C166.869 154.292 166.107 154.204 165.354 154.062V149.862V140.538C164.718 139.391 164.194 138.185 163.788 136.938C161.826 130.824 164.286 127.338 164.286 127.338C166.081 127.779 167.789 128.519 169.338 129.528C170.464 130.274 171.355 131.325 171.906 132.558C173.646 136.476 173.754 142.2 173.352 153.468Z" fill="#FFA8A7"/>
<path opacity="0.2" d="M160.8 141.774C159.918 142.848 158.725 143.622 157.386 143.991C156.046 144.359 154.625 144.304 153.318 143.832C153.318 143.832 157.986 147.234 160.8 141.774Z" fill="black"/>
<path d="M193.254 100.254C193.254 100.782 192.888 100.998 192.426 100.734C192.185 100.576 191.984 100.363 191.84 100.113C191.696 99.8628 191.613 99.5822 191.598 99.294C191.598 98.766 191.97 98.556 192.426 98.82C192.669 98.9753 192.871 99.1866 193.015 99.4361C193.159 99.6856 193.241 99.9661 193.254 100.254Z" fill="#2997FF"/>
<path d="M193.254 104.004C193.254 104.532 192.888 104.748 192.426 104.484C192.185 104.326 191.984 104.113 191.84 103.863C191.697 103.613 191.614 103.332 191.598 103.044C191.598 102.516 191.97 102.3 192.426 102.57C192.669 102.725 192.871 102.937 193.015 103.186C193.159 103.436 193.241 103.716 193.254 104.004Z" fill="#2997FF"/>
<path d="M193.254 107.754C193.254 108.282 192.888 108.498 192.426 108.234C192.185 108.076 191.984 107.863 191.84 107.613C191.697 107.363 191.614 107.082 191.598 106.794C191.598 106.266 191.97 106.05 192.426 106.32C192.669 106.475 192.871 106.687 193.015 106.936C193.159 107.186 193.241 107.466 193.254 107.754Z" fill="#2997FF"/>
<path d="M195.54 232.062C195.488 232.062 195.437 232.049 195.39 232.026L118.836 187.8C118.802 187.781 118.772 187.755 118.747 187.724C118.723 187.693 118.706 187.657 118.696 187.619C118.686 187.581 118.683 187.541 118.689 187.502C118.694 187.463 118.708 187.426 118.728 187.392C118.768 187.324 118.833 187.274 118.909 187.253C118.985 187.232 119.066 187.241 119.136 187.278L195.69 231.48C195.758 231.52 195.808 231.585 195.829 231.661C195.85 231.737 195.841 231.818 195.804 231.888C195.779 231.938 195.742 231.98 195.696 232.011C195.649 232.042 195.596 232.059 195.54 232.062Z" fill="#2997FF"/>
<path d="M195.54 224.304C195.487 224.304 195.435 224.29 195.39 224.262L118.836 180.066C118.767 180.025 118.718 179.958 118.698 179.881C118.677 179.804 118.688 179.722 118.728 179.652C118.747 179.618 118.773 179.588 118.804 179.564C118.835 179.539 118.871 179.522 118.909 179.512C118.947 179.502 118.987 179.499 119.026 179.505C119.065 179.51 119.102 179.524 119.136 179.544L195.69 223.746C195.759 223.785 195.81 223.85 195.831 223.926C195.853 224.003 195.843 224.085 195.804 224.154C195.776 224.199 195.738 224.237 195.691 224.263C195.645 224.29 195.593 224.304 195.54 224.304Z" fill="#2997FF"/>
<path d="M195.54 216.546C195.488 216.543 195.436 216.529 195.39 216.504L118.836 172.302C118.776 172.258 118.734 172.194 118.719 172.121C118.704 172.049 118.716 171.973 118.753 171.909C118.79 171.844 118.85 171.796 118.921 171.774C118.992 171.751 119.068 171.755 119.136 171.786L195.69 216C195.758 216.041 195.808 216.107 195.83 216.184C195.851 216.261 195.842 216.344 195.804 216.414C195.774 216.456 195.735 216.49 195.689 216.513C195.643 216.536 195.591 216.548 195.54 216.546Z" fill="#2997FF"/>
<path d="M147.959 83.2574V75.3877L150.651 76.9348C151.168 77.2322 151.609 77.5996 151.974 78.037C152.338 78.4717 152.616 78.9451 152.807 79.4571C153 79.9678 153.096 80.4844 153.096 81.007C153.096 81.5296 152.999 81.9346 152.803 82.2219C152.608 82.5092 152.325 82.6577 151.954 82.6674C151.585 82.6784 151.139 82.5332 150.614 82.232L148.899 81.2459V79.9125L150.381 80.7645C150.659 80.9241 150.888 81.0005 151.067 80.9937C151.25 80.9857 151.385 80.9086 151.474 80.7624C151.565 80.6149 151.61 80.4118 151.61 80.153C151.61 79.8917 151.565 79.6376 151.474 79.3906C151.385 79.1422 151.25 78.9119 151.067 78.6997C150.885 78.4849 150.654 78.297 150.374 78.1362L149.402 77.5771V84.0865L147.959 83.2574ZM154.007 86.7332V80.8309L155.383 81.6216V82.6515L155.436 82.6821C155.529 82.3694 155.686 82.1827 155.906 82.1221C156.126 82.0589 156.379 82.1096 156.665 82.2743C156.736 82.3151 156.813 82.3643 156.895 82.4218C156.977 82.4792 157.05 82.5348 157.112 82.5885V84.041C157.045 83.9797 156.953 83.9062 156.835 83.8206C156.718 83.735 156.61 83.6641 156.512 83.608C156.303 83.488 156.117 83.4333 155.952 83.4438C155.79 83.4531 155.661 83.5226 155.566 83.6521C155.473 83.7829 155.426 83.9688 155.426 84.2096V87.5488L154.007 86.7332ZM150.24 97.6832C149.723 97.3863 149.276 97.0029 148.899 96.5331C148.525 96.062 148.235 95.5403 148.031 94.9678C147.827 94.3928 147.725 93.8035 147.725 93.2C147.725 92.5913 147.827 92.118 148.031 91.7801C148.235 91.4395 148.525 91.2503 148.899 91.2125C149.276 91.1734 149.723 91.3023 150.24 91.5992C150.756 91.8961 151.202 92.2801 151.577 92.7512C151.954 93.221 152.244 93.7434 152.448 94.3184C152.652 94.8909 152.754 95.4814 152.754 96.0901C152.754 96.6936 152.652 97.1657 152.448 97.5062C152.244 97.8442 151.954 98.0327 151.577 98.0718C151.202 98.1096 150.756 97.9801 150.24 97.6832ZM150.246 96.4211C150.481 96.5562 150.677 96.5922 150.835 96.5293C150.992 96.4638 151.111 96.3197 151.191 96.097C151.273 95.8756 151.314 95.5936 151.314 95.2509C151.314 94.9082 151.273 94.5791 151.191 94.2634C151.111 93.949 150.992 93.6686 150.835 93.4221C150.677 93.1756 150.481 92.9848 150.246 92.8498C150.009 92.7134 149.809 92.6767 149.648 92.7397C149.488 92.804 149.367 92.9468 149.285 93.1681C149.205 93.3908 149.165 93.6735 149.165 94.0161C149.165 94.3588 149.205 94.6874 149.285 95.0018C149.367 95.3174 149.488 95.5991 149.648 95.8469C149.809 96.0934 150.009 96.2848 150.246 96.4211ZM156.422 95.2293V96.4568L153.269 94.6448V93.4173L156.422 95.2293ZM153.991 99.7242V93.4062C153.991 92.9792 154.063 92.6664 154.207 92.4679C154.354 92.2707 154.553 92.1744 154.806 92.179C155.059 92.1836 155.346 92.2783 155.667 92.4631C155.885 92.588 156.083 92.7212 156.263 92.8628C156.445 93.0056 156.58 93.1179 156.669 93.1996L156.416 94.2818C156.36 94.2295 156.292 94.1708 156.21 94.1058C156.13 94.042 156.048 93.9859 155.963 93.9375C155.755 93.8177 155.61 93.7905 155.528 93.8559C155.446 93.9187 155.405 94.0498 155.405 94.2493V100.537L153.991 99.7242ZM157.288 101.619V95.7268L158.705 96.541V102.433L157.288 101.619ZM158 95.3763C157.789 95.2552 157.608 95.0708 157.458 94.823C157.309 94.574 157.235 94.3357 157.235 94.1081C157.235 93.883 157.309 93.7326 157.458 93.6569C157.608 93.5799 157.789 93.6019 158 93.7229C158.21 93.844 158.39 94.029 158.539 94.2781C158.689 94.5259 158.765 94.7623 158.765 94.9873C158.765 95.2149 158.689 95.3672 158.539 95.4443C158.39 95.52 158.21 95.4973 158 95.3763ZM161.257 96.0435V103.9L159.84 103.085V95.2293L161.257 96.0435ZM150.26 110.695C149.734 110.393 149.282 110.01 148.903 109.547C148.526 109.082 148.235 108.565 148.031 107.995C147.827 107.422 147.725 106.825 147.725 106.204C147.725 105.598 147.827 105.124 148.031 104.784C148.235 104.443 148.522 104.252 148.893 104.209C149.265 104.167 149.702 104.29 150.203 104.578C150.54 104.772 150.854 105.015 151.144 105.307C151.437 105.598 151.692 105.93 151.909 106.303C152.129 106.677 152.299 107.087 152.421 107.533C152.543 107.977 152.604 108.449 152.604 108.95V109.399L148.291 106.92V105.907L151.271 107.62C151.271 107.385 151.226 107.151 151.138 106.918C151.049 106.686 150.926 106.473 150.768 106.28C150.613 106.086 150.432 105.93 150.226 105.811C150.011 105.688 149.821 105.636 149.654 105.655C149.49 105.674 149.362 105.752 149.268 105.89C149.175 106.026 149.128 106.209 149.125 106.441V107.404C149.125 107.695 149.172 107.974 149.265 108.24C149.36 108.507 149.495 108.747 149.668 108.962C149.84 109.176 150.046 109.352 150.283 109.488C150.44 109.579 150.584 109.636 150.715 109.66C150.846 109.684 150.958 109.672 151.051 109.623C151.144 109.574 151.215 109.49 151.264 109.369L152.574 110.222C152.508 110.547 152.371 110.786 152.165 110.938C151.961 111.09 151.697 111.148 151.374 111.113C151.052 111.076 150.681 110.937 150.26 110.695Z" fill="#455A64"/>
<path d="M142.5 152.267L144.105 153.19L145.651 157.445L145.717 157.483L147.263 155.004L148.868 155.927L146.396 159.56V162.324L144.972 161.506V158.743L142.5 152.267ZM151.916 165.611C151.403 165.317 150.959 164.936 150.585 164.469C150.213 164.001 149.925 163.483 149.722 162.914C149.52 162.343 149.418 161.757 149.418 161.158C149.418 160.553 149.52 160.083 149.722 159.747C149.925 159.409 150.213 159.221 150.585 159.183C150.959 159.144 151.403 159.272 151.916 159.567C152.43 159.862 152.872 160.244 153.245 160.712C153.619 161.179 153.908 161.698 154.11 162.269C154.313 162.837 154.414 163.424 154.414 164.029C154.414 164.628 154.313 165.097 154.11 165.436C153.908 165.771 153.619 165.959 153.245 165.998C152.872 166.035 152.43 165.906 151.916 165.611ZM151.923 164.358C152.156 164.492 152.351 164.528 152.508 164.465C152.664 164.4 152.782 164.257 152.861 164.036C152.943 163.816 152.984 163.536 152.984 163.195C152.984 162.855 152.943 162.528 152.861 162.214C152.782 161.902 152.664 161.623 152.508 161.378C152.351 161.133 152.156 160.944 151.923 160.81C151.687 160.674 151.489 160.638 151.328 160.7C151.17 160.764 151.05 160.906 150.968 161.126C150.889 161.347 150.849 161.628 150.849 161.968C150.849 162.309 150.889 162.635 150.968 162.948C151.05 163.261 151.17 163.541 151.328 163.787C151.489 164.032 151.687 164.222 151.923 164.358ZM158.584 166.837V163.476L159.992 164.285V170.138L158.64 169.361V168.298L158.587 168.268C158.473 168.545 158.282 168.711 158.016 168.766C157.751 168.823 157.429 168.741 157.048 168.522C156.708 168.327 156.41 168.067 156.152 167.741C155.895 167.415 155.693 167.046 155.548 166.635C155.404 166.225 155.332 165.791 155.33 165.332V161.605L156.737 162.414V165.852C156.739 166.198 156.82 166.518 156.978 166.81C157.137 167.101 157.349 167.324 157.616 167.477C157.786 167.575 157.944 167.621 158.092 167.617C158.239 167.61 158.358 167.544 158.449 167.418C158.541 167.294 158.586 167.1 158.584 166.837ZM161.118 170.785V164.932L162.482 165.716V166.737L162.535 166.768C162.627 166.457 162.783 166.272 163.001 166.212C163.219 166.149 163.47 166.2 163.754 166.363C163.825 166.404 163.901 166.452 163.982 166.509C164.064 166.566 164.135 166.621 164.197 166.675V168.115C164.131 168.054 164.039 167.982 163.923 167.897C163.806 167.812 163.699 167.741 163.602 167.686C163.395 167.567 163.21 167.513 163.047 167.523C162.886 167.532 162.759 167.601 162.664 167.73C162.571 167.859 162.525 168.044 162.525 168.282V171.594L161.118 170.785ZM166.332 170.398V173.782L164.925 172.973V167.12L166.266 167.891V168.923L166.326 168.958C166.438 168.682 166.626 168.521 166.891 168.474C167.155 168.426 167.475 168.509 167.852 168.726C168.205 168.928 168.512 169.194 168.774 169.522C169.036 169.851 169.24 170.222 169.385 170.636C169.531 171.047 169.603 171.48 169.603 171.935V175.662L168.196 174.853V171.416C168.198 171.059 168.119 170.734 167.958 170.441C167.797 170.145 167.576 169.916 167.294 169.754C167.104 169.645 166.937 169.596 166.791 169.606C166.648 169.618 166.536 169.691 166.454 169.824C166.375 169.957 166.334 170.148 166.332 170.398ZM144.317 174.24C143.993 174.054 143.705 173.823 143.451 173.548C143.198 173.271 142.997 172.961 142.85 172.62C142.704 172.277 142.632 171.912 142.632 171.526C142.632 171.201 142.684 170.958 142.787 170.796C142.891 170.635 143.032 170.538 143.21 170.506C143.388 170.474 143.591 170.488 143.818 170.55C144.047 170.613 144.287 170.703 144.538 170.819C144.833 170.953 145.071 171.057 145.252 171.131C145.433 171.201 145.564 171.228 145.645 171.212C145.727 171.195 145.767 171.124 145.767 171V170.977C145.767 170.736 145.701 170.511 145.569 170.303C145.439 170.096 145.254 169.924 145.014 169.786C144.761 169.64 144.559 169.589 144.409 169.633C144.26 169.674 144.161 169.777 144.112 169.942L142.81 169.072C142.876 168.754 143.006 168.521 143.2 168.374C143.394 168.223 143.644 168.166 143.95 168.202C144.259 168.237 144.615 168.371 145.021 168.604C145.303 168.766 145.572 168.96 145.83 169.184C146.09 169.409 146.32 169.66 146.521 169.935C146.723 170.212 146.883 170.509 147 170.828C147.117 171.144 147.175 171.476 147.175 171.824V175.772L145.84 175.005V174.193L145.8 174.171C145.719 174.307 145.61 174.405 145.473 174.467C145.337 174.525 145.173 174.539 144.981 174.508C144.789 174.474 144.568 174.384 144.317 174.24ZM144.72 173.351C144.927 173.47 145.11 173.528 145.268 173.526C145.427 173.52 145.552 173.462 145.642 173.351C145.732 173.241 145.777 173.083 145.777 172.877V172.256C145.733 172.263 145.673 172.259 145.596 172.243C145.521 172.225 145.436 172.2 145.341 172.169C145.246 172.135 145.152 172.099 145.057 172.063C144.962 172.023 144.876 171.988 144.799 171.956C144.634 171.889 144.49 171.851 144.366 171.841C144.243 171.831 144.147 171.859 144.079 171.924C144.011 171.986 143.977 172.093 143.977 172.246C143.977 172.467 144.046 172.676 144.185 172.872C144.326 173.068 144.504 173.227 144.72 173.351ZM148.267 176.4V170.546L149.608 171.317V172.35L149.668 172.384C149.774 172.102 149.95 171.933 150.197 171.876C150.443 171.82 150.738 171.89 151.082 172.088C151.43 172.288 151.726 172.559 151.971 172.9C152.215 173.238 152.378 173.601 152.46 173.989L152.513 174.019C152.616 173.743 152.804 173.583 153.074 173.538C153.348 173.492 153.67 173.575 154.043 173.789C154.516 174.061 154.901 174.456 155.196 174.974C155.493 175.491 155.642 176.066 155.642 176.701V180.638L154.237 179.831V176.215C154.237 175.889 154.163 175.602 154.013 175.354C153.863 175.105 153.676 174.916 153.451 174.787C153.196 174.64 152.996 174.62 152.853 174.725C152.71 174.829 152.638 175.033 152.638 175.337V178.912L151.274 178.128V174.477C151.274 174.19 151.202 173.92 151.059 173.668C150.918 173.416 150.732 173.224 150.501 173.091C150.344 173.001 150.203 172.966 150.078 172.985C149.954 173.003 149.856 173.073 149.784 173.194C149.711 173.312 149.675 173.479 149.675 173.695V177.209L148.267 176.4ZM159.066 182.721C158.544 182.421 158.095 182.04 157.718 181.58C157.344 181.118 157.055 180.605 156.853 180.038C156.65 179.47 156.549 178.877 156.549 178.259C156.549 177.657 156.65 177.187 156.853 176.849C157.055 176.51 157.341 176.32 157.708 176.277C158.079 176.236 158.512 176.358 159.01 176.644C159.345 176.837 159.657 177.078 159.945 177.368C160.236 177.658 160.489 177.987 160.705 178.358C160.923 178.73 161.093 179.137 161.214 179.58C161.335 180.021 161.396 180.49 161.396 180.988V181.434L157.11 178.971V177.965L160.071 179.666C160.071 179.432 160.027 179.2 159.939 178.969C159.851 178.738 159.728 178.527 159.572 178.335C159.418 178.142 159.238 177.987 159.033 177.869C158.82 177.747 158.63 177.695 158.465 177.714C158.302 177.732 158.174 177.81 158.082 177.948C157.989 178.082 157.942 178.265 157.94 178.495V179.451C157.94 179.741 157.986 180.018 158.079 180.282C158.173 180.547 158.307 180.786 158.478 180.999C158.65 181.212 158.854 181.387 159.09 181.522C159.246 181.612 159.389 181.669 159.519 181.693C159.649 181.717 159.76 181.704 159.853 181.656C159.945 181.607 160.016 181.523 160.064 181.404L161.366 182.251C161.3 182.574 161.165 182.811 160.96 182.963C160.757 183.113 160.495 183.171 160.173 183.136C159.854 183.1 159.485 182.961 159.066 182.721Z" fill="#455A64"/>
<path d="M161.645 231.016C161.34 230.839 161.046 230.611 160.763 230.333C160.481 230.055 160.229 229.722 160.005 229.334C159.782 228.945 159.604 228.499 159.473 227.994C159.344 227.491 159.279 226.927 159.279 226.302C159.281 225.73 159.338 225.25 159.45 224.863C159.564 224.475 159.726 224.183 159.936 223.988C160.148 223.794 160.401 223.7 160.696 223.705C160.991 223.708 161.322 223.814 161.688 224.025C162.083 224.252 162.432 224.541 162.735 224.893C163.037 225.243 163.28 225.621 163.463 226.029C163.648 226.438 163.76 226.841 163.799 227.239L162.564 226.529C162.516 226.264 162.415 226.019 162.26 225.794C162.106 225.57 161.915 225.393 161.688 225.262C161.302 225.04 161.009 225.065 160.809 225.337C160.61 225.61 160.509 226.077 160.505 226.74L160.546 226.763C160.635 226.612 160.754 226.508 160.904 226.452C161.057 226.395 161.229 226.385 161.422 226.42C161.617 226.454 161.822 226.533 162.038 226.657C162.389 226.859 162.701 227.134 162.975 227.482C163.248 227.828 163.464 228.213 163.622 228.635C163.78 229.057 163.859 229.481 163.859 229.908C163.859 230.371 163.766 230.728 163.579 230.981C163.394 231.235 163.135 231.368 162.801 231.381C162.47 231.393 162.084 231.271 161.645 231.016ZM161.639 229.879C161.832 229.99 162.004 230.036 162.156 230.017C162.309 229.997 162.428 229.922 162.515 229.789C162.602 229.657 162.645 229.477 162.645 229.25C162.645 229.023 162.602 228.795 162.515 228.565C162.43 228.336 162.313 228.125 162.162 227.932C162.012 227.739 161.84 227.587 161.647 227.476C161.503 227.393 161.369 227.347 161.246 227.339C161.124 227.331 161.017 227.357 160.925 227.414C160.834 227.474 160.763 227.562 160.711 227.678C160.659 227.793 160.633 227.933 160.633 228.097C160.633 228.317 160.676 228.543 160.763 228.775C160.851 229.009 160.971 229.223 161.121 229.418C161.274 229.615 161.446 229.768 161.639 229.879ZM167.069 234.19C166.572 233.902 166.144 233.515 165.785 233.029C165.428 232.544 165.154 231.98 164.961 231.338C164.77 230.697 164.676 230.004 164.678 229.258C164.678 228.513 164.773 227.933 164.964 227.518C165.157 227.104 165.431 226.863 165.788 226.795C166.146 226.725 166.573 226.832 167.069 227.117C167.564 227.402 167.99 227.785 168.347 228.265C168.705 228.747 168.981 229.306 169.174 229.941C169.367 230.574 169.462 231.263 169.46 232.006C169.46 232.756 169.364 233.341 169.171 233.761C168.98 234.183 168.706 234.431 168.35 234.506C167.993 234.582 167.566 234.476 167.069 234.19ZM167.069 232.993C167.408 233.188 167.679 233.147 167.881 232.87C168.084 232.593 168.184 232.06 168.182 231.272C168.182 230.754 168.136 230.296 168.043 229.898C167.953 229.502 167.823 229.168 167.656 228.899C167.49 228.63 167.294 228.431 167.069 228.301C166.732 228.107 166.462 228.147 166.259 228.419C166.057 228.692 165.955 229.216 165.953 229.991C165.953 230.515 165.998 230.979 166.089 231.383C166.181 231.785 166.311 232.122 166.479 232.394C166.647 232.664 166.843 232.864 167.069 232.993ZM172.674 237.412C172.177 237.124 171.749 236.737 171.391 236.251C171.034 235.766 170.759 235.202 170.567 234.56C170.376 233.919 170.281 233.225 170.283 232.48C170.283 231.735 170.379 231.155 170.57 230.74C170.762 230.326 171.037 230.085 171.394 230.016C171.752 229.947 172.179 230.054 172.674 230.339C173.17 230.624 173.596 231.006 173.952 231.487C174.311 231.969 174.587 232.527 174.779 233.163C174.972 233.796 175.068 234.484 175.066 235.228C175.066 235.977 174.969 236.562 174.777 236.983C174.586 237.404 174.312 237.653 173.955 237.728C173.599 237.803 173.172 237.698 172.674 237.412ZM172.674 236.215C173.014 236.41 173.285 236.369 173.487 236.092C173.689 235.814 173.79 235.282 173.788 234.494C173.788 233.976 173.741 233.518 173.649 233.12C173.558 232.723 173.429 232.39 173.261 232.12C173.096 231.851 172.9 231.652 172.674 231.523C172.337 231.329 172.067 231.368 171.865 231.641C171.663 231.914 171.56 232.438 171.558 233.212C171.558 233.737 171.604 234.201 171.694 234.604C171.787 235.007 171.917 235.344 172.085 235.616C172.252 235.886 172.449 236.085 172.674 236.215Z" fill="#BA68C8"/>
<path d="M159.406 240.636V233.818L163.32 236.068V237.256L160.656 235.725V237.35L163.06 238.731V239.92L160.656 238.538V241.355L159.406 240.636ZM165.815 244.42C165.367 244.162 164.979 243.829 164.652 243.422C164.327 243.013 164.076 242.56 163.898 242.063C163.721 241.564 163.633 241.053 163.633 240.529C163.633 240.001 163.721 239.59 163.898 239.297C164.076 239.001 164.327 238.837 164.652 238.804C164.979 238.77 165.367 238.882 165.815 239.14C166.263 239.397 166.65 239.731 166.975 240.139C167.303 240.547 167.555 241.001 167.732 241.5C167.909 241.996 167.997 242.509 167.997 243.037C167.997 243.561 167.909 243.971 167.732 244.266C167.555 244.559 167.303 244.723 166.975 244.757C166.65 244.79 166.263 244.677 165.815 244.42ZM165.821 243.324C166.025 243.442 166.195 243.473 166.332 243.418C166.468 243.361 166.571 243.236 166.641 243.043C166.712 242.851 166.747 242.606 166.747 242.309C166.747 242.011 166.712 241.726 166.641 241.452C166.571 241.179 166.468 240.936 166.332 240.722C166.195 240.508 166.025 240.342 165.821 240.225C165.615 240.107 165.442 240.075 165.301 240.129C165.163 240.185 165.058 240.309 164.987 240.501C164.917 240.695 164.883 240.94 164.883 241.237C164.883 241.535 164.917 241.82 164.987 242.093C165.058 242.367 165.163 242.611 165.301 242.826C165.442 243.04 165.615 243.206 165.821 243.324ZM170.026 239.922V246.74L168.797 246.033V239.215L170.026 239.922ZM172.241 241.195V248.013L171.011 247.306V240.488L172.241 241.195ZM175.229 249.83C174.781 249.572 174.393 249.24 174.066 248.832C173.741 248.423 173.49 247.97 173.313 247.474C173.136 246.974 173.047 246.463 173.047 245.939C173.047 245.411 173.136 245 173.313 244.707C173.49 244.411 173.741 244.247 174.066 244.214C174.393 244.181 174.781 244.292 175.229 244.55C175.677 244.808 176.064 245.141 176.389 245.55C176.717 245.958 176.969 246.411 177.146 246.91C177.323 247.407 177.411 247.919 177.411 248.447C177.411 248.971 177.323 249.381 177.146 249.676C176.969 249.97 176.717 250.133 176.389 250.167C176.064 250.2 175.677 250.088 175.229 249.83ZM175.235 248.735C175.439 248.852 175.609 248.883 175.746 248.829C175.882 248.772 175.985 248.647 176.055 248.454C176.126 248.261 176.161 248.017 176.161 247.719C176.161 247.422 176.126 247.136 176.055 246.862C175.985 246.589 175.882 246.346 175.746 246.132C175.609 245.918 175.439 245.753 175.235 245.635C175.029 245.517 174.856 245.485 174.715 245.54C174.577 245.596 174.472 245.72 174.401 245.912C174.331 246.105 174.297 246.35 174.297 246.648C174.297 246.945 174.331 247.23 174.401 247.503C174.472 247.777 174.577 248.021 174.715 248.236C174.856 248.45 175.029 248.616 175.235 248.735ZM178.974 251.883L177.768 246.076L179.012 246.791L179.699 250.621L179.739 250.644L180.455 247.62L181.676 248.322L182.403 252.155L182.441 252.177L183.116 249.149L184.357 249.863L183.154 254.285L181.852 253.536L181.09 249.883L181.035 249.851L180.273 252.629L178.974 251.883ZM161.403 252.884C160.947 252.622 160.555 252.29 160.226 251.888C159.898 251.484 159.646 251.036 159.469 250.541C159.292 250.044 159.204 249.526 159.204 248.987C159.204 248.461 159.292 248.05 159.469 247.754C159.646 247.459 159.896 247.293 160.217 247.255C160.54 247.219 160.919 247.326 161.354 247.576C161.647 247.744 161.919 247.955 162.171 248.209C162.425 248.461 162.646 248.749 162.835 249.073C163.025 249.398 163.174 249.753 163.279 250.141C163.385 250.525 163.438 250.935 163.438 251.37V251.76L159.694 249.608V248.729L162.281 250.216C162.281 250.012 162.242 249.809 162.165 249.607C162.088 249.405 161.981 249.22 161.845 249.053C161.71 248.885 161.553 248.749 161.374 248.646C161.188 248.539 161.022 248.494 160.878 248.511C160.735 248.527 160.624 248.594 160.543 248.714C160.462 248.832 160.421 248.992 160.419 249.192V250.028C160.419 250.281 160.459 250.523 160.54 250.754C160.623 250.985 160.739 251.194 160.889 251.38C161.04 251.567 161.218 251.719 161.423 251.837C161.56 251.916 161.685 251.965 161.799 251.986C161.912 252.007 162.009 251.996 162.09 251.954C162.171 251.912 162.233 251.838 162.275 251.734L163.412 252.474C163.354 252.756 163.236 252.963 163.057 253.096C162.88 253.227 162.651 253.277 162.37 253.247C162.091 253.215 161.769 253.094 161.403 252.884ZM164.241 254.415V249.301L165.433 249.986V250.879L165.479 250.905C165.56 250.634 165.695 250.473 165.886 250.42C166.076 250.365 166.296 250.409 166.544 250.552C166.605 250.587 166.672 250.63 166.743 250.68C166.814 250.729 166.877 250.778 166.931 250.824V252.083C166.873 252.029 166.793 251.966 166.691 251.892C166.589 251.817 166.496 251.756 166.411 251.707C166.23 251.603 166.069 251.556 165.926 251.565C165.786 251.573 165.674 251.633 165.591 251.746C165.511 251.859 165.47 252.02 165.47 252.229V255.122L164.241 254.415ZM171.255 254.791L170.13 254.224C170.11 254.102 170.069 253.978 170.005 253.853C169.942 253.725 169.858 253.605 169.754 253.492C169.652 253.378 169.53 253.28 169.388 253.198C169.197 253.089 169.037 253.043 168.906 253.061C168.775 253.077 168.709 253.161 168.709 253.315C168.709 253.437 168.752 253.564 168.836 253.697C168.921 253.83 169.066 253.981 169.272 254.151L170.075 254.798C170.506 255.148 170.827 255.497 171.039 255.845C171.25 256.193 171.356 256.551 171.356 256.92C171.356 257.255 171.271 257.5 171.099 257.654C170.93 257.81 170.697 257.874 170.401 257.845C170.106 257.816 169.767 257.691 169.382 257.47C168.795 257.132 168.327 256.723 167.979 256.241C167.633 255.757 167.43 255.255 167.37 254.732L168.58 255.354C168.616 255.581 168.705 255.79 168.845 255.979C168.986 256.167 169.165 256.323 169.385 256.449C169.6 256.573 169.774 256.625 169.904 256.605C170.037 256.583 170.105 256.497 170.106 256.345C170.105 256.215 170.057 256.082 169.965 255.947C169.873 255.81 169.73 255.663 169.538 255.508L168.77 254.891C168.337 254.542 168.015 254.184 167.803 253.816C167.593 253.449 167.488 253.074 167.488 252.693C167.488 252.364 167.565 252.126 167.719 251.977C167.875 251.829 168.094 251.771 168.375 251.804C168.657 251.838 168.988 251.963 169.368 252.181C169.927 252.503 170.368 252.893 170.69 253.351C171.013 253.809 171.201 254.289 171.255 254.791Z" fill="#455A64"/>
<path d="M121.473 207.787C121.064 207.552 120.7 207.256 120.38 206.899C120.062 206.543 119.809 206.159 119.622 205.747C119.435 205.335 119.338 204.93 119.33 204.532L120.545 205.23C120.558 205.502 120.654 205.772 120.834 206.039C121.013 206.307 121.226 206.512 121.473 206.653C121.669 206.766 121.843 206.816 121.993 206.802C122.145 206.788 122.264 206.715 122.349 206.583C122.436 206.451 122.479 206.267 122.479 206.031C122.479 205.791 122.435 205.554 122.346 205.321C122.259 205.089 122.139 204.877 121.985 204.686C121.83 204.496 121.654 204.342 121.455 204.226C121.282 204.126 121.113 204.07 120.949 204.058C120.787 204.047 120.661 204.087 120.571 204.177L119.457 203.307L119.738 199.867L123.358 201.947V203.128L120.77 201.641L120.617 203.264L120.652 203.283C120.756 203.174 120.913 203.125 121.123 203.134C121.333 203.144 121.568 203.223 121.828 203.373C122.185 203.578 122.503 203.857 122.783 204.211C123.062 204.565 123.283 204.958 123.445 205.389C123.607 205.818 123.687 206.25 123.685 206.687C123.687 207.149 123.594 207.505 123.407 207.755C123.222 208.004 122.963 208.136 122.629 208.148C122.298 208.16 121.912 208.04 121.473 207.787ZM126.88 210.951C126.382 210.663 125.954 210.276 125.596 209.79C125.239 209.305 124.965 208.741 124.772 208.099C124.581 207.458 124.487 206.765 124.488 206.019C124.488 205.274 124.584 204.694 124.775 204.279C124.967 203.865 125.242 203.624 125.599 203.555C125.957 203.486 126.384 203.593 126.88 203.878C127.375 204.163 127.801 204.545 128.158 205.026C128.516 205.508 128.792 206.066 128.985 206.702C129.177 207.335 129.273 208.024 129.271 208.767C129.271 209.516 129.174 210.101 128.982 210.522C128.791 210.944 128.517 211.192 128.16 211.267C127.804 211.342 127.377 211.237 126.88 210.951ZM126.88 209.754C127.219 209.949 127.49 209.908 127.692 209.631C127.894 209.354 127.995 208.821 127.993 208.033C127.993 207.515 127.947 207.057 127.854 206.659C127.763 206.262 127.634 205.929 127.467 205.659C127.301 205.391 127.105 205.192 126.88 205.062C126.542 204.868 126.272 204.908 126.07 205.18C125.868 205.453 125.765 205.977 125.764 206.752C125.764 207.276 125.809 207.74 125.899 208.144C125.992 208.546 126.122 208.883 126.29 209.155C126.457 209.425 126.654 209.624 126.88 209.754ZM132.485 214.173C131.988 213.885 131.56 213.498 131.202 213.012C130.845 212.527 130.57 211.963 130.377 211.321C130.187 210.68 130.092 209.986 130.094 209.24C130.094 208.496 130.19 207.916 130.38 207.501C130.573 207.087 130.848 206.846 131.204 206.777C131.563 206.707 131.99 206.815 132.485 207.1C132.981 207.384 133.407 207.767 133.763 208.248C134.122 208.729 134.397 209.288 134.59 209.924C134.783 210.557 134.878 211.245 134.876 211.989C134.876 212.738 134.78 213.323 134.587 213.744C134.396 214.165 134.123 214.414 133.766 214.489C133.41 214.564 132.983 214.459 132.485 214.173ZM132.485 212.976C132.825 213.171 133.095 213.13 133.298 212.852C133.5 212.575 133.6 212.043 133.598 211.254C133.598 210.736 133.552 210.279 133.46 209.881C133.369 209.484 133.24 209.151 133.072 208.881C132.906 208.612 132.711 208.413 132.485 208.284C132.148 208.09 131.878 208.129 131.676 208.402C131.473 208.675 131.371 209.198 131.369 209.973C131.369 210.498 131.415 210.962 131.505 211.365C131.598 211.768 131.728 212.105 131.895 212.377C132.063 212.646 132.26 212.846 132.485 212.976Z" fill="#BA68C8"/>
<path d="M119.344 217.47V210.652L123.258 212.902V214.09L120.594 212.559V214.184L122.998 215.565V216.754L120.594 215.372V218.189L119.344 217.47ZM125.753 221.254C125.305 220.996 124.917 220.663 124.59 220.256C124.265 219.847 124.014 219.394 123.837 218.897C123.659 218.398 123.571 217.887 123.571 217.363C123.571 216.835 123.659 216.424 123.837 216.131C124.014 215.835 124.265 215.671 124.59 215.638C124.917 215.604 125.305 215.716 125.753 215.974C126.201 216.231 126.588 216.565 126.913 216.973C127.241 217.381 127.493 217.835 127.67 218.334C127.847 218.83 127.935 219.343 127.935 219.871C127.935 220.395 127.847 220.805 127.67 221.1C127.493 221.393 127.241 221.557 126.913 221.591C126.588 221.624 126.201 221.511 125.753 221.254ZM125.759 220.158C125.963 220.276 126.133 220.307 126.27 220.252C126.406 220.195 126.509 220.07 126.579 219.877C126.65 219.685 126.685 219.44 126.685 219.143C126.685 218.845 126.65 218.56 126.579 218.286C126.509 218.013 126.406 217.77 126.27 217.556C126.133 217.342 125.963 217.176 125.759 217.059C125.553 216.941 125.38 216.909 125.239 216.963C125.101 217.019 124.996 217.143 124.925 217.335C124.855 217.528 124.821 217.774 124.821 218.071C124.821 218.369 124.855 218.654 124.925 218.927C124.996 219.201 125.101 219.445 125.239 219.66C125.38 219.874 125.553 220.04 125.759 220.158ZM129.964 216.756V223.574L128.735 222.867V216.049L129.964 216.756ZM132.179 218.029V224.847L130.949 224.14V217.322L132.179 218.029ZM135.167 226.664C134.719 226.406 134.331 226.074 134.004 225.666C133.679 225.257 133.428 224.804 133.251 224.307C133.074 223.808 132.985 223.297 132.985 222.773C132.985 222.245 133.074 221.834 133.251 221.541C133.428 221.245 133.679 221.081 134.004 221.048C134.331 221.014 134.719 221.126 135.167 221.384C135.615 221.642 136.002 221.975 136.327 222.384C136.655 222.792 136.907 223.245 137.084 223.744C137.261 224.241 137.349 224.753 137.349 225.281C137.349 225.805 137.261 226.215 137.084 226.51C136.907 226.804 136.655 226.967 136.327 227.001C136.002 227.034 135.615 226.922 135.167 226.664ZM135.173 225.569C135.377 225.686 135.547 225.717 135.684 225.663C135.82 225.606 135.923 225.481 135.993 225.287C136.064 225.095 136.099 224.851 136.099 224.553C136.099 224.256 136.064 223.97 135.993 223.696C135.923 223.423 135.82 223.18 135.684 222.966C135.547 222.752 135.377 222.587 135.173 222.469C134.967 222.351 134.794 222.319 134.653 222.374C134.515 222.43 134.41 222.554 134.339 222.746C134.269 222.939 134.235 223.184 134.235 223.482C134.235 223.779 134.269 224.064 134.339 224.337C134.41 224.611 134.515 224.855 134.653 225.07C134.794 225.284 134.967 225.45 135.173 225.569ZM138.912 228.717L137.706 222.91L138.95 223.625L139.637 227.455L139.677 227.478L140.393 224.454L141.614 225.156L142.341 228.989L142.379 229.011L143.054 225.983L144.295 226.697L143.092 231.119L141.79 230.37L141.028 226.717L140.973 226.685L140.211 229.463L138.912 228.717ZM119.321 228.457V223.343L120.55 224.05V229.164L119.321 228.457ZM119.938 223.039C119.756 222.934 119.599 222.774 119.468 222.559C119.339 222.343 119.275 222.136 119.275 221.939C119.275 221.743 119.339 221.613 119.468 221.547C119.599 221.48 119.756 221.499 119.938 221.604C120.121 221.71 120.277 221.87 120.406 222.086C120.537 222.301 120.602 222.506 120.602 222.702C120.602 222.899 120.537 223.031 120.406 223.098C120.277 223.164 120.121 223.144 119.938 223.039ZM122.765 227.48V230.436L121.535 229.73V224.616L122.707 225.29V226.192L122.759 226.222C122.857 225.981 123.022 225.84 123.253 225.8C123.484 225.757 123.764 225.83 124.093 226.019C124.401 226.196 124.669 226.428 124.898 226.715C125.127 227.002 125.305 227.326 125.432 227.688C125.559 228.047 125.622 228.426 125.622 228.823V232.079L124.393 231.372V228.369C124.395 228.057 124.326 227.773 124.185 227.517C124.045 227.259 123.851 227.059 123.605 226.918C123.439 226.822 123.293 226.779 123.166 226.789C123.041 226.799 122.943 226.862 122.872 226.979C122.802 227.095 122.767 227.262 122.765 227.48ZM128.589 235.808C128.191 235.579 127.849 235.319 127.564 235.029C127.281 234.742 127.056 234.443 126.889 234.132C126.721 233.82 126.613 233.516 126.563 233.218L127.7 233.696C127.735 233.818 127.789 233.944 127.864 234.076C127.94 234.208 128.039 234.336 128.162 234.46C128.287 234.588 128.439 234.703 128.618 234.806C128.885 234.959 129.106 235.011 129.279 234.959C129.454 234.911 129.541 234.712 129.541 234.361V233.426L129.49 233.396C129.436 233.507 129.355 233.595 129.247 233.659C129.139 233.724 129.001 233.747 128.831 233.73C128.662 233.712 128.46 233.636 128.225 233.501C127.892 233.31 127.589 233.047 127.316 232.713C127.045 232.377 126.828 231.978 126.667 231.517C126.507 231.055 126.427 230.54 126.427 229.974C126.427 229.395 126.509 228.958 126.672 228.664C126.836 228.369 127.053 228.204 127.325 228.167C127.598 228.131 127.897 228.206 128.222 228.393C128.471 228.535 128.678 228.704 128.846 228.898C129.013 229.089 129.148 229.287 129.25 229.489C129.354 229.691 129.434 229.877 129.49 230.047L129.536 230.073V229.214L130.757 229.916V235.079C130.757 235.514 130.664 235.825 130.48 236.012C130.295 236.199 130.039 236.272 129.712 236.23C129.387 236.192 129.012 236.051 128.589 235.808ZM128.615 232.66C128.813 232.774 128.981 232.814 129.117 232.779C129.256 232.743 129.362 232.64 129.435 232.469C129.51 232.296 129.547 232.061 129.547 231.761C129.547 231.461 129.511 231.181 129.438 230.919C129.364 230.655 129.259 230.422 129.12 230.22C128.982 230.019 128.813 229.861 128.615 229.747C128.413 229.631 128.243 229.596 128.104 229.643C127.966 229.688 127.861 229.801 127.789 229.982C127.718 230.163 127.683 230.399 127.683 230.689C127.683 230.985 127.718 231.26 127.789 231.516C127.863 231.772 127.967 231.997 128.104 232.193C128.243 232.388 128.413 232.544 128.615 232.66Z" fill="#455A64"/>
<path d="M144.306 171.292C143.631 170.904 143.034 170.454 142.516 169.942C141.997 169.433 141.562 168.871 141.209 168.256C140.855 167.64 140.588 166.982 140.408 166.28C140.227 165.578 140.136 164.841 140.136 164.07C140.136 163.324 140.228 162.71 140.411 162.227C140.596 161.746 140.864 161.401 141.215 161.193C141.568 160.984 141.996 160.916 142.499 160.988C143.005 161.062 143.576 161.283 144.214 161.649C144.834 162.006 145.377 162.435 145.842 162.936C146.31 163.437 146.701 163.975 147.014 164.553C147.329 165.128 147.566 165.708 147.722 166.292C147.881 166.877 147.96 167.432 147.96 167.956C147.96 168.325 147.945 168.69 147.914 169.052C147.883 169.413 147.818 169.724 147.719 169.985C147.62 170.244 147.466 170.41 147.259 170.484C147.054 170.56 146.776 170.497 146.425 170.295C146.27 170.206 146.1 170.081 145.915 169.918C145.73 169.756 145.565 169.568 145.422 169.356C145.278 169.144 145.194 168.921 145.167 168.687L145.127 168.664C145.074 168.781 144.993 168.874 144.882 168.943C144.774 169.013 144.632 169.037 144.455 169.015C144.281 168.993 144.068 168.905 143.817 168.75C143.53 168.573 143.277 168.354 143.059 168.093C142.84 167.831 142.657 167.539 142.509 167.22C142.364 166.9 142.253 166.563 142.178 166.209C142.105 165.855 142.069 165.496 142.069 165.135C142.069 164.791 142.113 164.502 142.201 164.268C142.29 164.034 142.412 163.855 142.569 163.731C142.728 163.609 142.913 163.545 143.125 163.539C143.339 163.532 143.569 163.585 143.817 163.696C144.037 163.798 144.238 163.924 144.419 164.077C144.6 164.227 144.749 164.382 144.866 164.543C144.983 164.702 145.057 164.847 145.088 164.976L145.127 164.999V164.572L145.829 164.975V168.426C145.829 168.64 145.881 168.858 145.985 169.08C146.088 169.303 146.239 169.471 146.438 169.585C146.663 169.714 146.835 169.724 146.954 169.615C147.076 169.506 147.158 169.279 147.203 168.933C147.249 168.588 147.272 168.125 147.272 167.545C147.272 167.204 147.231 166.845 147.15 166.467C147.07 166.088 146.949 165.706 146.786 165.322C146.624 164.94 146.42 164.566 146.173 164.203C145.926 163.84 145.636 163.5 145.303 163.184C144.972 162.866 144.596 162.586 144.174 162.344C143.656 162.046 143.191 161.872 142.781 161.822C142.372 161.771 142.025 161.839 141.738 162.028C141.453 162.216 141.236 162.518 141.086 162.936C140.938 163.353 140.864 163.88 140.864 164.519C140.864 165.168 140.938 165.787 141.086 166.376C141.236 166.966 141.457 167.518 141.748 168.031C142.041 168.546 142.404 169.017 142.837 169.443C143.269 169.873 143.768 170.25 144.333 170.574C144.576 170.714 144.815 170.825 145.051 170.907C145.287 170.989 145.496 171.05 145.677 171.091C145.858 171.131 145.988 171.159 146.067 171.174L146.253 171.983C146.116 171.97 145.937 171.934 145.716 171.873C145.498 171.814 145.264 171.734 145.015 171.634C144.768 171.535 144.532 171.421 144.306 171.292ZM143.923 168.033C144.218 168.203 144.458 168.271 144.641 168.239C144.824 168.207 144.957 168.076 145.041 167.847C145.125 167.618 145.167 167.292 145.167 166.87C145.167 166.442 145.121 166.082 145.028 165.79C144.935 165.497 144.799 165.25 144.618 165.05C144.437 164.849 144.214 164.673 143.949 164.52C143.697 164.376 143.482 164.329 143.304 164.379C143.127 164.427 142.991 164.55 142.897 164.748C142.804 164.944 142.757 165.19 142.757 165.485C142.757 165.811 142.795 166.139 142.87 166.47C142.945 166.798 143.068 167.1 143.237 167.375C143.407 167.649 143.636 167.868 143.923 168.033ZM152.334 171.446V167.98L153.115 168.429V174.293L152.334 173.844V172.851L152.281 172.821C152.161 173.05 151.976 173.197 151.725 173.261C151.473 173.322 151.155 173.243 150.771 173.022C150.454 172.84 150.171 172.597 149.924 172.295C149.677 171.99 149.483 171.634 149.342 171.227C149.2 170.818 149.13 170.364 149.13 169.865V166.139L149.911 166.588V170.253C149.911 170.68 150.014 171.081 150.222 171.454C150.432 171.829 150.699 172.11 151.023 172.296C151.217 172.408 151.415 172.464 151.615 172.465C151.818 172.467 151.988 172.389 152.125 172.231C152.264 172.075 152.334 171.813 152.334 171.446ZM158.146 172.634L157.445 172.46C157.401 172.3 157.335 172.131 157.249 171.954C157.166 171.776 157.051 171.604 156.905 171.436C156.76 171.268 156.573 171.119 156.346 170.988C156.035 170.81 155.775 170.743 155.568 170.79C155.363 170.835 155.26 170.983 155.26 171.235C155.26 171.459 155.331 171.676 155.472 171.887C155.613 172.098 155.834 172.333 156.134 172.592L156.889 173.24C157.343 173.628 157.682 174.018 157.905 174.408C158.128 174.795 158.239 175.194 158.239 175.604C158.239 175.94 158.155 176.192 157.988 176.36C157.822 176.53 157.59 176.605 157.292 176.587C156.995 176.568 156.648 176.446 156.253 176.219C155.735 175.921 155.305 175.544 154.966 175.089C154.626 174.634 154.411 174.132 154.32 173.581L155.062 173.793C155.132 174.149 155.266 174.463 155.462 174.733C155.661 175.005 155.92 175.233 156.24 175.417C156.604 175.626 156.893 175.703 157.107 175.648C157.323 175.592 157.431 175.438 157.431 175.186C157.431 174.982 157.37 174.776 157.246 174.567C157.123 174.357 156.933 174.143 156.677 173.927L155.83 173.211C155.364 172.816 155.022 172.423 154.803 172.03C154.587 171.636 154.479 171.237 154.479 170.832C154.479 170.501 154.56 170.255 154.721 170.093C154.884 169.932 155.106 169.86 155.386 169.876C155.668 169.893 155.988 170.004 156.346 170.21C156.849 170.499 157.244 170.853 157.531 171.272C157.82 171.693 158.025 172.147 158.146 172.634ZM161.546 179.261C161.057 178.979 160.634 178.612 160.279 178.158C159.926 177.703 159.653 177.195 159.461 176.635C159.271 176.072 159.177 175.491 159.177 174.891C159.177 174.29 159.271 173.815 159.461 173.466C159.653 173.116 159.92 172.91 160.262 172.85C160.606 172.788 161.008 172.889 161.467 173.153C161.732 173.305 161.993 173.506 162.251 173.756C162.51 174.007 162.745 174.307 162.956 174.658C163.168 175.006 163.337 175.403 163.463 175.85C163.589 176.296 163.651 176.793 163.651 177.34V177.722L159.733 175.47V174.691L162.857 176.487C162.857 176.156 162.8 175.828 162.685 175.502C162.572 175.178 162.411 174.88 162.202 174.61C161.994 174.34 161.749 174.124 161.467 173.962C161.156 173.783 160.887 173.718 160.659 173.765C160.434 173.812 160.261 173.941 160.14 174.154C160.018 174.367 159.958 174.634 159.958 174.958V175.477C159.958 175.92 160.024 176.333 160.156 176.717C160.291 177.1 160.477 177.44 160.716 177.737C160.954 178.032 161.231 178.27 161.546 178.451C161.752 178.569 161.937 178.643 162.102 178.672C162.27 178.699 162.415 178.681 162.536 178.615C162.657 178.548 162.751 178.431 162.817 178.266L163.572 178.944C163.493 179.193 163.359 179.376 163.171 179.492C162.984 179.606 162.752 179.646 162.476 179.612C162.201 179.576 161.891 179.458 161.546 179.261ZM164.84 181.031V175.168L165.594 175.601V176.487L165.647 176.517C165.74 176.28 165.908 176.141 166.15 176.1C166.393 176.059 166.667 176.126 166.971 176.301C167.029 176.334 167.1 176.376 167.186 176.428C167.272 176.48 167.337 176.522 167.382 176.552V177.468C167.355 177.445 167.294 177.399 167.2 177.329C167.107 177.258 167.009 177.193 166.905 177.133C166.658 176.991 166.437 176.924 166.243 176.932C166.051 176.939 165.899 177.014 165.786 177.158C165.676 177.301 165.621 177.505 165.621 177.77V181.48L164.84 181.031ZM141.182 176.908V180.435L140.401 179.986V174.122L141.156 174.556V175.472L141.222 175.51C141.341 175.281 141.522 175.146 141.765 175.105C142.007 175.061 142.321 175.149 142.705 175.37C143.049 175.568 143.35 175.822 143.608 176.133C143.866 176.442 144.067 176.802 144.21 177.213C144.354 177.621 144.426 178.074 144.426 178.573V182.299L143.645 181.85V178.185C143.645 177.725 143.541 177.306 143.333 176.93C143.126 176.551 142.841 176.258 142.479 176.05C142.23 175.907 142.007 175.841 141.811 175.853C141.617 175.866 141.463 175.96 141.351 176.134C141.238 176.309 141.182 176.566 141.182 176.908ZM147.349 184.117C147.027 183.931 146.734 183.693 146.472 183.402C146.209 183.109 146.001 182.784 145.846 182.428C145.692 182.07 145.615 181.7 145.615 181.318C145.615 180.982 145.672 180.743 145.787 180.6C145.902 180.455 146.055 180.377 146.247 180.368C146.439 180.359 146.651 180.391 146.882 180.466C147.116 180.539 147.351 180.626 147.587 180.726C147.896 180.858 148.147 180.967 148.339 181.055C148.533 181.141 148.674 181.18 148.762 181.172C148.853 181.166 148.898 181.09 148.898 180.945V180.914C148.898 180.538 148.809 180.194 148.63 179.882C148.453 179.572 148.185 179.314 147.826 179.107C147.453 178.893 147.16 178.819 146.949 178.885C146.737 178.952 146.588 179.068 146.502 179.232L145.76 178.5C145.893 178.22 146.069 178.044 146.29 177.973C146.513 177.9 146.755 177.899 147.018 177.971C147.283 178.042 147.543 178.151 147.799 178.298C147.962 178.392 148.15 178.522 148.362 178.69C148.576 178.856 148.782 179.065 148.981 179.317C149.182 179.569 149.348 179.873 149.481 180.226C149.613 180.58 149.679 180.989 149.679 181.455V185.318L148.898 184.869V184.075L148.858 184.052C148.805 184.149 148.717 184.235 148.593 184.309C148.47 184.383 148.306 184.412 148.1 184.396C147.895 184.379 147.645 184.286 147.349 184.117ZM147.468 183.376C147.777 183.553 148.037 183.633 148.249 183.615C148.463 183.598 148.624 183.51 148.733 183.35C148.843 183.192 148.898 182.991 148.898 182.747V181.922C148.865 181.949 148.792 181.949 148.68 181.923C148.569 181.895 148.441 181.853 148.296 181.797C148.152 181.74 148.012 181.683 147.875 181.625C147.741 181.565 147.631 181.518 147.548 181.482C147.345 181.396 147.155 181.337 146.978 181.304C146.804 181.27 146.663 181.289 146.555 181.362C146.449 181.433 146.396 181.584 146.396 181.813C146.396 182.126 146.496 182.42 146.697 182.696C146.9 182.97 147.157 183.197 147.468 183.376ZM151.105 186.138V180.274L151.859 180.708V181.624L151.926 181.662C152.032 181.41 152.203 181.265 152.439 181.228C152.675 181.188 152.958 181.263 153.289 181.453C153.625 181.646 153.904 181.894 154.127 182.198C154.352 182.5 154.527 182.844 154.653 183.229L154.706 183.26C154.836 183.032 155.031 182.903 155.292 182.875C155.552 182.844 155.864 182.933 156.228 183.142C156.683 183.403 157.055 183.781 157.344 184.276C157.633 184.768 157.777 185.358 157.777 186.048V189.972L156.996 189.523V185.599C156.996 185.166 156.894 184.798 156.688 184.495C156.483 184.191 156.242 183.959 155.964 183.799C155.606 183.594 155.329 183.559 155.133 183.696C154.936 183.83 154.838 184.087 154.838 184.466V188.283L154.044 187.827V183.811C154.044 183.477 153.95 183.155 153.763 182.844C153.575 182.53 153.333 182.288 153.038 182.118C152.835 182.001 152.645 181.954 152.468 181.978C152.294 182.002 152.153 182.094 152.045 182.253C151.939 182.411 151.886 182.634 151.886 182.922V186.587L151.105 186.138ZM161.337 192.14C160.847 191.859 160.425 191.491 160.069 191.038C159.716 190.583 159.444 190.075 159.252 189.514C159.062 188.952 158.967 188.371 158.967 187.77C158.967 187.17 159.062 186.695 159.252 186.346C159.444 185.995 159.711 185.79 160.053 185.73C160.397 185.668 160.799 185.769 161.258 186.033C161.522 186.185 161.784 186.386 162.042 186.636C162.3 186.886 162.535 187.187 162.747 187.538C162.959 187.886 163.128 188.283 163.253 188.729C163.379 189.176 163.442 189.673 163.442 190.22V190.602L159.523 188.349V187.571L162.648 189.366C162.648 189.035 162.59 188.707 162.476 188.382C162.363 188.057 162.202 187.76 161.992 187.489C161.785 187.22 161.54 187.004 161.258 186.842C160.946 186.663 160.677 186.597 160.45 186.645C160.225 186.691 160.052 186.821 159.93 187.033C159.809 187.246 159.748 187.514 159.748 187.837V188.357C159.748 188.799 159.815 189.213 159.947 189.597C160.082 189.98 160.268 190.32 160.506 190.617C160.745 190.912 161.022 191.15 161.337 191.331C161.542 191.449 161.728 191.522 161.893 191.551C162.061 191.579 162.205 191.56 162.327 191.495C162.448 191.427 162.542 191.311 162.608 191.145L163.363 191.823C163.283 192.073 163.15 192.256 162.962 192.372C162.775 192.486 162.543 192.525 162.267 192.492C161.991 192.455 161.681 192.338 161.337 192.14Z" fill="#BA68C8"/>
<path d="M84.24 217.092C84.24 217.092 86.184 216.666 86.094 218.946C85.998 221.346 87.768 224.58 83.418 225.744C81.0603 226.404 78.8807 227.585 77.04 229.2C75.456 230.442 71.178 231.66 67.956 230.22C62.034 227.568 70.092 224.364 70.092 224.364L84.24 217.092Z" fill="#263238"/>
<path d="M107.172 217.122C107.172 217.122 108.372 216.174 109.02 221.088C109.668 226.002 114.96 238.416 106.578 238.416C102.276 238.416 101.898 231.72 101.916 227.154C101.934 222.588 101.754 218.22 102.348 217.458C102.942 216.696 107.172 217.122 107.172 217.122Z" fill="#263238"/>
<path d="M88.65 176.184C88.2953 177.988 88.0946 179.818 88.05 181.656C88.05 183.972 88.452 190.236 88.05 194.298C87.648 198.36 85.35 213.954 85.188 215.004C85.1262 215.824 85.1666 216.648 85.308 217.458C85.3384 217.653 85.3148 217.852 85.2396 218.034C85.1645 218.216 85.0408 218.374 84.882 218.49C83.604 219.444 80.382 221.862 79.308 222.738C77.952 223.848 73.992 229.014 70.098 224.376C70.098 224.376 78.678 218.58 79.098 216.054C79.518 213.528 77.796 191.64 77.298 189.054C76.8 186.468 76.698 170.874 76.698 170.874L88.65 176.184Z" fill="#FFA8A7"/>
<path d="M106.05 174V178.8C106.05 179.307 106.092 179.812 106.176 180.312C106.602 182.868 107.976 191.634 108.126 198.642C108.294 206.946 108.18 214.338 107.826 217.44C107.472 220.542 109.32 226.518 109.482 227.43C109.848 229.488 109.536 230.802 106.482 230.832C104.562 230.832 103.278 230.472 103.116 227.502C102.954 224.532 102.618 218.826 102.618 218.826C102.618 218.826 98.472 199.332 97.746 196.086C97.02 192.84 93.306 177.258 93.066 175.686L106.05 174Z" fill="#FFA8A7"/>
<path d="M79.2 89.844C79.2 89.844 77.4 90.768 78.858 95.058C80.316 99.348 76.986 101.49 76.116 99.804C76.116 99.804 76.176 102.528 79.476 102.528C82.776 102.528 83.37 99.792 83.37 99.792C83.37 99.792 84.57 101.094 84.57 104.754C84.57 108.414 81.078 122.154 93.306 122.154C105.534 122.154 105.306 111.738 105.306 111.738C105.306 111.738 108.444 111.792 108.444 107.106C108.444 107.106 103.68 110.064 103.68 103.452C103.68 96.84 104.766 88.452 99.72 88.452C99.72 88.452 101.454 84.852 98.004 82.56C94.554 80.268 84.204 83.388 84.204 83.388C84.204 83.388 81.09 81.522 78.858 83.73C76.14 86.454 79.2 89.844 79.2 89.844Z" fill="#263238"/>
<path d="M85.164 109.098C82.5456 109.163 80.0115 110.037 77.91 111.6C74.346 114.24 68.088 118.8 68.088 118.8C68.088 118.8 61.05 109.662 59.64 106.8L55.098 110.136C55.098 110.136 61.944 128.1 66.93 128.1C70.644 128.1 81.516 119.898 81.516 119.898L85.164 109.098Z" fill="#FFA8A7"/>
<path d="M60.396 108.108C60.8862 106.824 60.9179 105.411 60.486 104.106C60.282 103.44 60.846 101.52 60.486 101.238C60.126 100.956 58.782 100.98 58.416 103.596C57.738 102.638 57.2567 101.555 57 100.41C56.634 98.61 56.322 96.252 54.372 97.644C52.422 99.036 50.028 102.066 51.876 105.054C53.676 107.94 55.074 110.124 55.074 110.124L60.396 108.108Z" fill="#FFA8A7"/>
<path d="M103.356 140.886C103.356 140.886 104.79 144.042 105.63 150.726C106.47 157.41 106.05 174.018 106.05 174.018C101.121 176.137 95.815 177.239 90.45 177.258C85.2742 177.297 80.2364 175.589 76.152 172.41C76.152 172.41 76.308 173.112 76.308 161.064C76.308 149.016 78.894 141.864 78.894 141.864L103.356 140.886Z" fill="#263238"/>
<path d="M96.078 109.422L99.546 110.376C99.7554 110.433 99.9419 110.554 100.08 110.721C100.217 110.889 100.299 111.096 100.314 111.312L101.178 123.834L99.216 130.8C99.043 131.415 99.0114 132.061 99.1236 132.689C99.2359 133.318 99.489 133.913 99.864 134.43C101.308 136.425 102.482 138.602 103.356 140.904C103.356 140.904 99.312 146.022 89.994 146.022C83.538 146.022 78.906 141.876 78.906 141.876C79.8283 139.132 80.4813 136.305 80.856 133.434C80.9431 131.814 80.7544 130.191 80.298 128.634C80.298 128.634 76.482 126.834 77.184 121.722C77.886 116.61 85.164 109.122 85.164 109.122L88.524 109.032L96.078 109.422Z" fill="#2997FF"/>
<path d="M96.078 109.422L86.478 115.662C86.3958 115.713 86.2997 115.736 86.2035 115.728C86.1073 115.721 86.0159 115.683 85.9425 115.62C85.8691 115.558 85.8175 115.473 85.7952 115.38C85.7728 115.286 85.7808 115.187 85.818 115.098L88.554 109.008V99H96.108L96.078 109.422Z" fill="#FFA8A7"/>
<path d="M88.524 108.138C90.0674 107.566 91.4782 106.686 92.6706 105.551C93.863 104.417 94.8121 103.051 95.46 101.538V99H88.524V108.138Z" fill="#F28F8F"/>
<path d="M86.76 86.6159C86.76 86.6159 79.854 87.0179 80.706 98.8319C81.102 104.292 82.38 107.124 86.586 106.914C91.35 106.68 98.118 103.404 97.674 94.0619C97.23 84.7199 86.76 86.6159 86.76 86.6159Z" fill="#FFA8A7"/>
<path d="M96.078 98.9999C96.078 98.9999 94.182 99.4979 94.182 96.7859C94.182 96.7859 85.782 96.2159 83.91 87.8639C83.91 87.8639 84.738 85.3619 89.994 85.3619C95.25 85.3619 99.666 90.0059 98.292 96.3959L96.078 98.9999Z" fill="#263238"/>
<path d="M85.77 96.462V100.524L83.394 99.792L85.77 96.462Z" fill="#F28F8F"/>
<path d="M88.524 97.7219C88.9813 97.7219 89.352 97.3512 89.352 96.8939C89.352 96.4366 88.9813 96.0659 88.524 96.0659C88.0667 96.0659 87.696 96.4366 87.696 96.8939C87.696 97.3512 88.0667 97.7219 88.524 97.7219Z" fill="#263238"/>
<path d="M83.91 96.318C83.91 96.4818 83.8614 96.6418 83.7705 96.778C83.6795 96.9142 83.5502 97.0203 83.3989 97.083C83.2476 97.1456 83.0811 97.162 82.9205 97.1301C82.7598 97.0981 82.6123 97.0193 82.4965 96.9035C82.3807 96.7877 82.3019 96.6401 82.2699 96.4795C82.238 96.3189 82.2544 96.1524 82.317 96.0011C82.3797 95.8498 82.4858 95.7205 82.622 95.6295C82.7581 95.5386 82.9182 95.49 83.082 95.49C83.3016 95.49 83.5122 95.5772 83.6675 95.7325C83.8228 95.8878 83.91 96.0984 83.91 96.318Z" fill="#263238"/>
<path d="M82.074 94.5959L83.688 93.6299C83.688 93.6299 83.088 92.9879 82.452 93.3719C82.2736 93.5146 82.1422 93.7076 82.0748 93.9258C82.0074 94.1441 82.0071 94.3775 82.074 94.5959Z" fill="#263238"/>
<path d="M85.974 101.868C86.9171 101.937 87.8557 101.685 88.638 101.154C88.638 101.154 88.824 102.558 87.648 102.828C87.3012 102.885 86.9454 102.82 86.6406 102.645C86.3357 102.47 86.1003 102.196 85.974 101.868Z" fill="#F28F8F"/>
<path d="M95.4 99.306C95.3714 98.6185 95.4986 97.9334 95.772 97.302C95.9045 96.9081 96.1496 96.5617 96.477 96.3057C96.8045 96.0498 97.1998 95.8955 97.614 95.862C99.732 95.802 100.014 97.848 100.014 98.574C99.942 100.482 98.394 102.546 95.514 102.624L95.4 99.306Z" fill="#FFA8A7"/>
<path d="M99.6 110.4C99.6 110.4 96.132 114.492 101.196 123.846C106.26 133.2 106.674 133.98 106.674 133.98C106.674 133.98 103.212 144.108 101.874 149.322L107.052 152.148C107.052 152.148 112.536 140.676 113.838 138.174C115.14 135.672 115.182 133.74 113.838 130.32C112.494 126.9 108.504 118.386 107.46 115.92C106.416 113.454 103.086 111.348 99.6 110.4Z" fill="#FFA8A7"/>
<path d="M101.874 149.31C101.874 149.31 100.53 149.274 99.03 151.188C98.604 151.734 96.708 152.388 96.63 152.808C96.552 153.228 97.404 154.35 99.756 153.144C99.3616 154.254 98.7496 155.274 97.956 156.144C96.702 157.47 94.956 159.084 97.206 159.882C99.456 160.68 103.32 160.902 104.706 157.674C106.05 154.56 107.022 152.142 107.022 152.142L101.874 149.31Z" fill="#FFA8A7"/>
<path opacity="0.2" d="M95.598 126.678C95.598 126.678 92.394 130.878 87.198 128.988C87.204 129 92.478 132.804 95.598 126.678Z" fill="black"/>
</svg>
