<svg width="56" height="40" viewBox="0 0 28 20" fill="none" xmlns="http://www.w3.org/2000/svg">
<path d="M6.55936 0.994629H0.406812C0.182146 0.994629 0 1.18472 0 1.41923V19.4783C0 19.7128 0.182146 19.9028 0.406812 19.9028H6.55936C6.78403 19.9028 6.96618 19.7127 6.96618 19.4783V1.41923C6.96618 1.18472 6.78403 0.994629 6.55936 0.994629ZM6.15255 19.0537H0.813624V1.8438H6.15251L6.15255 19.0537Z" fill="#0062AA"/>
<path d="M3.48396 5.97086C4.30702 5.97086 4.97672 5.30116 4.97672 4.4781C4.97672 3.65502 4.30702 2.98535 3.48396 2.98535C2.66091 2.98535 1.99121 3.65502 1.99121 4.4781C1.99121 5.30116 2.66091 5.97086 3.48396 5.97086ZM3.48396 3.58247C3.97784 3.58247 4.37963 3.98423 4.37963 4.4781C4.37963 4.97198 3.97787 5.37374 3.48396 5.37374C2.99009 5.37374 2.58833 4.97198 2.58833 4.4781C2.58833 3.98423 2.99009 3.58247 3.48396 3.58247Z" fill="#0062AA"/>
<path d="M3.73196 17.9126V8.95605H3.48317H3.23438V17.9126H3.48317H3.73196Z" fill="#0062AA"/>
<path d="M14.5203 0.994141H8.36775C8.14308 0.994141 7.96094 1.18424 7.96094 1.41875V19.4778C7.96094 19.7123 8.14308 19.9023 8.36775 19.9023H14.5203C14.745 19.9023 14.9271 19.7122 14.9271 19.4778V1.41875C14.9271 1.18424 14.745 0.994141 14.5203 0.994141ZM14.1135 19.0532H8.77456V1.84331H14.1135L14.1135 19.0532Z" fill="#0094FF"/>
<path d="M11.4449 5.97086C12.268 5.97086 12.9377 5.30116 12.9377 4.4781C12.9377 3.65502 12.268 2.98535 11.4449 2.98535C10.6218 2.98535 9.95215 3.65502 9.95215 4.4781C9.95215 5.30116 10.6218 5.97086 11.4449 5.97086ZM11.4449 3.58247C11.9388 3.58247 12.3406 3.98423 12.3406 4.4781C12.3406 4.97198 11.9388 5.37374 11.4449 5.37374C10.951 5.37374 10.5493 4.97198 10.5493 4.4781C10.5493 3.98423 10.951 3.58247 11.4449 3.58247Z" fill="#0094FF"/>
<path d="M11.6929 17.9121V8.95557H11.4441H11.1953V17.9121H11.4441H11.6929Z" fill="#0094FF"/>
<path d="M22.3095 0.0927607L16.3199 1.49928C16.1012 1.55065 15.9673 1.77735 16.0209 2.00565L20.1493 19.5864C20.2029 19.8147 20.4237 19.9581 20.6424 19.9068L26.6321 18.5002C26.8508 18.4489 26.9846 18.2222 26.931 17.9939L22.8026 0.413122C22.749 0.184821 22.5282 0.0414001 22.3095 0.0927607ZM26.0419 17.7666L20.8443 18.9871L16.91 2.23297L22.1075 1.01245L26.0419 17.7666Z" fill="#0094FF"/>
<path d="M20.4521 5.64038C21.2534 5.45223 21.7523 4.64716 21.5641 3.84591C21.3759 3.04462 20.5709 2.54578 19.7696 2.73394C18.9684 2.9221 18.4695 3.72713 18.6577 4.52842C18.8458 5.32968 19.6509 5.82854 20.4521 5.64038ZM19.9061 3.31525C20.3869 3.20234 20.8699 3.50161 20.9828 3.98241C21.0957 4.46321 20.7965 4.94617 20.3156 5.05908C19.8348 5.17198 19.3519 4.87271 19.239 4.39191C19.1261 3.91111 19.4253 3.42815 19.9061 3.31525Z" fill="#0094FF"/>
<path d="M23.4245 17.2091L21.377 8.48976L21.1348 8.54664L20.8926 8.60352L22.9401 17.3228L23.1823 17.266L23.4245 17.2091Z" fill="#0094FF"/>
</svg>
