<svg width="56" height="40" viewBox="0 0 28 20" fill="none" xmlns="http://www.w3.org/2000/svg">
<path d="M6.55936 0.994629H0.406812C0.182146 0.994629 0 1.18472 0 1.41923V19.4783C0 19.7128 0.182146 19.9028 0.406812 19.9028H6.55936C6.78403 19.9028 6.96618 19.7127 6.96618 19.4783V1.41923C6.96618 1.18472 6.78403 0.994629 6.55936 0.994629ZM6.15255 19.0537H0.813624V1.8438H6.15251L6.15255 19.0537Z" fill="white"/>
<path d="M3.48348 5.97061C4.30653 5.97061 4.97623 5.30091 4.97623 4.47786C4.97623 3.65478 4.30653 2.98511 3.48348 2.98511C2.66042 2.98511 1.99072 3.65478 1.99072 4.47786C1.99072 5.30091 2.66042 5.97061 3.48348 5.97061ZM3.48348 3.58223C3.97735 3.58223 4.37914 3.98398 4.37914 4.47786C4.37914 4.97174 3.97738 5.37349 3.48348 5.37349C2.9896 5.37349 2.58784 4.97174 2.58784 4.47786C2.58784 3.98398 2.9896 3.58223 3.48348 3.58223Z" fill="white"/>
<path d="M3.73196 17.9126V8.95605H3.48317H3.23438V17.9126H3.48317H3.73196Z" fill="white"/>
<path d="M14.5198 0.994141H8.36726C8.1426 0.994141 7.96045 1.18424 7.96045 1.41875V19.4778C7.96045 19.7123 8.1426 19.9023 8.36726 19.9023H14.5198C14.7445 19.9023 14.9266 19.7122 14.9266 19.4778V1.41875C14.9266 1.18424 14.7445 0.994141 14.5198 0.994141ZM14.113 19.0532H8.77407V1.84331H14.113L14.113 19.0532Z" fill="#A7A4A4"/>
<path d="M11.4439 5.97061C12.267 5.97061 12.9367 5.30091 12.9367 4.47786C12.9367 3.65478 12.267 2.98511 11.4439 2.98511C10.6209 2.98511 9.95117 3.65478 9.95117 4.47786C9.95117 5.30091 10.6209 5.97061 11.4439 5.97061ZM11.4439 3.58223C11.9378 3.58223 12.3396 3.98398 12.3396 4.47786C12.3396 4.97174 11.9378 5.37349 11.4439 5.37349C10.95 5.37349 10.5483 4.97174 10.5483 4.47786C10.5483 3.98398 10.95 3.58223 11.4439 3.58223Z" fill="#A7A4A4"/>
<path d="M11.6924 17.9121V8.95557H11.4436H11.1948V17.9121H11.4436H11.6924Z" fill="#A7A4A4"/>
<path d="M22.309 0.0930049L16.3194 1.49953C16.1007 1.55089 15.9668 1.77759 16.0204 2.00589L20.1488 19.5867C20.2025 19.815 20.4232 19.9584 20.6419 19.907L26.6316 18.5005C26.8503 18.4491 26.9842 18.2224 26.9306 17.9942L22.8021 0.413366C22.7485 0.185065 22.5277 0.0416443 22.309 0.0930049ZM26.0414 17.7668L20.8439 18.9873L16.9095 2.23321L22.1071 1.0127L26.0414 17.7668Z" fill="#353535"/>
<path d="M20.4512 5.64038C21.2524 5.45223 21.7513 4.64716 21.5631 3.84591C21.375 3.04462 20.5699 2.54578 19.7687 2.73394C18.9674 2.9221 18.4685 3.72713 18.6567 4.52842C18.8448 5.32968 19.6499 5.82854 20.4512 5.64038ZM19.9052 3.31525C20.386 3.20234 20.8689 3.50161 20.9819 3.98241C21.0948 4.46321 20.7955 4.94617 20.3147 5.05908C19.8339 5.17198 19.3509 4.87271 19.238 4.39191C19.1251 3.91111 19.4244 3.42815 19.9052 3.31525Z" fill="#353535"/>
<path d="M23.424 17.2093L21.3765 8.49001L21.1343 8.54688L20.8921 8.60376L22.9396 17.3231L23.1818 17.2662L23.424 17.2093Z" fill="#353535"/>
</svg>
